<svg width="20" height="20" viewBox="0 0 20 20" fill="none" xmlns="http://www.w3.org/2000/svg">
<path d="M18.1751 3.28335C16.8918 6.48335 13.6751 10.8334 10.9834 12.9917L9.34176 14.3084C9.13343 14.4584 8.9251 14.5917 8.69176 14.6834C8.69176 14.5334 8.68343 14.3667 8.65843 14.2084C8.56676 13.5084 8.2501 12.8584 7.69176 12.3C7.1251 11.7334 6.43343 11.4 5.7251 11.3084C5.55843 11.3 5.39176 11.2834 5.2251 11.3C5.31676 11.0417 5.45843 10.8 5.63343 10.6L6.93343 8.95835C9.08343 6.26669 13.4501 3.03335 16.6418 1.75835C17.1334 1.57502 17.6084 1.70835 17.9084 2.01669C18.2251 2.32502 18.3751 2.80002 18.1751 3.28335Z" stroke="#1DC337" stroke-width="1.5" stroke-linecap="round" stroke-linejoin="round"/>
<path d="M8.69173 14.6833C8.69173 15.6 8.34173 16.475 7.6834 17.1416C7.17507 17.65 6.4834 18 5.6584 18.1083L3.6084 18.3333C2.49173 18.4583 1.5334 17.5083 1.66673 16.375L1.89173 14.325C2.09173 12.5 3.61673 11.3333 5.2334 11.3C5.40007 11.2916 5.57507 11.3 5.7334 11.3083C6.44173 11.4 7.1334 11.725 7.70006 12.3C8.2584 12.8583 8.57506 13.5083 8.66673 14.2083C8.67506 14.3666 8.69173 14.525 8.69173 14.6833Z" stroke="#1DC337" stroke-width="1.5" stroke-linecap="round" stroke-linejoin="round"/>
<path d="M11.8665 12.0584C11.8665 9.88337 10.0998 8.1167 7.9248 8.1167" stroke="#1DC337" stroke-width="1.5" stroke-linecap="round" stroke-linejoin="round"/>
</svg>
