<svg width="17" height="17" viewBox="0 0 17 17" fill="none" xmlns="http://www.w3.org/2000/svg">
<path d="M1.41406 6.02075H8.14323" stroke="#2F6BF2" stroke-width="1.5" stroke-miterlimit="10" stroke-linecap="round" stroke-linejoin="round"/>
<path d="M4.24707 11.6875H5.66374" stroke="#2F6BF2" stroke-width="1.5" stroke-miterlimit="10" stroke-linecap="round" stroke-linejoin="round"/>
<path d="M7.43457 11.6875H10.2679" stroke="#2F6BF2" stroke-width="1.5" stroke-miterlimit="10" stroke-linecap="round" stroke-linejoin="round"/>
<path d="M15.5807 8.52133V11.4113C15.5807 13.8976 14.9503 14.5209 12.4357 14.5209H4.55906C2.04448 14.5209 1.41406 13.8976 1.41406 11.4113V5.58883C1.41406 3.10258 2.04448 2.47925 4.55906 2.47925H10.2682" stroke="#2F6BF2" stroke-width="1.5" stroke-linecap="round" stroke-linejoin="round"/>
<path d="M13.5124 2.92543L10.8845 5.55335C10.7853 5.65251 10.6862 5.85085 10.6649 5.99251L10.5233 6.99835C10.4737 7.3596 10.7287 7.6146 11.0899 7.56501L12.0958 7.42335C12.2374 7.4021 12.4358 7.30293 12.5349 7.20376L15.1628 4.57585C15.6162 4.12251 15.8287 3.59835 15.1628 2.93251C14.4899 2.2596 13.9658 2.4721 13.5124 2.92543Z" stroke="#2F6BF2" stroke-width="1.5" stroke-miterlimit="10" stroke-linecap="round" stroke-linejoin="round"/>
<path d="M13.1367 3.30078C13.3634 4.1012 13.9867 4.72453 14.7801 4.94411" stroke="#2F6BF2" stroke-width="1.5" stroke-miterlimit="10" stroke-linecap="round" stroke-linejoin="round"/>
</svg>
