<svg width="17" height="17" viewBox="0 0 17 17" fill="none" xmlns="http://www.w3.org/2000/svg">
<path d="M11.3332 5.66675H5.6665V11.3334H11.3332V5.66675Z" stroke="#2F6BF2" stroke-width="1.5" stroke-linecap="round" stroke-linejoin="round"/>
<path d="M3.5415 15.5833C4.71025 15.5833 5.6665 14.627 5.6665 13.4583V11.3333H3.5415C2.37275 11.3333 1.4165 12.2895 1.4165 13.4583C1.4165 14.627 2.37275 15.5833 3.5415 15.5833Z" stroke="#2F6BF2" stroke-width="1.5" stroke-linecap="round" stroke-linejoin="round"/>
<path d="M3.5415 5.66675H5.6665V3.54175C5.6665 2.373 4.71025 1.41675 3.5415 1.41675C2.37275 1.41675 1.4165 2.373 1.4165 3.54175C1.4165 4.7105 2.37275 5.66675 3.5415 5.66675Z" stroke="#2F6BF2" stroke-width="1.5" stroke-linecap="round" stroke-linejoin="round"/>
<path d="M11.3335 5.66675H13.4585C14.6272 5.66675 15.5835 4.7105 15.5835 3.54175C15.5835 2.373 14.6272 1.41675 13.4585 1.41675C12.2897 1.41675 11.3335 2.373 11.3335 3.54175V5.66675Z" stroke="#2F6BF2" stroke-width="1.5" stroke-linecap="round" stroke-linejoin="round"/>
<path d="M13.4585 15.5833C14.6272 15.5833 15.5835 14.627 15.5835 13.4583C15.5835 12.2895 14.6272 11.3333 13.4585 11.3333H11.3335V13.4583C11.3335 14.627 12.2897 15.5833 13.4585 15.5833Z" stroke="#2F6BF2" stroke-width="1.5" stroke-linecap="round" stroke-linejoin="round"/>
</svg>
