<svg width="26" height="26" viewBox="0 0 26 26" fill="none" xmlns="http://www.w3.org/2000/svg">
<path d="M20.9302 10.8333H5.08108C3.47774 10.8333 2.17773 9.5225 2.17773 7.93V5.08083C2.17773 3.4775 3.48858 2.17749 5.08108 2.17749H20.9302C22.5336 2.17749 23.8336 3.48833 23.8336 5.08083V7.93C23.8336 9.5225 22.5227 10.8333 20.9302 10.8333Z" stroke="white" stroke-width="1.5" stroke-linecap="round" stroke-linejoin="round"/>
<path d="M20.9302 23.8333H5.08108C3.47774 23.8333 2.17773 22.5225 2.17773 20.93V18.0808C2.17773 16.4775 3.48858 15.1775 5.08108 15.1775H20.9302C22.5336 15.1775 23.8336 16.4883 23.8336 18.0808V20.93C23.8336 22.5225 22.5227 23.8333 20.9302 23.8333Z" stroke="white" stroke-width="1.5" stroke-linecap="round" stroke-linejoin="round"/>
<path d="M6.5 5.41675V7.58342" stroke="white" stroke-width="1.5" stroke-linecap="round" stroke-linejoin="round"/>
<path d="M10.8335 5.41675V7.58342" stroke="white" stroke-width="1.5" stroke-linecap="round" stroke-linejoin="round"/>
<path d="M6.5 18.4167V20.5834" stroke="white" stroke-width="1.5" stroke-linecap="round" stroke-linejoin="round"/>
<path d="M10.8335 18.4167V20.5834" stroke="white" stroke-width="1.5" stroke-linecap="round" stroke-linejoin="round"/>
<path d="M15.1665 6.5H19.4998" stroke="white" stroke-width="1.5" stroke-linecap="round" stroke-linejoin="round"/>
<path d="M15.1665 19.5H19.4998" stroke="white" stroke-width="1.5" stroke-linecap="round" stroke-linejoin="round"/>
</svg>
