<svg width="17" height="17" viewBox="0 0 17 17" fill="none" xmlns="http://www.w3.org/2000/svg">
<path d="M15.5833 5.858V2.99633C15.5833 1.87008 15.13 1.41675 14.0038 1.41675H11.1421C10.0158 1.41675 9.5625 1.87008 9.5625 2.99633V5.858C9.5625 6.98425 10.0158 7.43758 11.1421 7.43758H14.0038C15.13 7.43758 15.5833 6.98425 15.5833 5.858Z" stroke="#2F6BF2" stroke-width="1.5" stroke-linecap="round" stroke-linejoin="round"/>
<path d="M7.43734 6.03508V2.81925C7.43734 1.8205 6.984 1.41675 5.85775 1.41675H2.99609C1.86984 1.41675 1.4165 1.8205 1.4165 2.81925V6.028C1.4165 7.03383 1.86984 7.4305 2.99609 7.4305H5.85775C6.984 7.43758 7.43734 7.03383 7.43734 6.03508Z" stroke="#2F6BF2" stroke-width="1.5" stroke-linecap="round" stroke-linejoin="round"/>
<path d="M7.43734 14.0038V11.1421C7.43734 10.0158 6.984 9.5625 5.85775 9.5625H2.99609C1.86984 9.5625 1.4165 10.0158 1.4165 11.1421V14.0038C1.4165 15.13 1.86984 15.5833 2.99609 15.5833H5.85775C6.984 15.5833 7.43734 15.13 7.43734 14.0038Z" stroke="#2F6BF2" stroke-width="1.5" stroke-linecap="round" stroke-linejoin="round"/>
<path d="M10.271 12.3958H14.521" stroke="#2F6BF2" stroke-width="1.5" stroke-linecap="round"/>
<path d="M12.396 14.5208V10.2708" stroke="#2F6BF2" stroke-width="1.5" stroke-linecap="round"/>
</svg>
