<svg width="157" height="94" viewBox="0 0 157 94" fill="none" xmlns="http://www.w3.org/2000/svg">
<path d="M71.5988 0.256017C53.9976 1.57457 36.887 8.22867 22.6896 19.2677C16.4954 24.082 8.86008 32.208 4.19915 38.9541C-0.82976 46.2214 -0.921752 46.6814 1.71536 50.9437C6.95891 59.407 15.1156 68.5449 22.6896 74.4017C29.3437 79.584 37.8376 84.4595 45.381 87.4033C65.6806 95.3759 88.5253 95.7132 109.04 88.3845C114.314 86.514 123.176 82.0984 127.714 79.0933C138.937 71.7033 148.412 62.0134 155.281 50.9437C157.918 46.6814 157.826 46.2214 152.797 38.9541C148.136 32.208 140.501 24.082 134.307 19.2677C125.966 12.7976 116.062 7.49274 106.341 4.365C95.3634 0.80797 83.2818 -0.633241 71.5988 0.256017ZM88.004 7.43141C112.229 10.2525 133.939 23.4687 147.646 43.707L149.761 46.8347L147.646 49.9625C136.76 66.0304 120.109 78.2041 101.803 83.4783C93.1249 85.9621 86.0109 86.8513 76.229 86.606C65.0673 86.33 55.8988 84.3982 45.9943 80.1972C31.3675 73.9724 18.3353 63.24 9.35071 49.9625L7.23489 46.8347L9.35071 43.707C12.5398 38.9847 16.3115 34.5384 20.7577 30.2455C33.882 17.5505 50.5019 9.63922 68.6857 7.43141C73.224 6.87946 83.3431 6.87946 88.004 7.43141Z" fill="#0967BE"/>
<path d="M72.672 17.8265C60.8357 20.341 51.7592 29.5095 49.49 41.2539C48.9381 44.1363 48.9381 49.5025 49.49 52.4156C51.6058 63.3627 59.3945 71.8566 70.3722 75.2297C72.948 76.0269 73.5 76.0883 78.4982 76.0883C83.4658 76.0883 84.0791 76.0269 86.6242 75.2603C95.9767 72.3779 103.06 65.7545 106.219 56.9232C107.66 52.9369 108.058 50.0851 107.844 45.3935C107.537 37.6968 104.777 31.3801 99.3498 25.9832C95.5474 22.1502 91.2238 19.6664 85.6123 18.1332C83.1898 17.4586 75.3398 17.2746 72.672 17.8265ZM84.7844 25.0939C92.389 27.4551 97.9392 33.0052 100.3 40.7019C101.343 44.0136 101.343 49.6865 100.3 52.9676C97.8779 60.7256 92.3584 66.2451 84.631 68.6369C81.3193 69.6795 75.6771 69.6795 72.3654 68.6369C64.6381 66.2451 59.1185 60.7256 56.6961 52.9676C55.6535 49.6865 55.6535 44.0136 56.6961 40.7019C59.3332 32.1467 66.1713 26.0138 74.7572 24.45C77.149 23.99 82.3619 24.3273 84.7844 25.0939Z" fill="#0967BE"/>
</svg>
