<svg width="26" height="19" viewBox="0 0 26 19" fill="none" xmlns="http://www.w3.org/2000/svg">
<path d="M4.64648 0.0627771C3.35664 0.222954 2.50859 0.424466 2.32578 0.615645C2.19375 0.744819 2.18359 0.791322 2.18359 1.14784V1.54054H1.37617C0.431641 1.54054 0.299609 1.5612 0.126953 1.73688L0 1.86606V10.2779V18.6898L0.116797 18.8241C0.314844 19.0618 0.553516 19.0515 1.11719 18.7828C2.02617 18.3487 3.43789 17.8992 4.62109 17.6667C7.05859 17.1862 9.76016 17.2223 12.1723 17.77C12.543 17.8527 12.9137 17.9199 13 17.9199C13.0863 17.9199 13.457 17.8527 13.8277 17.77C14.7824 17.553 15.7727 17.4135 16.8797 17.3463C19.566 17.1707 22.6687 17.7235 24.827 18.7518C25.4566 19.0515 25.6395 19.0721 25.8527 18.8551L26 18.7053V10.2831V1.86606L25.873 1.73688C25.7004 1.5612 25.5684 1.54054 24.6238 1.54054H23.8164V1.21502C23.8164 0.780988 23.7047 0.553641 23.4406 0.465802C23.0598 0.341794 21.973 0.140282 21.2367 0.0627771C20.2566 -0.0457296 18.718 -0.00956073 17.8395 0.140282C15.9605 0.465802 14.5488 1.11168 13.3352 2.20708L12.9898 2.52226L12.6293 2.18124C11.5223 1.13751 9.90234 0.403798 8.07422 0.119614C7.34297 0.000773247 5.38789 -0.0250617 4.64648 0.0627771ZM7.08398 1.12718C8.88164 1.28735 10.2934 1.78338 11.4512 2.66694C11.6746 2.83745 11.9895 3.11647 12.1469 3.28181L12.4363 3.5815L12.4516 9.92656C12.4617 13.4143 12.4566 16.2613 12.4414 16.2561C12.4262 16.2458 12.1621 16.1114 11.8574 15.9513C10.6691 15.3261 9.48594 14.9902 7.79492 14.7887C6.71836 14.6595 4.33164 14.6905 3.39219 14.8455L3.25 14.8662V8.13361V1.40103L3.95078 1.28735C5.16953 1.08584 6.07344 1.03934 7.08398 1.12718ZM21.5008 1.20468C21.8156 1.24602 22.2168 1.31319 22.3945 1.34936L22.7246 1.41653L22.7398 8.14394L22.75 14.8765L22.5875 14.8507C21.5719 14.6854 19.2512 14.6543 18.1391 14.7887C16.4785 14.9954 15.3461 15.3209 14.1426 15.9513C13.8379 16.1114 13.5687 16.2458 13.5484 16.2561C13.5281 16.2664 13.5078 13.4349 13.5078 9.96272V3.65383L13.6348 3.48332C13.8023 3.26114 14.4625 2.69277 14.8789 2.41892C15.9098 1.74205 17.2961 1.28735 18.8145 1.12718C19.3984 1.07034 20.7746 1.10651 21.5008 1.20468ZM2.18359 9.0895C2.18359 14.8559 2.19375 15.5741 2.26484 15.7239C2.40195 16.0184 2.51367 16.0339 3.59023 15.9099C5.88555 15.6516 7.90664 15.7497 9.39961 16.1889L9.82617 16.3181L9.44531 16.2819C8.81055 16.2303 6.92148 16.2509 6.27148 16.3181C4.65156 16.4835 2.91484 16.8865 1.52852 17.429C1.26953 17.5272 1.04609 17.6099 1.03594 17.6099C1.02578 17.6099 1.01562 14.2358 1.01562 10.1177V2.6256H1.59961H2.18359V9.0895ZM24.9844 10.1177C24.9844 14.2358 24.9742 17.6099 24.9641 17.6099C24.9539 17.6099 24.7 17.5169 24.4004 17.4032C22.9531 16.8555 21.3484 16.4835 19.7285 16.313C19.0836 16.2458 17.1285 16.2251 16.5293 16.2819L16.1738 16.313L16.4023 16.2354C16.7223 16.1269 17.7074 15.9254 18.3066 15.8479C19.1598 15.7342 21.2215 15.7601 22.3996 15.8996C23.334 16.0133 23.4051 16.0133 23.5574 15.9358C23.6488 15.8841 23.7402 15.7911 23.7656 15.7187C23.7961 15.6361 23.8164 13.1094 23.8164 9.105V2.6256H24.4004H24.9844V10.1177Z" fill="#C9CCCE"/>
</svg>
