<svg width="17" height="17" viewBox="0 0 17 17" fill="none" xmlns="http://www.w3.org/2000/svg">
<path d="M4.95817 4.25H12.0415C12.4807 4.25 12.8703 4.26417 13.2173 4.31375C15.0803 4.51917 15.5832 5.3975 15.5832 7.79167V9.20833C15.5832 11.6025 15.0803 12.4808 13.2173 12.6862C12.8703 12.7358 12.4807 12.75 12.0415 12.75H4.95817C4.519 12.75 4.12942 12.7358 3.78234 12.6862C1.91942 12.4808 1.4165 11.6025 1.4165 9.20833V7.79167C1.4165 5.3975 1.91942 4.51917 3.78234 4.31375C4.12942 4.26417 4.519 4.25 4.95817 4.25Z" stroke="#444444" stroke-width="1.5" stroke-linecap="round" stroke-linejoin="round"/>
<path d="M12.0416 12.75C12.4808 12.75 12.8704 12.7359 13.2175 12.6863C13.2246 12.7854 13.2246 12.8775 13.2246 12.9838V13.2246C13.2246 15.1088 12.75 15.5834 10.8587 15.5834H6.14122C4.24997 15.5834 3.77539 15.1088 3.77539 13.2246V12.9838C3.77539 12.8775 3.77539 12.7854 3.78247 12.6863C4.12956 12.7359 4.51914 12.75 4.95831 12.75H12.0416Z" stroke="#444444" stroke-width="1.5" stroke-linecap="round" stroke-linejoin="round"/>
<path d="M6.14122 1.41675H10.8587C12.75 1.41675 13.2246 1.89133 13.2246 3.7755V4.01633C13.2246 4.12258 13.2246 4.21467 13.2175 4.31383C12.8704 4.26425 12.4808 4.25008 12.0416 4.25008H4.95831C4.51914 4.25008 4.12956 4.26425 3.78247 4.31383C3.77539 4.21467 3.77539 4.12258 3.77539 4.01633V3.7755C3.77539 1.89133 4.24997 1.41675 6.14122 1.41675Z" stroke="#444444" stroke-width="1.5" stroke-linecap="round" stroke-linejoin="round"/>
</svg>
