<svg width="24" height="24" viewBox="0 0 24 24" fill="none" xmlns="http://www.w3.org/2000/svg">
<path d="M10.6234 0.0311174C6.18555 0.566473 2.46472 3.44988 0.801131 7.64349C-0.0142638 9.69569 -0.220456 12.2175 0.243476 14.4716C1.00732 18.1909 3.58941 21.4125 7.05249 22.9763C8.01785 23.4083 8.92697 23.6854 10.061 23.8873C10.5999 23.9859 10.8155 24 11.9824 24C13.0321 24 13.3976 23.9812 13.81 23.9155C15.8438 23.5774 17.6479 22.8166 19.2553 21.6144C19.9395 21.0978 21.0689 19.9614 21.6031 19.2475C22.9293 17.463 23.7025 15.5048 23.9555 13.2788C24.0446 12.518 23.993 10.7617 23.8618 10.0291C23.3932 7.38521 22.2357 5.17804 20.3659 3.35595C18.5805 1.62309 16.4577 0.547688 13.9506 0.110951C13.5054 0.0358135 13.1398 0.012333 12.1932 0.0029408C11.5372 -0.00645139 10.8296 0.0076369 10.6234 0.0311174ZM11.6778 3.64242V6.60096H11.2888C10.3563 6.60096 8.60362 6.36146 7.5258 6.09378C6.91659 5.93881 6.93065 5.97168 7.22588 5.2297C8.05534 3.15402 9.20814 1.68884 10.5484 1.0173C10.8249 0.876415 11.406 0.693267 11.5981 0.688571C11.6731 0.683875 11.6778 0.852934 11.6778 3.64242ZM12.8212 0.777797C14.3582 1.17227 15.8485 2.84878 16.7904 5.23909C17.0809 5.98107 17.095 5.9435 16.4811 6.09378C15.3751 6.36615 13.6459 6.60096 12.7228 6.60096H12.3338V3.64242C12.3338 1.20045 12.3432 0.683875 12.3947 0.683875C12.4322 0.683875 12.6197 0.72614 12.8212 0.777797ZM8.88479 1.35072C7.93818 2.25237 7.0853 3.62833 6.48078 5.23909C6.33082 5.62887 6.27459 5.72748 6.21367 5.71809C5.87158 5.65235 4.24547 4.91036 3.74874 4.60042L3.56598 4.48302L3.77685 4.23882C4.04397 3.92418 4.80781 3.24794 5.33735 2.85817C6.05902 2.32281 6.97752 1.81094 7.85852 1.45873C8.15843 1.33663 9.1191 1.02199 9.20814 1.0126C9.22688 1.0126 9.08161 1.16288 8.88479 1.35072ZM15.2861 1.15348C16.3827 1.47282 17.7838 2.18193 18.7539 2.91452C19.2412 3.28082 19.9863 3.94766 20.2347 4.23882L20.4456 4.48302L20.2581 4.60512C19.7567 4.91976 18.1353 5.65235 17.8026 5.71809C17.7323 5.72748 17.6807 5.63826 17.5355 5.24848C16.9169 3.60954 16.0828 2.26176 15.1221 1.34602C14.9206 1.15818 14.7987 1.0126 14.8456 1.02669C14.8972 1.04078 15.094 1.09713 15.2861 1.15348ZM3.6269 5.3471C4.27828 5.7134 4.93434 6.01864 5.58572 6.25345L6.07777 6.4319L5.90438 7.13631C5.59041 8.40426 5.35141 10.1559 5.35141 11.2125V11.6727H3.03175H0.712094V11.4239C0.712094 11.0388 0.833935 10.1512 0.969834 9.53132C1.21352 8.43244 1.64464 7.32885 2.19761 6.37085C2.45067 5.93411 3.04112 5.05125 3.0833 5.05125C3.09267 5.05125 3.33635 5.18274 3.6269 5.3471ZM21.2376 5.4692C22.0951 6.68079 22.7231 8.09432 23.0371 9.51254C23.1729 10.1324 23.2995 11.0435 23.2995 11.4192V11.6727H20.9798H18.6602V11.2125C18.6602 10.1559 18.4212 8.40426 18.1072 7.14101L17.9338 6.43659L18.5711 6.19709C19.2131 5.9529 20.2253 5.4692 20.6518 5.20152C20.783 5.12169 20.9002 5.05125 20.9142 5.05125C20.933 5.05125 21.0782 5.23909 21.2376 5.4692ZM7.16965 6.73714C8.40211 7.05178 10.2344 7.30537 11.2935 7.30537H11.6778V9.48906V11.6727H8.86605H6.05434V11.236C6.05434 10.0244 6.39174 7.77968 6.73383 6.70427C6.75726 6.63383 6.74789 6.62913 7.16965 6.73714ZM17.334 6.9062C17.6807 8.19763 17.9572 10.1277 17.9572 11.236V11.6727H15.1455H12.3338V9.48906V7.30537H12.7462C13.7069 7.30537 15.4876 7.06587 16.5982 6.7935C16.8935 6.71836 17.1653 6.66201 17.2028 6.6667C17.2449 6.6667 17.2965 6.77002 17.334 6.9062ZM5.35141 12.7904C5.35141 13.847 5.59041 15.5987 5.90438 16.8666L6.07777 17.571L5.58572 17.7495C4.93434 17.989 4.27828 18.2895 3.62221 18.6605L3.0833 18.9611L2.99895 18.8484C2.07577 17.6556 1.31661 16.0213 0.969834 14.4716C0.833935 13.8517 0.712094 12.9642 0.712094 12.5791V12.3302H3.03175H5.35141V12.7904ZM11.6778 14.5139V16.6976H11.2654C10.3 16.6976 8.58019 16.9277 7.37115 17.2188C7.04781 17.294 6.77132 17.3409 6.75258 17.3221C6.7104 17.2752 6.5089 16.4393 6.38706 15.8053C6.18555 14.7769 6.05434 13.57 6.05434 12.7622V12.3302H8.86605H11.6778V14.5139ZM17.9572 12.7669C17.9572 13.2788 17.8495 14.481 17.7464 15.1291C17.6105 15.9697 17.3246 17.2423 17.2543 17.3221C17.2402 17.3409 16.9638 17.294 16.6404 17.2188C15.4314 16.9277 13.7116 16.6976 12.7462 16.6976H12.3338V14.5139V12.3302H15.1455H17.9572V12.7669ZM23.2995 12.5838C23.2995 12.9595 23.1729 13.8705 23.0371 14.4904C22.6996 16.0166 21.9311 17.6603 21.0126 18.8484L20.9283 18.9611L20.5065 18.7169C19.902 18.3694 19.2834 18.0782 18.5664 17.8058L17.9338 17.5663L18.1072 16.8713C18.4212 15.5987 18.6602 13.847 18.6602 12.7904V12.3302H20.9798H23.2995V12.5838ZM11.6778 20.3605C11.6778 22.8025 11.6684 23.3191 11.6168 23.3191C11.5793 23.3191 11.3919 23.2768 11.1904 23.2251C9.64864 22.8307 8.19124 21.1917 7.22588 18.7732C7.1181 18.5056 7.02906 18.2332 7.02438 18.1674C7.015 18.0219 7.12279 17.9843 8.11626 17.7824C9.28312 17.5429 10.2813 17.4208 11.1998 17.4067L11.6778 17.402V20.3605ZM13.6694 17.4489C14.452 17.5194 15.3564 17.6556 16.139 17.8293C16.8888 17.9937 17.02 18.036 17.02 18.1111C17.02 18.2238 16.5326 19.3978 16.2843 19.8768C15.7313 20.9616 14.944 21.9666 14.2177 22.5207C13.7069 22.9105 12.7837 23.3144 12.3947 23.3191C12.3479 23.3191 12.3338 22.6945 12.3338 20.3605V17.402H12.7228C12.9336 17.402 13.3601 17.4255 13.6694 17.4489ZM6.47141 18.7404C7.04312 20.2995 7.93818 21.7506 8.88479 22.6522C9.29249 23.0373 9.30186 23.0326 8.49115 22.7696C6.85099 22.239 5.26237 21.2575 4.01116 19.9989L3.5566 19.5481L3.66907 19.4589C3.98773 19.1959 6.22304 18.2003 6.29333 18.2848C6.30739 18.3036 6.38706 18.5056 6.47141 18.7404ZM18.5852 18.576C19.0069 18.7404 19.9723 19.2194 20.2581 19.3978L20.4456 19.5199L20.2347 19.7641C19.9863 20.0553 19.2412 20.7221 18.7539 21.0884C17.7838 21.821 16.3827 22.5301 15.2861 22.8495C15.094 22.9058 14.8972 22.9622 14.8456 22.9763C14.7987 22.9903 14.9112 22.8542 15.0987 22.6804C16.1203 21.7177 17.0809 20.1022 17.6901 18.3318C17.7182 18.2567 17.7323 18.2567 17.9666 18.3365C18.1025 18.3835 18.3837 18.4915 18.5852 18.576Z" fill="#C9CCCE"/>
</svg>
