<svg width="153" height="31" viewBox="0 0 153 31" fill="none" xmlns="http://www.w3.org/2000/svg">
<path d="M7.722 9.24V7.818H13.644V15H12.384L12.168 13.398C10.98 14.622 9.306 15.288 7.326 15.288C3.15 15.288 0.468 12.318 0.468 7.71C0.468 5.37 1.17 3.408 2.484 2.058C3.708 0.815999 5.418 0.131999 7.326 0.131999C10.26 0.131999 12.618 1.59 13.644 4.83H12.096C11.25 2.526 9.234 1.608 7.326 1.608C4.68 1.608 1.944 3.318 1.944 7.71C1.944 12.264 4.878 13.812 7.326 13.812C9.288 13.812 12.168 13.002 12.168 9.24H7.722ZM36.4473 10.824H30.0213L28.5273 15H26.9793L32.4333 0.438H34.0713L39.5253 15H37.9413L36.4473 10.824ZM33.2433 1.806L30.5433 9.402H35.9433L33.2433 1.806ZM54.5773 8.502L61.9573 0.438H63.9553L58.5193 6.378L64.6213 15H62.8393L57.5113 7.476L54.5773 10.68V15H53.1193V0.438H54.5773V8.502ZM84.7157 15L79.6757 2.13V15H78.1997V0.438H80.5577L85.3997 12.912L90.2057 0.438H92.5817V15H91.0877L91.1057 2.13L86.0657 15H84.7157ZM115.661 10.824H109.235L107.741 15H106.193L111.647 0.438H113.285L118.739 15H117.155L115.661 10.824ZM112.457 1.806L109.757 9.402H115.157L112.457 1.806ZM142.665 15L133.809 2.13V15H132.333V0.438H134.277L143.115 13.308V0.438H144.591V15H142.665Z" fill="black"/>
<path d="M4.994 24.975C5.74933 25.1657 6.127 25.6387 6.127 26.394C6.127 26.9073 5.93267 27.3033 5.544 27.582C5.16267 27.8607 4.59067 28 3.828 28H1.023V22.17H3.729C4.41833 22.17 4.95733 22.302 5.346 22.566C5.73467 22.8227 5.929 23.1893 5.929 23.666C5.929 23.974 5.84467 24.2417 5.676 24.469C5.51467 24.689 5.28733 24.8577 4.994 24.975ZM2.057 24.678H3.641C4.04433 24.678 4.34867 24.6047 4.554 24.458C4.76667 24.3113 4.873 24.0987 4.873 23.82C4.873 23.2627 4.46233 22.984 3.641 22.984H2.057V24.678ZM3.751 27.186C4.191 27.186 4.521 27.1163 4.741 26.977C4.961 26.8377 5.071 26.6213 5.071 26.328C5.071 26.0273 4.96833 25.8037 4.763 25.657C4.565 25.5103 4.24967 25.437 3.817 25.437H2.057V27.186H3.751ZM13.0488 25.118C13.0488 25.1987 13.0415 25.305 13.0268 25.437H8.29684C8.36284 25.9503 8.5865 26.3647 8.96784 26.68C9.3565 26.988 9.83684 27.142 10.4088 27.142C11.1055 27.142 11.6665 26.9073 12.0918 26.438L12.6748 27.12C12.4108 27.428 12.0808 27.6627 11.6848 27.824C11.2962 27.9853 10.8598 28.066 10.3758 28.066C9.75984 28.066 9.2135 27.9413 8.73684 27.692C8.26017 27.4353 7.88984 27.0797 7.62584 26.625C7.36917 26.1703 7.24084 25.657 7.24084 25.085C7.24084 24.5203 7.3655 24.0107 7.61484 23.556C7.8715 23.1013 8.21984 22.7493 8.65984 22.5C9.10717 22.2433 9.6095 22.115 10.1668 22.115C10.7242 22.115 11.2192 22.2433 11.6518 22.5C12.0918 22.7493 12.4328 23.1013 12.6748 23.556C12.9242 24.0107 13.0488 24.5313 13.0488 25.118ZM10.1668 23.006C9.66084 23.006 9.2355 23.16 8.89084 23.468C8.5535 23.776 8.3555 24.1793 8.29684 24.678H12.0368C11.9782 24.1867 11.7765 23.787 11.4318 23.479C11.0945 23.1637 10.6728 23.006 10.1668 23.006ZM17.6571 22.368C18.1997 22.368 18.6837 22.489 19.1091 22.731C19.5344 22.973 19.8644 23.3103 20.0991 23.743C20.3411 24.1683 20.4621 24.656 20.4621 25.206C20.4621 25.7707 20.3337 26.273 20.0771 26.713C19.8277 27.1457 19.4721 27.483 19.0101 27.725C18.5554 27.967 18.0347 28.088 17.4481 28.088C16.4581 28.088 15.6917 27.7507 15.1491 27.076C14.6137 26.394 14.3461 25.437 14.3461 24.205C14.3461 23.0097 14.5917 22.0747 15.0831 21.4C15.5744 20.718 16.3261 20.267 17.3381 20.047L20.0001 19.453L20.1541 20.421L17.7011 20.949C16.9384 21.1177 16.3701 21.4037 15.9961 21.807C15.6221 22.2103 15.4094 22.7897 15.3581 23.545C15.6074 23.171 15.9301 22.8813 16.3261 22.676C16.7221 22.4707 17.1657 22.368 17.6571 22.368ZM17.4701 27.208C17.8441 27.208 18.1741 27.1237 18.4601 26.955C18.7534 26.7863 18.9807 26.5553 19.1421 26.262C19.3034 25.9613 19.3841 25.6203 19.3841 25.239C19.3841 24.6597 19.2081 24.194 18.8561 23.842C18.5041 23.49 18.0421 23.314 17.4701 23.314C16.8981 23.314 16.4324 23.49 16.0731 23.842C15.7211 24.194 15.5451 24.6597 15.5451 25.239C15.5451 25.6203 15.6257 25.9613 15.7871 26.262C15.9557 26.5553 16.1867 26.7863 16.4801 26.955C16.7734 27.1237 17.1034 27.208 17.4701 27.208ZM27.4654 28.066C26.8714 28.066 26.3397 27.9377 25.8704 27.681C25.4084 27.4243 25.0454 27.0723 24.7814 26.625C24.5174 26.1703 24.3854 25.657 24.3854 25.085C24.3854 24.513 24.5174 24.0033 24.7814 23.556C25.0454 23.1013 25.4084 22.7493 25.8704 22.5C26.3397 22.2433 26.8714 22.115 27.4654 22.115C27.9934 22.115 28.4627 22.2213 28.8734 22.434C29.2914 22.6467 29.614 22.9547 29.8414 23.358L29.0384 23.875C28.855 23.5963 28.6277 23.3873 28.3564 23.248C28.085 23.1087 27.7844 23.039 27.4544 23.039C27.073 23.039 26.7284 23.1233 26.4204 23.292C26.1197 23.4607 25.8814 23.7027 25.7054 24.018C25.5367 24.326 25.4524 24.6817 25.4524 25.085C25.4524 25.4957 25.5367 25.8587 25.7054 26.174C25.8814 26.482 26.1197 26.7203 26.4204 26.889C26.7284 27.0577 27.073 27.142 27.4544 27.142C27.7844 27.142 28.085 27.0723 28.3564 26.933C28.6277 26.7937 28.855 26.5847 29.0384 26.306L29.8414 26.812C29.614 27.2153 29.2914 27.527 28.8734 27.747C28.4627 27.9597 27.9934 28.066 27.4654 28.066ZM35.4784 23.094H33.3444V28H32.2884V23.094H30.1544V22.17H35.4784V23.094ZM41.7934 22.17L38.9664 28.583C38.717 29.177 38.4237 29.595 38.0864 29.837C37.7564 30.079 37.3567 30.2 36.8874 30.2C36.6014 30.2 36.3227 30.1523 36.0514 30.057C35.7874 29.969 35.5674 29.837 35.3914 29.661L35.8424 28.869C36.143 29.155 36.4914 29.298 36.8874 29.298C37.144 29.298 37.3567 29.2283 37.5254 29.089C37.7014 28.957 37.859 28.726 37.9984 28.396L38.1854 27.989L35.6114 22.17H36.7114L38.7464 26.834L40.7594 22.17H41.7934ZM48.492 27.076V29.353H47.502V28H42.629V29.353H41.628V27.076H41.936C42.31 27.054 42.5667 26.79 42.706 26.284C42.8454 25.778 42.9407 25.063 42.992 24.139L43.08 22.17H47.601V27.076H48.492ZM43.96 24.216C43.9307 24.9493 43.8684 25.558 43.773 26.042C43.685 26.5187 43.52 26.8633 43.278 27.076H46.545V23.094H44.015L43.96 24.216ZM49.8677 22.17H50.9237V26.416L54.4987 22.17H55.4557V28H54.3997V23.754L50.8357 28H49.8677V22.17ZM62.1804 22.17V28H61.2344V26.152H59.5404H59.4194L58.1434 28H57.0104L58.4294 26.009C57.9894 25.877 57.6521 25.6607 57.4174 25.36C57.1828 25.052 57.0654 24.6707 57.0654 24.216C57.0654 23.5487 57.2928 23.0427 57.7474 22.698C58.2021 22.346 58.8291 22.17 59.6284 22.17H62.1804ZM58.1434 24.249C58.1434 24.6377 58.2644 24.9273 58.5064 25.118C58.7558 25.3013 59.1261 25.393 59.6174 25.393H61.2344V23.094H59.6614C58.6494 23.094 58.1434 23.479 58.1434 24.249ZM72.5959 22.17V28H71.5399V23.094H68.2509V28H67.1949V22.17H72.5959ZM77.1362 28.066C76.5569 28.066 76.0362 27.9377 75.5742 27.681C75.1122 27.4243 74.7492 27.0723 74.4852 26.625C74.2285 26.1703 74.1002 25.657 74.1002 25.085C74.1002 24.513 74.2285 24.0033 74.4852 23.556C74.7492 23.1013 75.1122 22.7493 75.5742 22.5C76.0362 22.2433 76.5569 22.115 77.1362 22.115C77.7155 22.115 78.2325 22.2433 78.6872 22.5C79.1492 22.7493 79.5085 23.1013 79.7652 23.556C80.0292 24.0033 80.1612 24.513 80.1612 25.085C80.1612 25.657 80.0292 26.1703 79.7652 26.625C79.5085 27.0723 79.1492 27.4243 78.6872 27.681C78.2325 27.9377 77.7155 28.066 77.1362 28.066ZM77.1362 27.142C77.5102 27.142 77.8439 27.0577 78.1372 26.889C78.4379 26.713 78.6725 26.471 78.8412 26.163C79.0099 25.8477 79.0942 25.4883 79.0942 25.085C79.0942 24.6817 79.0099 24.326 78.8412 24.018C78.6725 23.7027 78.4379 23.4607 78.1372 23.292C77.8439 23.1233 77.5102 23.039 77.1362 23.039C76.7622 23.039 76.4249 23.1233 76.1242 23.292C75.8309 23.4607 75.5962 23.7027 75.4202 24.018C75.2515 24.326 75.1672 24.6817 75.1672 25.085C75.1672 25.4883 75.2515 25.8477 75.4202 26.163C75.5962 26.471 75.8309 26.713 76.1242 26.889C76.4249 27.0577 76.7622 27.142 77.1362 27.142ZM86.6481 22.17V28H85.5921V23.094H83.0841L83.0181 24.392C82.9815 25.1767 82.9118 25.833 82.8091 26.361C82.7065 26.8817 82.5378 27.2997 82.3031 27.615C82.0685 27.9303 81.7421 28.088 81.3241 28.088C81.1335 28.088 80.9171 28.055 80.6751 27.989L80.7411 27.098C80.8365 27.12 80.9245 27.131 81.0051 27.131C81.2985 27.131 81.5185 27.0027 81.6651 26.746C81.8118 26.4893 81.9071 26.185 81.9511 25.833C81.9951 25.481 82.0355 24.9787 82.0721 24.326L82.1711 22.17H86.6481ZM88.69 22.17H89.746V24.645H93.068V22.17H94.124V28H93.068V25.558H89.746V28H88.69V22.17ZM98.6743 28.066C98.095 28.066 97.5743 27.9377 97.1123 27.681C96.6503 27.4243 96.2873 27.0723 96.0233 26.625C95.7666 26.1703 95.6383 25.657 95.6383 25.085C95.6383 24.513 95.7666 24.0033 96.0233 23.556C96.2873 23.1013 96.6503 22.7493 97.1123 22.5C97.5743 22.2433 98.095 22.115 98.6743 22.115C99.2536 22.115 99.7706 22.2433 100.225 22.5C100.687 22.7493 101.047 23.1013 101.303 23.556C101.567 24.0033 101.699 24.513 101.699 25.085C101.699 25.657 101.567 26.1703 101.303 26.625C101.047 27.0723 100.687 27.4243 100.225 27.681C99.7706 27.9377 99.2536 28.066 98.6743 28.066ZM98.6743 27.142C99.0483 27.142 99.382 27.0577 99.6753 26.889C99.976 26.713 100.211 26.471 100.379 26.163C100.548 25.8477 100.632 25.4883 100.632 25.085C100.632 24.6817 100.548 24.326 100.379 24.018C100.211 23.7027 99.976 23.4607 99.6753 23.292C99.382 23.1233 99.0483 23.039 98.6743 23.039C98.3003 23.039 97.963 23.1233 97.6623 23.292C97.369 23.4607 97.1343 23.7027 96.9583 24.018C96.7896 24.326 96.7053 24.6817 96.7053 25.085C96.7053 25.4883 96.7896 25.8477 96.9583 26.163C97.1343 26.471 97.369 26.713 97.6623 26.889C97.963 27.0577 98.3003 27.142 98.6743 27.142ZM107.514 23.094H104.28V28H103.224V22.17H107.514V23.094ZM110.834 28.066C110.255 28.066 109.734 27.9377 109.272 27.681C108.81 27.4243 108.447 27.0723 108.183 26.625C107.927 26.1703 107.798 25.657 107.798 25.085C107.798 24.513 107.927 24.0033 108.183 23.556C108.447 23.1013 108.81 22.7493 109.272 22.5C109.734 22.2433 110.255 22.115 110.834 22.115C111.414 22.115 111.931 22.2433 112.385 22.5C112.847 22.7493 113.207 23.1013 113.463 23.556C113.727 24.0033 113.859 24.513 113.859 25.085C113.859 25.657 113.727 26.1703 113.463 26.625C113.207 27.0723 112.847 27.4243 112.385 27.681C111.931 27.9377 111.414 28.066 110.834 28.066ZM110.834 27.142C111.208 27.142 111.542 27.0577 111.835 26.889C112.136 26.713 112.371 26.471 112.539 26.163C112.708 25.8477 112.792 25.4883 112.792 25.085C112.792 24.6817 112.708 24.326 112.539 24.018C112.371 23.7027 112.136 23.4607 111.835 23.292C111.542 23.1233 111.208 23.039 110.834 23.039C110.46 23.039 110.123 23.1233 109.822 23.292C109.529 23.4607 109.294 23.7027 109.118 24.018C108.95 24.326 108.865 24.6817 108.865 25.085C108.865 25.4883 108.95 25.8477 109.118 26.163C109.294 26.471 109.529 26.713 109.822 26.889C110.123 27.0577 110.46 27.142 110.834 27.142ZM124.564 27.076V29.397H123.563V28H118.338V22.17H119.394V27.076H122.584V22.17H123.64V27.076H124.564ZM125.933 22.17H126.989V26.416L130.564 22.17H131.521V28H130.465V23.754L126.901 28H125.933V22.17ZM135.837 25.536H134.627V28H133.571V22.17H134.627V24.634H135.859L137.751 22.17H138.884L136.673 24.975L139.038 28H137.795L135.837 25.536ZM145.15 22.17V28H144.094V23.094H141.586L141.52 24.392C141.483 25.1767 141.414 25.833 141.311 26.361C141.208 26.8817 141.04 27.2997 140.805 27.615C140.57 27.9303 140.244 28.088 139.826 28.088C139.635 28.088 139.419 28.055 139.177 27.989L139.243 27.098C139.338 27.12 139.426 27.131 139.507 27.131C139.8 27.131 140.02 27.0027 140.167 26.746C140.314 26.4893 140.409 26.185 140.453 25.833C140.497 25.481 140.537 24.9787 140.574 24.326L140.673 22.17H145.15ZM149.271 22.115C150.078 22.115 150.694 22.313 151.119 22.709C151.552 23.105 151.768 23.6953 151.768 24.48V28H150.767V27.23C150.591 27.5013 150.338 27.7103 150.008 27.857C149.685 27.9963 149.3 28.066 148.853 28.066C148.2 28.066 147.676 27.9083 147.28 27.593C146.891 27.2777 146.697 26.8633 146.697 26.35C146.697 25.8367 146.884 25.426 147.258 25.118C147.632 24.8027 148.226 24.645 149.04 24.645H150.712V24.436C150.712 23.9813 150.58 23.633 150.316 23.391C150.052 23.149 149.663 23.028 149.15 23.028C148.805 23.028 148.468 23.0867 148.138 23.204C147.808 23.314 147.529 23.4643 147.302 23.655L146.862 22.863C147.163 22.621 147.522 22.4377 147.94 22.313C148.358 22.181 148.802 22.115 149.271 22.115ZM149.029 27.252C149.432 27.252 149.781 27.164 150.074 26.988C150.367 26.8047 150.58 26.548 150.712 26.218V25.404H149.084C148.189 25.404 147.742 25.7047 147.742 26.306C147.742 26.5993 147.856 26.8303 148.083 26.999C148.31 27.1677 148.626 27.252 149.029 27.252Z" fill="black"/>
</svg>
