<svg width="17" height="17" viewBox="0 0 17 17" fill="none" xmlns="http://www.w3.org/2000/svg">
<path d="M2.47902 14.5209C3.06694 15.1088 4.01611 15.1088 4.60402 14.5209L13.8124 5.31252C14.4003 4.7246 14.4003 3.77544 13.8124 3.18752C13.2244 2.5996 12.2753 2.5996 11.6874 3.18752L2.47902 12.3959C1.89111 12.9838 1.89111 13.9329 2.47902 14.5209Z" stroke="#2F6BF2" stroke-width="1.5" stroke-linecap="round" stroke-linejoin="round"/>
<path d="M12.7573 6.36792L10.6323 4.24292" stroke="#2F6BF2" stroke-width="1.5" stroke-linecap="round" stroke-linejoin="round"/>
<path d="M6.021 1.72841L7.0835 1.41675L6.77183 2.47925L7.0835 3.54175L6.021 3.23008L4.9585 3.54175L5.27016 2.47925L4.9585 1.41675L6.021 1.72841Z" stroke="#2F6BF2" stroke-width="1.5" stroke-linecap="round" stroke-linejoin="round"/>
<path d="M3.1875 5.97841L4.25 5.66675L3.93833 6.72925L4.25 7.79175L3.1875 7.48008L2.125 7.79175L2.43667 6.72925L2.125 5.66675L3.1875 5.97841Z" stroke="#2F6BF2" stroke-width="1.5" stroke-linecap="round" stroke-linejoin="round"/>
<path d="M13.8125 9.51992L14.875 9.20825L14.5633 10.2708L14.875 11.3333L13.8125 11.0216L12.75 11.3333L13.0617 10.2708L12.75 9.20825L13.8125 9.51992Z" stroke="#2F6BF2" stroke-width="1.5" stroke-linecap="round" stroke-linejoin="round"/>
</svg>
