<svg width="24" height="21" viewBox="0 0 24 21" fill="none" xmlns="http://www.w3.org/2000/svg">
<path d="M8.91038 1.09168C7.2758 1.69599 5.91688 2.20771 5.88786 2.23695C5.84918 2.27594 5.825 3.37736 5.81049 5.71177L5.78631 9.13298L2.95723 10.1662C1.33716 10.7607 0.103975 11.2383 0.0652864 11.2871C-0.0217621 11.4089 -0.0217621 18.6022 0.0652864 18.7241C0.128155 18.8118 6.03295 21 6.20221 21C6.25057 21 7.58047 20.5273 9.14735 19.9522L12.0054 18.9093L14.8635 19.9522C16.4304 20.5273 17.7603 21 17.8087 21C17.9828 21 23.8682 18.8167 23.9311 18.7289C24.023 18.6022 24.023 11.4089 23.9311 11.2822C23.8972 11.2335 22.7269 10.7802 21.044 10.1613L18.2149 9.12811L18.1907 5.7069C18.1714 3.22628 18.152 2.27594 18.1133 2.23695C18.0311 2.1541 12.1167 -0.00486617 11.9861 7.35279e-06C11.9281 7.35279e-06 10.545 0.492233 8.91038 1.09168ZM14.2687 1.68137C15.4825 2.12486 16.4884 2.505 16.5078 2.51962C16.5416 2.55373 12.1215 4.19123 12.0006 4.18636C11.9619 4.18636 10.9173 3.81597 9.67931 3.36274C8.00121 2.7438 7.45474 2.52936 7.52728 2.50012C8.00605 2.30518 11.9426 0.877241 11.9958 0.872367C12.0345 0.872367 13.0549 1.23788 14.2687 1.68137ZM9.43751 4.16199C10.5933 4.58599 11.5557 4.94663 11.5799 4.96125C11.5992 4.98074 11.6089 6.33558 11.6041 7.97308L11.5895 10.9508L9.09899 10.0395L6.60843 9.12811L6.59392 6.12115L6.58425 3.11419L6.95663 3.25552C7.16458 3.33349 8.2817 3.738 9.43751 4.16199ZM17.3831 9.11349C17.3589 9.13298 16.266 9.54723 14.9506 10.0248C13.6352 10.5073 12.5181 10.9167 12.4697 10.9362C12.3923 10.9703 12.3875 10.8143 12.3972 7.96334L12.4117 4.95638L14.9022 4.04503L17.3928 3.13368L17.4073 6.10653C17.4121 7.73916 17.4024 9.09399 17.3831 9.11349ZM8.4558 10.7169C9.69866 11.175 10.7191 11.5502 10.7239 11.56C10.7432 11.5795 6.26991 13.2024 6.19737 13.2024C6.15868 13.2024 5.1141 12.832 3.87608 12.3787C2.19797 11.7598 1.6515 11.5454 1.72404 11.5161C2.01421 11.3992 6.12967 9.89325 6.16352 9.88838C6.18286 9.88838 7.21777 10.2636 8.4558 10.7169ZM20.0719 10.6974C21.2858 11.1409 22.2917 11.521 22.311 11.5356C22.3449 11.5697 17.9247 13.2072 17.8038 13.2024C17.7652 13.2024 16.7206 12.832 15.4922 12.3836L13.2531 11.56L15.5164 10.7266C16.7593 10.2685 17.799 9.89325 17.8232 9.89325C17.8474 9.88838 18.8581 10.2539 20.0719 10.6974ZM3.6101 13.1731L5.78631 13.9675L5.80082 16.9745C5.80565 18.6266 5.79598 19.9766 5.78147 19.9766C5.76213 19.9766 4.6305 19.5672 3.26674 19.0652L0.781019 18.1587V15.142V12.1302L1.10987 12.252C1.2888 12.3203 2.4156 12.7345 3.6101 13.1731ZM11.6137 15.142V18.1587L9.13768 19.0652C7.77392 19.5672 6.64229 19.9766 6.6181 19.9766C6.59876 19.9766 6.58909 18.6266 6.59392 16.9745L6.60843 13.9724L9.09899 13.0562C10.4676 12.5493 11.5944 12.1351 11.6041 12.1351C11.6089 12.1302 11.6137 13.485 11.6137 15.142ZM15.2166 13.1731L17.3928 13.9675L17.4073 16.9745C17.4121 18.6266 17.4024 19.9766 17.3879 19.9766C17.3686 19.9766 16.237 19.5672 14.8732 19.0652L12.3875 18.1587V15.142V12.1302L12.7163 12.252C12.8953 12.3203 14.0221 12.7345 15.2166 13.1731ZM23.2202 15.142V18.1587L20.7441 19.0652C19.3804 19.5672 18.2488 19.9766 18.2246 19.9766C18.2052 19.9766 18.1956 18.6266 18.2004 16.9745L18.2149 13.9724L20.7055 13.0562C22.0741 12.5493 23.2008 12.1351 23.2105 12.1351C23.2154 12.1302 23.2202 13.485 23.2202 15.142Z" fill="#C9CCCE"/>
</svg>
