<svg width="24" height="19" viewBox="0 0 24 19" fill="none" xmlns="http://www.w3.org/2000/svg">
<path d="M10.8083 0.123333C10.0862 0.38541 9.49539 1.02119 9.32189 1.71035L9.26562 1.94331H4.80631C0.684606 1.94331 0.342303 1.94816 0.234454 2.02582C0.0468908 2.16171 0.00468908 2.24421 0 2.48688C0 2.67615 0.0234454 2.74895 0.135983 2.87514L0.271967 3.0353L4.75473 3.04986L9.23749 3.05956L9.26562 3.19546C9.33127 3.47209 9.64544 4.01566 9.89396 4.27288C11.1459 5.56871 13.2748 5.05911 13.8422 3.32649L13.9219 3.08383L18.7891 3.05956C22.6201 3.04015 23.6799 3.02074 23.7596 2.9722C23.9846 2.84117 24.0691 2.49658 23.9378 2.23451C23.783 1.92875 24.0644 1.94331 18.7563 1.94331C14.2689 1.94331 13.9266 1.93846 13.9266 1.86081C13.9266 1.81713 13.8422 1.60358 13.739 1.38518C13.4436 0.754259 12.909 0.283491 12.2432 0.079654C11.8446 -0.0416778 11.2116 -0.0222647 10.8083 0.123333ZM12.1166 1.23959C12.3463 1.3415 12.6887 1.67153 12.8153 1.91904C12.895 2.07435 12.9184 2.19568 12.9184 2.5257C12.9184 3.01588 12.834 3.21972 12.4964 3.54004C12.2057 3.81667 12.004 3.89918 11.6055 3.90403C10.8505 3.90889 10.2691 3.30708 10.2691 2.516C10.2691 1.72006 10.9302 1.06972 11.6758 1.13767C11.8212 1.15223 12.0181 1.19591 12.1166 1.23959Z" fill="#C9CCCE"/>
<path d="M6.0821 7.04969C5.37924 7.21971 4.65295 7.93382 4.43272 8.66735L4.34837 8.93939H2.35693C0.984007 8.93939 0.337374 8.95396 0.267088 8.99283C0.0843434 9.08998 0 9.24057 0 9.48347C0 9.67292 0.0281145 9.74579 0.135887 9.87209L0.271773 10.0324L2.31007 10.047L4.34837 10.0615L4.44209 10.3384C4.57797 10.7125 4.76072 11.004 5.05592 11.3052C6.29764 12.5633 8.39686 12.0387 8.95446 10.3287L9.03881 10.081L16.3767 10.0567L23.7193 10.0324L23.8551 9.87209C24.0941 9.60005 24.0285 9.15313 23.7239 8.99283C23.649 8.95396 21.6107 8.93939 16.3392 8.93939H9.05755L8.95446 8.65763C8.68737 7.89495 8.1204 7.31687 7.40817 7.09341C7.08954 6.9914 6.41479 6.96711 6.0821 7.04969ZM7.29571 8.26415C7.78303 8.50704 8.02668 8.91996 8.03137 9.49804C8.03137 9.92067 7.88611 10.2413 7.56748 10.5328C6.90679 11.1351 5.90873 10.9214 5.49638 10.0858C5.32769 9.75065 5.31832 9.26001 5.47295 8.93453C5.66975 8.51676 6.06336 8.19614 6.48039 8.11841C6.76153 8.06498 6.96302 8.10384 7.29571 8.26415Z" fill="#C9CCCE"/>
<path d="M16.0617 14.0455C15.3257 14.2255 14.6646 14.8531 14.3927 15.6315L14.2849 15.938L7.28075 15.9477L0.271915 15.9623L0.135957 16.1228C0.0234409 16.2493 0 16.3223 0 16.512C0.00468819 16.7552 0.0468819 16.838 0.234409 16.9742C0.342238 17.052 0.829809 17.0569 7.31826 17.0569H14.2896L14.3177 17.2028C14.4537 17.9131 15.1991 18.6866 15.982 18.925C16.2727 19.0125 16.8868 19.0271 17.2056 18.9493C17.9698 18.7693 18.6684 18.0687 18.8981 17.2612L18.9543 17.0569H21.2703C23.8113 17.0569 23.7879 17.0617 23.9332 16.765C24.0223 16.585 24.0223 16.4098 23.9332 16.2298C23.7879 15.9331 23.8066 15.938 21.2937 15.938H19.0012L18.9028 15.6558C18.6262 14.8726 17.9933 14.2742 17.2291 14.065C16.929 13.9872 16.3524 13.9774 16.0617 14.0455ZM17.1916 15.2861C17.8807 15.6315 18.1527 16.5023 17.787 17.2028C17.4307 17.879 16.6196 18.1271 15.9773 17.7525C15.2038 17.3001 15.0444 16.2347 15.6492 15.5828C16.0758 15.1207 16.6431 15.0136 17.1916 15.2861Z" fill="#C9CCCE"/>
</svg>
