<svg width="24" height="21" viewBox="0 0 24 21" fill="none" xmlns="http://www.w3.org/2000/svg">
<path d="M17.1047 0.0408375C16.7953 0.0935891 16.5375 0.247048 16.3219 0.496419C15.9563 0.923228 15.9844 0.0552243 15.9844 10.6007V20.0385H15.5625H15.1406V13.8474C15.1406 9.30114 15.1266 7.5987 15.0844 7.43565C14.9625 6.91773 14.5781 6.53408 14.0719 6.42378C13.7344 6.35184 10.2656 6.35184 9.92813 6.42378C9.42188 6.53408 9.0375 6.91773 8.91563 7.43565C8.87344 7.5987 8.85938 9.30114 8.85938 13.8474V20.0385H8.4375H8.01563V16.9309V13.8186L7.87031 13.5261C7.72031 13.2143 7.56094 13.0513 7.24688 12.8787C7.05938 12.7732 7.01719 12.7732 4.97344 12.7588C2.61094 12.7444 2.61094 12.7444 2.2125 13.1088C2.07188 13.2383 1.93594 13.4254 1.87031 13.574L1.75781 13.8282L1.74375 16.9309L1.72969 20.0385H0.989063C0.248438 20.0385 0.248438 20.0385 0.121875 20.1632C0.028125 20.2591 0 20.3406 0 20.4893C0 20.7434 0.0984375 20.8873 0.31875 20.9496C0.5625 21.0168 23.4375 21.0168 23.6813 20.9496C23.9016 20.8873 24 20.7434 24 20.4893C24 20.3406 23.9719 20.2591 23.8781 20.1632C23.7516 20.0385 23.7516 20.0385 23.0109 20.0385H22.2656V10.7686C22.2656 4.59666 22.2469 1.39799 22.2141 1.19178C22.1203 0.577945 21.6938 0.141545 21.0938 0.0456331C20.7422 -0.0119141 17.4375 -0.0167097 17.1047 0.0408375ZM21.0281 1.02394C21.3516 1.16301 21.3281 0.434077 21.3281 10.735V20.0385H19.125H16.9219V10.6487C16.9219 1.8296 16.9266 1.25892 17.0063 1.15821C17.0484 1.10066 17.1375 1.02873 17.2031 1.00475C17.2734 0.975979 18.0516 0.956797 19.0922 0.956797C20.5453 0.952001 20.8922 0.966388 21.0281 1.02394ZM13.9172 7.3829C14.2219 7.4932 14.2031 7.09037 14.2031 13.8761V20.0385H12H9.79688V13.8761C9.79688 9.11891 9.81094 7.68982 9.85313 7.58911C9.96563 7.34453 10.0453 7.33494 11.9813 7.33015C13.1719 7.33015 13.8188 7.34933 13.9172 7.3829ZM6.94219 13.8474L7.07813 13.9864V17.0125V20.0385H4.875H2.66719L2.68125 17.0268C2.69531 13.809 2.69063 13.8809 2.92969 13.761C2.98594 13.7323 3.76406 13.7131 4.9125 13.7131L6.80625 13.7083L6.94219 13.8474Z" fill="#C9CCCE"/>
</svg>
