<svg width="17" height="17" viewBox="0 0 17 17" fill="none" xmlns="http://www.w3.org/2000/svg">
<path d="M12.7501 5.07175C12.7076 5.06467 12.6581 5.06467 12.6156 5.07175C11.6381 5.03633 10.8589 4.23592 10.8589 3.24425C10.8589 2.23133 11.6735 1.41675 12.6864 1.41675C13.6993 1.41675 14.5139 2.23842 14.5139 3.24425C14.5068 4.23592 13.7276 5.03633 12.7501 5.07175Z" stroke="#2F6BF2" stroke-width="1.5" stroke-linecap="round" stroke-linejoin="round"/>
<path d="M12.0208 10.2285C12.9912 10.3914 14.0608 10.2214 14.8116 9.71853C15.8103 9.05269 15.8103 7.96186 14.8116 7.29603C14.0537 6.79311 12.9699 6.62311 11.9995 6.79311" stroke="#2F6BF2" stroke-width="1.5" stroke-linecap="round" stroke-linejoin="round"/>
<path d="M4.22859 5.07175C4.27109 5.06467 4.32068 5.06467 4.36318 5.07175C5.34068 5.03633 6.11984 4.23592 6.11984 3.24425C6.11984 2.23133 5.30526 1.41675 4.29234 1.41675C3.27943 1.41675 2.46484 2.23842 2.46484 3.24425C2.47193 4.23592 3.25109 5.03633 4.22859 5.07175Z" stroke="#2F6BF2" stroke-width="1.5" stroke-linecap="round" stroke-linejoin="round"/>
<path d="M4.95835 10.2285C3.98794 10.3914 2.91835 10.2214 2.16752 9.71853C1.16877 9.05269 1.16877 7.96186 2.16752 7.29603C2.92544 6.79311 4.00918 6.62311 4.9796 6.79311" stroke="#2F6BF2" stroke-width="1.5" stroke-linecap="round" stroke-linejoin="round"/>
<path d="M8.49965 10.363C8.45715 10.3559 8.40756 10.3559 8.36506 10.363C7.38756 10.3276 6.6084 9.52718 6.6084 8.53551C6.6084 7.52259 7.42298 6.70801 8.4359 6.70801C9.44881 6.70801 10.2634 7.52968 10.2634 8.53551C10.2563 9.52718 9.47715 10.3347 8.49965 10.363Z" stroke="#2F6BF2" stroke-width="1.5" stroke-linecap="round" stroke-linejoin="round"/>
<path d="M6.43852 12.5944C5.43977 13.2602 5.43977 14.351 6.43852 15.0169C7.57185 15.7748 9.42768 15.7748 10.561 15.0169C11.5598 14.351 11.5598 13.2602 10.561 12.5944C9.43477 11.8435 7.57185 11.8435 6.43852 12.5944Z" stroke="#2F6BF2" stroke-width="1.5" stroke-linecap="round" stroke-linejoin="round"/>
</svg>
