<svg width="5" height="23" viewBox="0 0 5 23" fill="none" xmlns="http://www.w3.org/2000/svg">
<path d="M0.879638 0.0923165C0.58655 0.216166 0.268339 0.537256 0.130169 0.85376C0.033868 1.06018 0.00874611 1.18861 0.000372147 1.50512C-0.00800182 1.7207 0.125982 5.24353 0.297648 9.33055C0.590737 16.3487 0.611671 16.7753 0.699598 17.023C0.816834 17.367 1.10992 17.7064 1.43232 17.8716C1.67935 18 1.69191 18 2.5 18C3.30809 18 3.32065 18 3.56768 17.8716C3.89008 17.7064 4.18317 17.367 4.3004 17.023C4.38833 16.7753 4.40926 16.3487 4.70235 9.33055C4.87402 5.24353 5.008 1.7207 4.99963 1.50512C4.98288 1.01431 4.85308 0.693215 4.54743 0.390472C4.16223 0.00975037 4.08268 -0.00401065 2.48744 0.000576356C1.20204 0.000576356 1.08061 0.00975037 0.879638 0.0923165ZM3.87752 0.890456C4.045 0.982196 4.20829 1.21155 4.24178 1.39503C4.26272 1.53264 3.71004 15.5184 3.64723 16.3579C3.61792 16.7615 3.51744 16.9496 3.25366 17.0918C3.09036 17.1881 3.00662 17.1973 2.5 17.1973C1.99338 17.1973 1.90964 17.1881 1.74634 17.0918C1.48256 16.9496 1.38208 16.7615 1.35277 16.3579C1.28996 15.5322 0.737281 1.53264 0.758216 1.39503C0.791712 1.21155 0.917321 1.02348 1.09317 0.908804C1.2146 0.830825 1.32346 0.821651 2.49163 0.821651C3.52581 0.821651 3.78122 0.835412 3.87752 0.890456Z" fill="#C9CCCE"/>
<path d="M1.54718 18.0635C1.25129 18.1461 0.893114 18.3747 0.651734 18.6422C-0.0607279 19.4253 -0.212564 20.8697 0.313022 21.8716C0.698452 22.6012 1.29412 23 2.00268 23C3.13172 23 3.99213 21.9397 3.99991 20.5439C4.01159 18.8854 2.84752 17.7084 1.54718 18.0635ZM2.52827 19.0313C3.36532 19.5079 3.56776 20.8406 2.92538 21.6382C2.83973 21.7501 2.67621 21.9008 2.5672 21.9689C2.3959 22.0856 2.32972 22.1002 2.00268 22.1002C1.67176 22.1002 1.60947 22.0856 1.42649 21.9641C0.348061 21.254 0.511577 19.3474 1.68733 18.9292C1.92871 18.8465 2.2791 18.8854 2.52827 19.0313Z" fill="#C9CCCE"/>
</svg>
