<svg width="24" height="21" viewBox="0 0 24 21" fill="none" xmlns="http://www.w3.org/2000/svg">
<path d="M6.55319 0.0567722C5.43772 0.3116 4.37655 1.03198 3.75958 1.95818C2.45656 3.90369 2.87116 6.57938 4.68749 8.01523C5.94116 9.01004 7.66865 9.27467 9.16417 8.70131C10.4721 8.20145 11.5136 7.01553 11.8985 5.58947C12.0417 5.06512 12.0318 3.82038 11.8788 3.30092C11.4889 1.95818 10.6301 0.953569 9.38134 0.375307C8.74957 0.0812748 8.48304 0.0224684 7.62423 0.00286632C7.08624 -0.00693474 6.77036 0.00776685 6.55319 0.0567722ZM8.20664 0.894763C10.1365 1.29171 11.4395 3.16861 11.1088 5.07492C10.714 7.34386 8.42381 8.69641 6.29159 7.92703C4.8405 7.39777 3.87311 6.03052 3.87311 4.50645C3.87311 3.90369 3.98169 3.44304 4.24328 2.89908C4.60359 2.1542 5.13664 1.60534 5.84245 1.2427C6.61735 0.840857 7.39719 0.728145 8.20664 0.894763Z" fill="#C9CCCE"/>
<path d="M16.6171 3.08484C14.3041 3.69569 13.2621 6.41924 14.5751 8.42172C15.5891 9.96032 17.5843 10.4472 19.2244 9.55615C19.4627 9.42755 19.7057 9.23465 19.9767 8.96827C20.3084 8.63758 20.4159 8.49061 20.5982 8.13237C20.8879 7.55367 21 7.09898 21 6.5111C20.9953 5.49149 20.6729 4.70611 19.972 3.99882C19.5655 3.59465 19.1076 3.30989 18.5842 3.13996C18.0749 2.97921 17.1217 2.95165 16.6171 3.08484ZM18.1263 3.86562C18.8926 4.05852 19.5328 4.56374 19.8786 5.25725C20.2337 5.96914 20.2851 6.62133 20.0374 7.347C19.4861 8.97286 17.6077 9.68475 16.1545 8.8167C15.6358 8.50898 15.1686 7.94406 14.9723 7.38833C14.8275 6.98875 14.7947 6.24471 14.9022 5.84514C15.0424 5.31696 15.2433 4.97709 15.6498 4.57751C16.3601 3.8794 17.2058 3.63598 18.1263 3.86562Z" fill="#C9CCCE"/>
<path d="M6.72994 10.017C6.05975 10.1125 5.64265 10.1944 5.25835 10.3173C2.99941 11.0179 1.13415 12.8333 0.3843 15.0763C0.0468658 16.0772 0.0374927 16.1546 0.0187463 18.5841L0 20.7816L0.103105 20.8908L0.20621 21H7.4423H14.6784L14.7909 20.8863C14.8987 20.7862 14.908 20.7407 14.908 20.3403V19.9081H19.3509H23.7985L23.8969 19.8034C24 19.6988 24 19.6806 24 18.0381C24 16.2546 23.9719 15.9271 23.7422 15.1536C23.5688 14.5622 23.1283 13.7159 22.7159 13.1836C20.4804 10.3036 16.3327 10.0261 13.7411 12.583L13.3708 12.947L13.174 12.6968C12.8459 12.2827 11.9836 11.5138 11.4962 11.1999C10.6995 10.6858 9.79965 10.3173 8.86702 10.1216C8.43117 10.0352 7.08612 9.96694 6.72994 10.017ZM7.94845 10.8086C10.9057 11.0816 13.2302 13.1335 13.9332 16.1C14.0223 16.4821 14.0363 16.6869 14.0504 18.3703L14.0691 20.2265H7.43292H0.792033L0.815466 18.4158C0.834212 16.7733 0.843585 16.5686 0.937317 16.1546C1.24663 14.7805 1.88869 13.6204 2.8635 12.674C3.96954 11.5957 5.38489 10.9406 6.87522 10.8132C7.10486 10.7904 7.32513 10.7722 7.36262 10.7677C7.40012 10.7677 7.66725 10.7859 7.94845 10.8086ZM19.1822 11.7777C20.8834 12.2099 22.3128 13.5385 22.894 15.2264C23.1424 15.9544 23.1658 16.1546 23.1892 17.6878L23.2127 19.1346H19.065H14.9174L14.894 17.8698C14.8705 16.5777 14.8424 16.3183 14.6268 15.4948C14.5097 15.0444 14.2613 14.4166 14.0316 13.9843L13.8676 13.6795L13.9613 13.5521C14.1207 13.3383 14.8705 12.6604 15.147 12.4829C15.7376 12.1053 16.464 11.8141 17.1248 11.6913C17.645 11.5957 18.6151 11.6367 19.1822 11.7777Z" fill="#C9CCCE"/>
</svg>
