<svg width="24" height="24" viewBox="0 0 24 24" fill="none" xmlns="http://www.w3.org/2000/svg">
<path d="M10.2756 0.104008C10.1575 0.207944 10.148 0.250464 10.0063 1.5355L9.85981 2.85833L9.22202 3.0662C8.87241 3.17959 8.30549 3.41108 7.96061 3.58589L7.33226 3.90242L6.36849 3.12762C5.84408 2.70243 5.34802 2.31502 5.2677 2.26306C4.95589 2.06463 4.95589 2.06463 3.60471 3.41108C2.43779 4.57801 2.3622 4.66305 2.3622 4.82368C2.3622 4.97014 2.46613 5.12132 3.22204 6.07564L4.0866 7.15753L3.75589 7.81895C3.57164 8.18272 3.3496 8.72131 3.25983 9.01422C3.12755 9.42996 3.07558 9.54807 2.99999 9.56697C2.94802 9.57642 2.31023 9.65201 1.58267 9.73233C0.543305 9.84571 0.23622 9.89768 0.141732 9.96382L0.023622 10.0489L0.00944879 11.8441L0 13.6347L0.108661 13.7386C0.203149 13.8284 0.363778 13.8567 1.48818 13.9843C3.24566 14.178 3.04724 14.1166 3.137 14.4945C3.23621 14.8819 3.59054 15.7843 3.81259 16.2142C3.9307 16.4362 3.96377 16.5544 3.93542 16.5921C3.90708 16.6252 3.50078 17.1355 3.02834 17.7307C2.26299 18.6945 2.17322 18.8221 2.17322 18.9827C2.17322 19.1528 2.22991 19.2189 3.41574 20.4C4.48345 21.463 4.67715 21.6378 4.79999 21.6378C4.97479 21.6378 4.96534 21.6425 6.11809 20.7213C6.63778 20.3102 7.08659 19.9512 7.11494 19.9323C7.14329 19.9087 7.46454 20.041 7.89446 20.2583C8.29604 20.4567 8.81572 20.6835 9.04722 20.7591C9.28344 20.8347 9.49603 20.9197 9.52438 20.948C9.55273 20.9764 9.63304 21.5433 9.70391 22.2047C9.86926 23.7685 9.86926 23.7638 9.99682 23.8913L10.1055 24H11.8535C13.5968 24 13.6015 24 13.7244 23.8913C13.8472 23.7921 13.8519 23.7496 13.9984 22.4268L14.1496 21.0662L14.2677 21.0425C14.6078 20.9669 15.5244 20.6599 15.9448 20.4756C16.2047 20.3622 16.6535 20.126 16.937 19.9606C17.2204 19.7906 17.4614 19.6536 17.4755 19.6536C17.4897 19.6536 18.0944 20.2441 18.8267 20.9717C20.0503 22.1858 20.1684 22.2945 20.433 22.3937C20.6692 22.4787 20.7873 22.4929 21.118 22.4787C21.5999 22.4504 21.8928 22.3323 22.1952 22.0252C22.5165 21.7087 22.6488 21.3685 22.6535 20.8819C22.6535 20.1827 22.6629 20.1969 21.1369 18.6614L19.7999 17.315L20.0173 16.9843C20.3243 16.5118 20.8015 15.5103 20.9952 14.9386C21.085 14.6693 21.1653 14.4425 21.1747 14.4284C21.1889 14.4189 21.77 14.3481 22.4692 14.2677C23.4755 14.1544 23.7637 14.1071 23.8582 14.0362L23.9763 13.9512L23.9905 12.1559L23.9999 10.3654L23.8913 10.2615C23.7968 10.1717 23.6362 10.1433 22.5354 10.0158C21.8503 9.93547 21.2834 9.86461 21.274 9.85988C21.2645 9.85044 21.1984 9.61894 21.1228 9.34965C20.9527 8.74965 20.707 8.13548 20.4283 7.61107C20.3007 7.3654 20.2346 7.19533 20.2582 7.16225C20.2818 7.13391 20.6456 6.68037 21.0661 6.15123C21.7417 5.30084 21.8267 5.17328 21.8267 5.01738C21.8267 4.8473 21.77 4.78116 20.5842 3.60006C19.4929 2.51345 19.3228 2.36227 19.1952 2.36227C19.0346 2.36227 18.9259 2.43786 17.7685 3.36384L17.0456 3.94967L16.3653 3.60951C15.9779 3.41581 15.4157 3.17959 15.0566 3.0662C14.7165 2.95754 14.4283 2.86305 14.4236 2.86305C14.4189 2.85833 14.3527 2.27723 14.2724 1.56857C14.1921 0.859911 14.1023 0.236291 14.0787 0.189047C14.0504 0.137079 13.9889 0.0756614 13.937 0.047315C13.8803 0.0189686 13.2094 7.10562e-05 12.1228 7.10562e-05C10.4031 7.10562e-05 10.3984 7.10562e-05 10.2756 0.104008ZM13.37 0.859911C13.37 1.04889 13.6157 3.17014 13.6582 3.3166C13.7102 3.51502 13.8425 3.60951 14.1496 3.6662C14.4047 3.70872 15.3023 4.02053 15.7086 4.20478C15.8881 4.2851 16.2283 4.46462 16.4645 4.60636C17.1118 4.99376 17.0503 5.01265 18.1889 4.10085L19.1433 3.34022L19.9889 4.18589C20.4566 4.64888 20.8251 5.05517 20.8157 5.08824C20.8015 5.12132 20.4614 5.56068 20.0551 6.06147C19.6299 6.60005 19.3133 7.0347 19.2992 7.11501C19.2803 7.2095 19.3086 7.31816 19.3936 7.46462C19.9228 8.40005 20.2346 9.15595 20.433 9.98744C20.4992 10.2709 20.5795 10.493 20.6362 10.5496C20.7165 10.6252 20.9102 10.663 21.9259 10.7764C22.5873 10.852 23.1401 10.9134 23.1637 10.9134C23.1826 10.9134 23.1968 11.4662 23.1968 12.1418C23.1968 13.2803 23.1921 13.3701 23.1165 13.3701C23.0692 13.3701 22.4928 13.4315 21.8362 13.5071C20.9291 13.6111 20.622 13.663 20.5558 13.7197C20.5086 13.7622 20.4094 14.0032 20.3385 14.2488C20.1968 14.7544 19.97 15.3402 19.7432 15.789C19.559 16.1481 19.233 16.6772 19.1905 16.6772C19.1716 16.6772 18.77 16.2898 18.2929 15.8126L17.4283 14.9481L17.6173 14.5512C18.0519 13.6205 18.2078 12.9024 18.2078 11.8347C18.2031 10.1197 17.6362 8.75438 16.422 7.53076C15.5433 6.6473 14.6173 6.12761 13.4173 5.8536C12.8173 5.71187 11.7259 5.68352 11.0976 5.78273C9.82202 5.99533 8.72123 6.54808 7.79998 7.44099C7.0488 8.16855 6.55274 8.9528 6.24093 9.88823C5.21101 12.978 6.72281 16.3181 9.70863 17.5512C10.4787 17.8725 10.9275 17.9622 11.8582 17.9858C13.0346 18.0189 13.8 17.8677 14.7496 17.4142L15.0944 17.2488L15.9874 18.137L16.8755 19.0252L16.6015 19.1953C15.8598 19.6441 14.9622 20.0173 14.1826 20.2016C13.4976 20.3622 13.5165 20.3575 13.4409 20.4709C13.4031 20.537 13.3228 21.0614 13.233 21.8646C13.1527 22.578 13.0866 23.1685 13.0866 23.178C13.0866 23.1874 12.5338 23.1969 11.8582 23.1969C10.833 23.1969 10.6299 23.1874 10.6299 23.1307C10.6299 23.0929 10.5637 22.4835 10.4882 21.7701C10.3795 20.7969 10.3228 20.452 10.2614 20.3717C10.2047 20.2913 9.99682 20.1969 9.51966 20.0362C8.80155 19.7953 8.11651 19.4788 7.64407 19.1669C7.12911 18.8315 7.14801 18.8268 5.91494 19.8142L4.85668 20.6599L4.01101 19.8142C3.5433 19.3512 3.17479 18.9449 3.18424 18.9118C3.19842 18.8788 3.58109 18.3874 4.03936 17.8205C4.5307 17.2016 4.87558 16.7292 4.88975 16.6488C4.91337 16.5402 4.83778 16.3559 4.56377 15.8126C4.24251 15.1796 4.03463 14.6221 3.80314 13.7859C3.75589 13.6063 3.69448 13.4882 3.62361 13.4457C3.56219 13.4079 3.05196 13.3323 2.3622 13.2567C1.7244 13.1859 1.11496 13.1197 1.0063 13.1008L0.803147 13.0772V11.8536C0.803147 10.8284 0.812596 10.63 0.869289 10.63C0.907084 10.63 1.50236 10.5685 2.19684 10.4882C2.89133 10.4079 3.48188 10.3465 3.51967 10.3465C3.67558 10.3465 3.78424 10.167 3.94015 9.61422C4.13385 8.94335 4.39369 8.31973 4.74802 7.70084C4.90865 7.4221 5.00786 7.1906 5.00786 7.10084C5.00786 6.98745 4.84723 6.75596 4.18109 5.92446C3.72755 5.35281 3.35432 4.88037 3.35432 4.8662C3.35432 4.85203 3.737 4.4599 4.19999 3.99691C4.84251 3.35439 5.06455 3.16069 5.1118 3.19849C5.14487 3.22211 5.61731 3.60006 6.16061 4.02998C6.96848 4.67722 7.17163 4.81895 7.29447 4.81895C7.39368 4.81895 7.6299 4.71502 7.97006 4.52132C8.56533 4.18116 9.30233 3.8788 9.9354 3.71345C10.4834 3.56699 10.5023 3.56227 10.5732 3.44888C10.6157 3.38274 10.9134 1.07723 10.9134 0.822116C10.9134 0.812667 11.4661 0.803218 12.1417 0.803218C13.0913 0.803218 13.37 0.817391 13.37 0.859911ZM13.2283 6.66147C13.7196 6.77958 14.0504 6.90241 14.4803 7.11974C15.8078 7.79532 16.8377 9.06619 17.2299 10.5119C17.348 10.9465 17.3574 11.0552 17.3574 11.8583C17.3574 12.652 17.348 12.7748 17.2346 13.1859C17.1685 13.4363 17.0409 13.7906 16.9511 13.9796L16.7952 14.3197L16.3511 13.8756L15.9118 13.4268L15.9826 13.2C16.5732 11.367 15.6803 9.30713 13.9228 8.45201C13.3275 8.16383 12.7889 8.05989 12.0094 8.08824C11.4708 8.10713 11.3008 8.13548 10.9795 8.23942C10.2897 8.47091 10.0677 8.66461 10.1386 8.96225C10.1575 9.04729 10.5449 9.47248 11.263 10.1953L12.3543 11.3008L11.8819 11.7402L11.4094 12.1843L10.2992 11.0788C9.34485 10.1292 9.16533 9.96855 9.04249 9.96855C8.7543 9.96855 8.61257 10.1622 8.3858 10.8662C8.211 11.4048 8.1732 12.2268 8.29131 12.8079C8.5984 14.3386 9.78895 15.5622 11.2913 15.8929C11.9952 16.0441 12.6992 16.0252 13.3181 15.8315L13.5968 15.7465L14.0362 16.1858L14.4755 16.6252L14.2157 16.7433C13.0252 17.2677 11.6598 17.3339 10.4173 16.9276C8.54643 16.3181 7.11494 14.641 6.80313 12.6992C6.70864 12.1181 6.76533 11.0457 6.91651 10.493C7.49762 8.40949 9.25037 6.87407 11.4 6.56698C11.8441 6.50556 12.77 6.55281 13.2283 6.66147ZM13.2 9.04729C14.8252 9.60949 15.737 11.4615 15.1606 13.03C15.1039 13.1764 15.0519 13.3937 15.0378 13.5071L15.0141 13.7103L18.3921 17.0977C22.0818 20.7921 21.9354 20.6221 21.822 21.0473C21.7464 21.3165 21.6188 21.4724 21.3873 21.5858C21.1606 21.6945 20.9574 21.7134 20.7543 21.6331C20.6834 21.6095 19.1433 20.1071 17.2913 18.2599C15.3637 16.3323 13.9039 14.9103 13.8236 14.8819C13.7102 14.8394 13.6157 14.8536 13.2567 14.9811C12.9165 15.0992 12.7275 15.137 12.3543 15.1512C11.4094 15.1937 10.6535 14.9055 9.9921 14.2536C9.7795 14.041 9.53855 13.7481 9.45824 13.6063C9.25037 13.2331 9.07556 12.6756 9.04249 12.2741C9.01415 11.9622 9.08029 11.2961 9.15115 11.1874C9.16533 11.1591 9.63777 11.5985 10.2 12.1607C11.537 13.4882 11.3433 13.4693 12.4299 12.3969C13.233 11.6032 13.4031 11.3764 13.3464 11.1827C13.3275 11.126 12.8551 10.6205 12.2976 10.0583C11.6976 9.45359 11.3008 9.02367 11.3338 9.00477C11.4614 8.92445 11.8252 8.88666 12.3071 8.90556C12.7181 8.91973 12.907 8.94808 13.2 9.04729Z" fill="#C9CCCE"/>
</svg>
