<svg width="26" height="26" viewBox="0 0 26 26" fill="none" xmlns="http://www.w3.org/2000/svg">
<path d="M13 16.25C14.7949 16.25 16.25 14.7949 16.25 13C16.25 11.2051 14.7949 9.75 13 9.75C11.2051 9.75 9.75 11.2051 9.75 13C9.75 14.7949 11.2051 16.25 13 16.25Z" stroke="white" stroke-width="1.5" stroke-miterlimit="10" stroke-linecap="round" stroke-linejoin="round"/>
<path d="M2.1665 13.9532V12.0466C2.1665 10.9199 3.08734 9.98822 4.22484 9.98822C6.18567 9.98822 6.98734 8.60156 6.0015 6.90072C5.43817 5.92572 5.774 4.65822 6.75984 4.09489L8.634 3.02239C9.48984 2.51322 10.5948 2.81656 11.104 3.67239L11.2232 3.87822C12.1982 5.57906 13.8015 5.57906 14.7873 3.87822L14.9065 3.67239C15.4157 2.81656 16.5207 2.51322 17.3765 3.02239L19.2507 4.09489C20.2365 4.65822 20.5723 5.92572 20.009 6.90072C19.0232 8.60156 19.8248 9.98822 21.7857 9.98822C22.9123 9.98822 23.844 10.9091 23.844 12.0466V13.9532C23.844 15.0799 22.9232 16.0116 21.7857 16.0116C19.8248 16.0116 19.0232 17.3982 20.009 19.0991C20.5723 20.0849 20.2365 21.3416 19.2507 21.9049L17.3765 22.9774C16.5207 23.4866 15.4157 23.1832 14.9065 22.3274L14.7873 22.1216C13.8123 20.4207 12.209 20.4207 11.2232 22.1216L11.104 22.3274C10.5948 23.1832 9.48984 23.4866 8.634 22.9774L6.75984 21.9049C5.774 21.3416 5.43817 20.0741 6.0015 19.0991C6.98734 17.3982 6.18567 16.0116 4.22484 16.0116C3.08734 16.0116 2.1665 15.0799 2.1665 13.9532Z" stroke="white" stroke-width="1.5" stroke-miterlimit="10" stroke-linecap="round" stroke-linejoin="round"/>
</svg>
