<svg width="17" height="17" viewBox="0 0 17 17" fill="none" xmlns="http://www.w3.org/2000/svg">
<path d="M2.13232 7.94751V11.1279C2.13232 14.3083 3.40732 15.5833 6.58774 15.5833H10.4057C13.5861 15.5833 14.8611 14.3083 14.8611 11.1279V7.94751" stroke="#2F6BF2" stroke-width="1.5" stroke-linecap="round" stroke-linejoin="round"/>
<path d="M8.50018 8.50008C9.79643 8.50008 10.7527 7.44467 10.6252 6.14842L10.1577 1.41675H6.84976L6.37518 6.14842C6.24768 7.44467 7.20393 8.50008 8.50018 8.50008Z" stroke="#2F6BF2" stroke-width="1.5" stroke-linecap="round" stroke-linejoin="round"/>
<path d="M12.9698 8.50008C14.4006 8.50008 15.449 7.33842 15.3073 5.91467L15.109 3.96675C14.854 2.12508 14.1456 1.41675 12.2898 1.41675H10.1294L10.6252 6.38217C10.7456 7.55092 11.8011 8.50008 12.9698 8.50008Z" stroke="#2F6BF2" stroke-width="1.5" stroke-linecap="round" stroke-linejoin="round"/>
<path d="M3.99486 8.50008C5.16361 8.50008 6.21902 7.55092 6.33236 6.38217L6.48819 4.81675L6.82819 1.41675H4.66777C2.81194 1.41675 2.10361 2.12508 1.84861 3.96675L1.65736 5.91467C1.51569 7.33842 2.56402 8.50008 3.99486 8.50008Z" stroke="#2F6BF2" stroke-width="1.5" stroke-linecap="round" stroke-linejoin="round"/>
<path d="M8.49984 12.0417C7.31692 12.0417 6.729 12.6297 6.729 13.8126V15.5834H10.2707V13.8126C10.2707 12.6297 9.68275 12.0417 8.49984 12.0417Z" stroke="#2F6BF2" stroke-width="1.5" stroke-linecap="round" stroke-linejoin="round"/>
</svg>
