<svg width="21" height="25" viewBox="0 0 21 25" fill="none" xmlns="http://www.w3.org/2000/svg">
<path d="M9.85029 0.0962888C9.29418 0.291655 8.88123 0.699134 8.60593 1.30756C8.50131 1.54758 8.47929 1.70388 8.46277 2.42394L8.44074 3.26123L8.11589 3.36728C7.22391 3.65196 5.98505 4.44459 5.30781 5.16466C4.34426 6.19173 3.73859 7.38625 3.43576 8.83197C3.32564 9.35108 3.30912 9.63576 3.27609 12.0806C3.23755 14.732 3.23755 14.7655 3.09439 15.3014C2.70897 16.7583 2.0097 17.9584 1.11772 18.6952C0.385422 19.2925 0.297326 19.3818 0.148663 19.6609C0.0220241 19.912 0 20.0181 0 20.4256C0 20.8163 0.0220241 20.9447 0.132145 21.1512C0.308338 21.4917 0.550603 21.7485 0.880965 21.9215L1.15627 22.0722L4.16806 22.089L7.17986 22.1057L7.24043 22.3402C7.42213 23.0491 7.85711 23.7636 8.38018 24.1934C8.77661 24.5227 9.33823 24.813 9.78422 24.919C10.2467 25.0306 11.0781 25.0251 11.5296 24.9134C12.6859 24.6232 13.6384 23.7133 13.9908 22.5634L14.134 22.1001H16.876C20.0805 22.1001 20.0089 22.1113 20.521 21.5978C20.7577 21.3578 20.8513 21.2126 20.9174 20.9838C21.0275 20.6042 21.0275 20.247 20.9174 19.873C20.8238 19.5492 20.554 19.2422 19.8713 18.6952C18.8802 17.8914 18.0818 16.4234 17.79 14.8493C17.7184 14.4809 17.7019 13.9617 17.7019 12.3374C17.7019 10.127 17.6523 9.27294 17.4761 8.54171C16.9531 6.28104 15.3288 4.36644 13.22 3.50683L12.7189 3.30588L12.6859 2.47418C12.6639 1.81551 12.6308 1.58107 12.5372 1.34664C12.317 0.771699 11.8325 0.286074 11.2984 0.0962888C10.9185 -0.0320949 10.2247 -0.0320949 9.85029 0.0962888ZM11.1222 1.06754C11.5627 1.30198 11.7168 1.64248 11.7444 2.44627L11.7664 3.08261L11.5847 3.04353C11.2378 2.97097 10.1862 2.94306 9.78972 2.9933L9.38778 3.04353V2.51883C9.38778 1.89924 9.45385 1.63689 9.6741 1.36338C10.032 0.927992 10.6266 0.805191 11.1222 1.06754ZM11.2874 3.95897C12.2344 4.09851 13.242 4.48925 14.0128 5.01953C15.1801 5.82332 16.1547 7.20763 16.5181 8.59194C16.7163 9.35108 16.7659 10.0823 16.7659 12.4211C16.7659 14.6427 16.7934 14.9665 17.0632 15.9154C17.2559 16.5796 17.5808 17.322 17.9276 17.897C18.2745 18.4552 19.0399 19.298 19.5684 19.6943C19.9594 19.9902 20.0695 20.1521 20.0695 20.4423C20.0695 20.6879 19.9649 20.8721 19.7446 21.0228L19.5574 21.1512H10.5055C0.627687 21.1512 1.28291 21.1736 1.02412 20.8386C0.891977 20.6712 0.869953 20.3474 0.974567 20.1186C1.0076 20.0404 1.20582 19.8506 1.40954 19.6943C1.93812 19.298 2.70346 18.4552 3.05034 17.897C3.39722 17.322 3.72208 16.5796 3.91479 15.9154C4.18458 14.9609 4.21211 14.6483 4.21211 12.3653C4.21211 11.1987 4.23964 9.98742 4.26717 9.686C4.41584 8.13423 5.09858 6.71643 6.2053 5.65586C7.20739 4.69578 8.31411 4.17108 9.82826 3.93664C10.1146 3.89756 10.9185 3.90873 11.2874 3.95897ZM13.1319 22.1671C13.1319 22.2062 13.0603 22.396 12.9667 22.5858C12.2014 24.238 10.0045 24.5674 8.7656 23.2221C8.51783 22.9542 8.17645 22.3513 8.17645 22.1839C8.17645 22.1113 8.46827 22.1001 10.6542 22.1001C12.5978 22.1001 13.1319 22.1169 13.1319 22.1671Z" fill="#C9CCCE"/>
</svg>
