<svg width="24" height="27" viewBox="0 0 24 27" fill="none" xmlns="http://www.w3.org/2000/svg">
<path d="M6.06858 2.07906C2.81992 3.24774 0.144947 4.23714 0.118264 4.27698C0.018203 4.44299 -0.0218215 6.2093 0.0115323 9.35014C0.0315446 11.9996 0.0582276 12.7367 0.151618 13.3011C0.391765 14.742 0.691949 15.8709 1.15223 17.0528C2.69985 20.9905 5.63498 24.1645 9.42397 26.0105C10.538 26.555 11.7254 27.0066 12.0322 26.9999C12.5859 26.9866 15.0541 25.8578 16.3015 25.0477C17.7424 24.1114 19.2833 22.7302 20.2906 21.4686C21.7649 19.6226 22.9122 17.3251 23.4726 15.094C23.9395 13.248 24.0062 12.4113 23.9996 8.52674C23.9996 5.48551 23.9595 4.33674 23.8595 4.23714C23.8195 4.1973 12.4258 0.0936233 12.0989 0.000659744C12.0122 -0.0259013 9.76418 0.751008 6.06858 2.07906ZM16.7084 2.45091C19.31 3.38719 21.8316 4.29026 22.3052 4.45627L23.1724 4.76836L23.2124 5.53199C23.2858 6.80692 23.2725 11.3555 23.2058 12.1722C22.6454 18.4738 18.6563 23.7462 12.7593 25.984L12.0122 26.2629L11.3251 26.0105C10.4112 25.6785 8.78358 24.8618 7.99643 24.3305C4.02733 21.6744 1.55248 17.7102 0.852048 12.8695C0.758657 12.2054 0.705291 7.34478 0.771999 5.864L0.825365 4.775L6.39545 2.76965C9.45732 1.66072 11.9722 0.757649 11.9722 0.757649C11.9789 0.751008 14.1135 1.51464 16.7084 2.45091Z" fill="#C9CCCE"/>
<path d="M7.55937 4.62416C5.17309 5.51308 3.17045 6.28839 3.11843 6.34854C3.0274 6.44211 3.0144 6.81639 3.00139 9.55C2.99489 12.2569 3.00789 12.7448 3.11193 13.3864C3.59958 16.4141 4.80247 18.8135 6.87014 20.8721C8.21608 22.2088 9.80259 23.218 11.5126 23.8195L12.0328 24L12.683 23.746C14.4646 23.0576 15.9016 22.1219 17.228 20.7852C18.9185 19.0742 20.0304 17.0891 20.6156 14.7298C20.9797 13.246 21.0057 12.9052 20.9992 9.52326C20.9927 6.6092 20.9862 6.44879 20.8692 6.33517C20.7521 6.22823 12.1043 2.98667 11.9678 3.00004C11.9288 3.00672 9.95214 3.73524 7.55937 4.62416ZM16.0771 5.30589C18.3203 6.13466 20.1799 6.83644 20.206 6.86318C20.284 6.9367 20.2775 12.3237 20.1995 12.9854C20.1019 13.774 19.7833 15.084 19.5037 15.8393C18.2683 19.1744 15.687 21.7944 12.4099 23.0376L12.0003 23.1913L11.5972 23.0376C7.84546 21.6139 5.05606 18.4259 4.07424 14.4558C3.78164 13.246 3.73613 12.6245 3.75564 9.65025L3.77514 6.84981L7.87147 5.32594C10.1277 4.49049 11.9743 3.80208 11.9808 3.80208C11.9873 3.79539 13.8339 4.47712 16.0771 5.30589Z" fill="#C9CCCE"/>
</svg>
