<svg width="26" height="26" viewBox="0 0 26 26" fill="none" xmlns="http://www.w3.org/2000/svg">
<path d="M13.964 6.37012H5.53565C3.68315 6.37012 2.1665 7.88677 2.1665 9.73927V22.046C2.1665 23.6168 3.29317 24.2884 4.669 23.5193L8.92649 21.1468C9.38149 20.8976 10.1182 20.8976 10.5623 21.1468L14.8198 23.5193C16.1957 24.2884 17.3223 23.6168 17.3223 22.046V9.73927C17.3332 7.88677 15.8165 6.37012 13.964 6.37012Z" stroke="white" stroke-width="1.5" stroke-linecap="round" stroke-linejoin="round"/>
<path d="M17.3332 9.73927V22.046C17.3332 23.6168 16.2065 24.2776 14.8307 23.5193L10.5732 21.1468C10.1182 20.8976 9.38149 20.8976 8.92649 21.1468L4.669 23.5193C3.29317 24.2776 2.1665 23.6168 2.1665 22.046V9.73927C2.1665 7.88677 3.68315 6.37012 5.53565 6.37012H13.964C15.8165 6.37012 17.3332 7.88677 17.3332 9.73927Z" stroke="white" stroke-width="1.5" stroke-linecap="round" stroke-linejoin="round"/>
<path d="M23.8332 5.5359V17.8426C23.8332 19.4134 22.7065 20.0742 21.3307 19.3159L17.3332 17.0842V9.73924C17.3332 7.88674 15.8165 6.37009 13.964 6.37009H8.6665V5.5359C8.6665 3.6834 10.1832 2.16675 12.0357 2.16675H20.464C22.3165 2.16675 23.8332 3.6834 23.8332 5.5359Z" stroke="white" stroke-width="1.5" stroke-linecap="round" stroke-linejoin="round"/>
</svg>
