<svg width="26" height="26" viewBox="0 0 26 26" fill="none" xmlns="http://www.w3.org/2000/svg">
<path d="M2.1665 2.16675H4.05151C5.22151 2.16675 6.14234 3.17425 6.04484 4.33341L5.14567 15.1234C4.994 16.8892 6.3915 18.4059 8.16816 18.4059H19.7057C21.2657 18.4059 22.6307 17.1276 22.7498 15.5784L23.3348 7.45342C23.4648 5.65509 22.0998 4.19258 20.2907 4.19258H6.30485" stroke="white" stroke-width="1.5" stroke-miterlimit="10" stroke-linecap="round" stroke-linejoin="round"/>
<path d="M17.6042 23.8333C18.3521 23.8333 18.9583 23.2271 18.9583 22.4792C18.9583 21.7313 18.3521 21.125 17.6042 21.125C16.8563 21.125 16.25 21.7313 16.25 22.4792C16.25 23.2271 16.8563 23.8333 17.6042 23.8333Z" stroke="white" stroke-width="1.5" stroke-miterlimit="10" stroke-linecap="round" stroke-linejoin="round"/>
<path d="M8.93766 23.8333C9.68555 23.8333 10.2918 23.2271 10.2918 22.4792C10.2918 21.7313 9.68555 21.125 8.93766 21.125C8.18978 21.125 7.5835 21.7313 7.5835 22.4792C7.5835 23.2271 8.18978 23.8333 8.93766 23.8333Z" stroke="white" stroke-width="1.5" stroke-miterlimit="10" stroke-linecap="round" stroke-linejoin="round"/>
<path d="M9.75 8.66675H22.75" stroke="white" stroke-width="1.5" stroke-miterlimit="10" stroke-linecap="round" stroke-linejoin="round"/>
</svg>
