<svg width="17" height="17" viewBox="0 0 17 17" fill="none" xmlns="http://www.w3.org/2000/svg">
<path d="M14.875 4.23576C12.5162 4.00201 10.1433 3.88159 7.7775 3.88159C6.375 3.88159 4.9725 3.95243 3.57 4.09409L2.125 4.23576" stroke="#C50F02" stroke-width="1.5" stroke-linecap="round" stroke-linejoin="round"/>
<path d="M6.021 3.5205L6.17683 2.59258C6.29016 1.91966 6.37516 1.41675 7.57225 1.41675H9.42808C10.6252 1.41675 10.7172 1.948 10.8235 2.59966L10.9793 3.5205" stroke="#C50F02" stroke-width="1.5" stroke-linecap="round" stroke-linejoin="round"/>
<path d="M13.3521 6.47412L12.8917 13.607C12.8138 14.7191 12.75 15.5833 10.7738 15.5833H6.22628C4.25003 15.5833 4.18628 14.7191 4.10837 13.607L3.64795 6.47412" stroke="#C50F02" stroke-width="1.5" stroke-linecap="round" stroke-linejoin="round"/>
<path d="M7.31689 11.6875H9.67564" stroke="#C50F02" stroke-width="1.5" stroke-linecap="round" stroke-linejoin="round"/>
<path d="M6.729 8.85425H10.2707" stroke="#C50F02" stroke-width="1.5" stroke-linecap="round" stroke-linejoin="round"/>
</svg>
