<svg width="25" height="23" viewBox="0 0 25 23" fill="none" xmlns="http://www.w3.org/2000/svg">
<path d="M3.92977 0.00106319C3.9962 0.000950575 4.06263 0.000795576 4.12906 0.0006025C4.30954 0.000199719 4.49002 0.000394893 4.6705 0.000698612C4.86595 0.000920687 5.06139 0.000577988 5.25684 0.000310748C5.6389 -0.000121014 6.02096 -2.97049e-05 6.40303 0.000253507C6.71373 0.000474224 7.02444 0.000503177 7.33514 0.000397368C7.37948 0.000382435 7.42382 0.000367502 7.4695 0.000352116C7.55959 0.000320955 7.64969 0.000289359 7.73978 0.000257332C8.5832 -2.0102e-05 9.42662 0.000298229 10.27 0.000822608C10.9926 0.00125797 11.7152 0.00118233 12.4378 0.00073307C13.2784 0.000210717 14.1189 6.66059e-06 14.9595 0.000305462C15.0492 0.000336504 15.139 0.000367141 15.2287 0.000397368C15.2729 0.000412404 15.317 0.000427439 15.3625 0.000442929C15.6726 0.000526828 15.9827 0.000385576 16.2927 0.000155723C16.671 -0.000118512 17.0492 -4.17386e-05 17.4275 0.000475449C17.6202 0.000730347 17.8129 0.000833965 18.0056 0.000509641C18.1825 0.000216537 18.3593 0.000383244 18.5362 0.000897274C18.6295 0.00105552 18.7229 0.000741988 18.8162 0.00040442C19.907 0.00527188 20.8034 0.290372 21.6122 1.03672C22.078 1.5125 22.3659 2.10073 22.4771 2.75132C22.5271 3.02422 22.5271 3.02422 22.7095 3.22623C22.8575 3.28682 22.8575 3.28682 23.0142 3.32939C23.6592 3.51912 24.1922 4.08795 24.5358 4.64256C24.8429 5.21291 24.9969 5.74848 24.9933 6.39541C24.9937 6.47984 24.9937 6.47984 24.9941 6.56598C24.9948 6.7533 24.9944 6.9406 24.9941 7.12792C24.9943 7.26275 24.9947 7.39759 24.9951 7.53242C24.9959 7.85988 24.996 8.18734 24.9957 8.5148C24.9955 8.78116 24.9956 9.04752 24.9958 9.31389C24.9959 9.35189 24.9959 9.38989 24.996 9.42905C24.996 9.50626 24.9961 9.58348 24.9962 9.6607C24.9968 10.3839 24.9966 11.107 24.996 11.8302C24.9955 12.4906 24.9962 13.151 24.9973 13.8115C24.9985 14.4908 24.999 15.1702 24.9987 15.8496C24.9985 16.2305 24.9986 16.6114 24.9995 16.9924C25.0002 17.3167 25.0002 17.641 24.9994 17.9653C24.9989 18.1305 24.9989 18.2956 24.9996 18.4608C25.0039 19.6469 24.8448 20.5884 23.9846 21.4719C23.1264 22.2861 22.1202 22.4442 20.978 22.4405C20.9015 22.4406 20.825 22.4408 20.7485 22.441C20.5403 22.4414 20.332 22.4412 20.1237 22.4409C19.8984 22.4407 19.6731 22.441 19.4477 22.4413C19.007 22.4417 18.5663 22.4416 18.1257 22.4413C17.7673 22.4411 17.409 22.4411 17.0507 22.4412C16.9996 22.4412 16.9485 22.4412 16.8958 22.4412C16.792 22.4413 16.6882 22.4413 16.5843 22.4413C15.612 22.4416 14.6396 22.4413 13.6672 22.4408C12.8338 22.4403 12.0004 22.4404 11.167 22.4409C10.1979 22.4414 9.22889 22.4416 8.25985 22.4413C8.15642 22.4412 8.05299 22.4412 7.94955 22.4412C7.89867 22.4412 7.84778 22.4412 7.79536 22.4411C7.43768 22.4411 7.08 22.4412 6.72232 22.4414C6.28612 22.4417 5.84992 22.4416 5.41372 22.4411C5.19139 22.4409 4.96906 22.4408 4.74673 22.4411C4.54282 22.4414 4.33892 22.4412 4.13501 22.4407C4.06163 22.4406 3.98825 22.4406 3.91488 22.4409C2.77027 22.4443 1.82311 22.2267 0.968606 21.4264C0.276122 20.7062 0.00238471 19.8828 0.0069501 18.8999C0.00674633 18.8307 0.00647922 18.7615 0.0061549 18.6924C0.00545505 18.5039 0.00565611 18.3154 0.00601697 18.1269C0.00624854 17.9231 0.00563692 17.7192 0.00513887 17.5153C0.00430304 17.1165 0.00426006 16.7177 0.0045158 16.3188C0.00471312 15.9945 0.00464203 15.6702 0.00438196 15.3459C0.00434549 15.2996 0.00430875 15.2534 0.00427118 15.2057C0.00419655 15.1118 0.00412192 15.0178 0.00404663 14.9239C0.00337846 14.0437 0.00364219 13.1635 0.00420166 12.2833C0.00468557 11.479 0.00405519 10.6748 0.00288934 9.87052C0.00169968 9.04357 0.00123273 8.21661 0.00155657 7.38966C0.00172648 6.92584 0.00161967 6.46202 0.000764715 5.99821C4.59163e-05 5.60337 1.84571e-05 5.20855 0.000865834 4.81372C0.00127945 4.6125 0.00138774 4.4113 0.000639059 4.21008C-3.93476e-05 4.02546 0.000201054 3.84086 0.00113796 3.65624C0.00140556 3.55872 0.000726331 3.46121 0 3.36369C0.00750234 2.43203 0.370354 1.63242 1.01562 0.969718C1.84457 0.183275 2.82016 -0.00294957 3.92977 0.00106319ZM1.9443 2.39253C1.69131 2.7165 1.61181 3.06893 1.63385 3.4731C1.85319 3.40384 2.06318 3.32002 2.27435 3.22946C2.71284 3.0759 3.12899 3.06902 3.58924 3.06971C3.66399 3.06947 3.73873 3.06918 3.81348 3.06885C4.01805 3.06809 4.22262 3.06792 4.42719 3.06785C4.6481 3.06767 4.86901 3.06693 5.08993 3.06626C5.4724 3.06517 5.85487 3.06444 6.23735 3.06395C6.79034 3.06324 7.34333 3.06199 7.89632 3.06062C8.79356 3.05841 9.6908 3.05662 10.588 3.05511C11.4595 3.05364 12.331 3.05196 13.2024 3.05002C13.283 3.04984 13.283 3.04984 13.3653 3.04965C13.6349 3.04905 13.9045 3.04844 14.1741 3.04783C16.4098 3.04279 18.6455 3.03844 20.8813 3.03455C20.8584 2.96387 20.8354 2.89324 20.8123 2.82264C20.7995 2.78331 20.7867 2.74397 20.7735 2.70344C20.6166 2.26481 20.2099 1.95188 19.8041 1.75602C19.6128 1.67909 19.4432 1.664 19.2372 1.66364C19.1798 1.66342 19.1223 1.6632 19.0632 1.66298C19 1.66299 18.9369 1.663 18.8718 1.66301C18.8041 1.66285 18.7364 1.66266 18.6686 1.66246C18.4823 1.66198 18.296 1.66179 18.1097 1.66166C17.9088 1.66147 17.708 1.66101 17.5071 1.66058C17.0219 1.65962 16.5367 1.65913 16.0515 1.6587C15.8229 1.65848 15.5944 1.65822 15.3658 1.65797C14.606 1.65714 13.8462 1.65643 13.0864 1.65608C12.8892 1.65598 12.6921 1.65589 12.4949 1.6558C12.4459 1.65577 12.3969 1.65575 12.3464 1.65572C11.5527 1.65532 10.7591 1.65408 9.9654 1.6525C9.1504 1.65089 8.33541 1.65001 7.52041 1.64986C7.06289 1.64975 6.60536 1.64933 6.14783 1.64808C5.75814 1.64702 5.36846 1.64663 4.97876 1.6471C4.78004 1.64733 4.58132 1.64723 4.38259 1.64629C4.2004 1.64543 4.01823 1.64548 3.83603 1.64623C3.73945 1.6464 3.64288 1.64562 3.5463 1.64479C2.84366 1.64983 2.40879 1.87234 1.9443 2.39253ZM2.01454 5.28211C1.69828 5.68252 1.59745 6.12823 1.60324 6.62772C1.6029 6.6822 1.60255 6.73668 1.60219 6.79281C1.60134 6.97371 1.60222 7.15455 1.6031 7.33545C1.60285 7.46581 1.6025 7.59616 1.60204 7.72652C1.60115 8.04281 1.60156 8.35908 1.60244 8.67537C1.60312 8.93253 1.60331 9.18969 1.60315 9.44686C1.60312 9.48355 1.6031 9.52026 1.60308 9.55807C1.60303 9.63264 1.60298 9.70721 1.60292 9.78178C1.60251 10.44 1.60332 11.0983 1.60477 11.7565C1.60617 12.3944 1.60652 13.0323 1.60577 13.6702C1.60495 14.3659 1.60475 15.0616 1.6056 15.7574C1.60569 15.8316 1.60578 15.9059 1.60587 15.9802C1.60592 16.0167 1.60596 16.0532 1.60601 16.0909C1.60628 16.3476 1.60612 16.6043 1.6058 16.8611C1.60542 17.1741 1.60575 17.4871 1.60698 17.8002C1.60758 17.9597 1.60778 18.1192 1.60734 18.2788C1.60691 18.4521 1.60769 18.6253 1.60877 18.7986C1.60837 18.8486 1.60797 18.8985 1.60756 18.95C1.61372 19.4871 1.8141 19.9166 2.17595 20.3115C2.51048 20.6374 2.90617 20.7772 3.36471 20.7779C3.39669 20.7781 3.42868 20.7782 3.46163 20.7783C3.56927 20.7786 3.6769 20.7786 3.78454 20.7786C3.86231 20.7787 3.94008 20.7789 4.01786 20.7791C4.23194 20.7796 4.44603 20.7798 4.66012 20.7799C4.89088 20.7801 5.12163 20.7806 5.35239 20.781C5.90988 20.782 6.46736 20.7825 7.02485 20.7829C7.28737 20.7831 7.54989 20.7834 7.81241 20.7836C8.68508 20.7845 9.55775 20.7852 10.4304 20.7855C10.6569 20.7856 10.8834 20.7857 11.1099 20.7858C11.1662 20.7858 11.2224 20.7858 11.2804 20.7859C12.1923 20.7863 13.1041 20.7875 14.016 20.7891C14.9521 20.7907 15.8882 20.7916 16.8243 20.7917C17.35 20.7918 17.8756 20.7923 18.4012 20.7935C18.8488 20.7946 19.2965 20.795 19.7441 20.7945C19.9725 20.7943 20.2008 20.7944 20.4291 20.7953C20.6384 20.7962 20.8476 20.7961 21.0568 20.7954C21.1323 20.7952 21.2078 20.7954 21.2833 20.796C21.9282 20.8007 22.3989 20.7086 22.8713 20.2497C23.3243 19.7688 23.3885 19.3168 23.3806 18.6653C23.3804 18.5993 23.3802 18.5332 23.38 18.4672C23.3795 18.2949 23.378 18.1226 23.3764 17.9503C23.3749 17.7739 23.3742 17.5975 23.3735 17.4211C23.372 17.076 23.3695 16.731 23.3664 16.3859C23.339 16.3859 23.3116 16.3858 23.2833 16.3857C22.6129 16.3839 21.9425 16.381 21.2721 16.377C20.9478 16.375 20.6236 16.3735 20.2994 16.3727C19.986 16.372 19.6726 16.3703 19.3591 16.368C19.2401 16.3673 19.1211 16.3669 19.002 16.3668C18.2035 16.3663 17.4419 16.3472 16.7211 15.9596C16.689 15.9428 16.6569 15.9261 16.6238 15.9088C15.746 15.4369 15.201 14.6749 14.9101 13.7391C14.6422 12.814 14.7875 11.8216 15.2289 10.9772C15.332 10.805 15.445 10.6468 15.57 10.4899C15.6125 10.4345 15.6125 10.4345 15.656 10.378C16.2341 9.67355 17.112 9.27554 18.0063 9.17423C18.4203 9.1469 18.8356 9.15038 19.2502 9.1493C19.3694 9.14848 19.4885 9.14759 19.6076 9.14665C19.9188 9.14435 20.23 9.14289 20.5412 9.14161C20.8597 9.14015 21.1782 9.13788 21.4967 9.13569C22.1199 9.13151 22.7432 9.1282 23.3664 9.1255C23.3721 8.73535 23.3764 8.34521 23.379 7.95503C23.3803 7.77379 23.382 7.59258 23.3848 7.41135C23.3874 7.236 23.3889 7.06067 23.3895 6.8853C23.3902 6.78684 23.392 6.6884 23.394 6.58996C23.3942 5.99156 23.2279 5.52487 22.8113 5.09082C22.4503 4.78658 22.0545 4.63674 21.5883 4.63602C21.5406 4.63585 21.5406 4.63585 21.4919 4.63568C21.3848 4.63535 21.2777 4.63537 21.1707 4.63539C21.0933 4.63523 21.0159 4.63505 20.9385 4.63485C20.7256 4.63436 20.5126 4.63418 20.2996 4.63405C20.0701 4.63386 19.8405 4.63339 19.6109 4.63297C19.0563 4.632 18.5017 4.63151 17.9472 4.63108C17.686 4.63087 17.4248 4.63061 17.1637 4.63035C16.2955 4.62952 15.4274 4.62882 14.5592 4.62846C14.3339 4.62837 14.1086 4.62828 13.8833 4.62818C13.8273 4.62816 13.7713 4.62813 13.7136 4.62811C12.8065 4.6277 11.8994 4.62647 10.9922 4.62489C10.061 4.62328 9.12968 4.6224 8.19839 4.62224C7.6755 4.62214 7.15261 4.62171 6.62972 4.62047C6.18439 4.61941 5.73906 4.61902 5.29373 4.61949C5.06658 4.61971 4.83944 4.61962 4.6123 4.61867C4.40413 4.61781 4.19599 4.61786 3.98783 4.61862C3.91274 4.61873 3.83764 4.61852 3.76255 4.61795C3.05182 4.61281 2.51443 4.76065 2.01454 5.28211ZM16.8626 11.4233C16.4484 11.9233 16.3477 12.4331 16.388 13.072C16.4463 13.6262 16.7906 14.0449 17.1989 14.3965C17.5435 14.6416 17.9567 14.7843 18.3798 14.7838C18.424 14.7838 18.4682 14.7839 18.5137 14.784C18.5855 14.7837 18.5855 14.7837 18.6588 14.7834C18.7097 14.7834 18.7606 14.7835 18.813 14.7835C18.9809 14.7834 19.1489 14.7831 19.3168 14.7827C19.4334 14.7826 19.5499 14.7825 19.6665 14.7825C19.9731 14.7823 20.2796 14.7818 20.5862 14.7813C20.9541 14.7807 21.3221 14.7804 21.69 14.7802C22.2488 14.7797 22.8076 14.7788 23.3664 14.7779C23.3664 13.4433 23.3664 12.1086 23.3664 10.7335C22.4725 10.7293 22.4725 10.7293 21.5786 10.7264C21.2136 10.7255 20.8487 10.7245 20.4837 10.7225C20.1893 10.7209 19.8948 10.72 19.6003 10.7196C19.4884 10.7194 19.3764 10.7189 19.2645 10.7181C18.3577 10.7119 17.5255 10.712 16.8626 11.4233Z" fill="#BCCCFC"/>
<path d="M19.1515 12.0827C19.3431 12.26 19.4963 12.4134 19.5285 12.6817C19.5381 12.9659 19.4982 13.1847 19.322 13.4136C19.1304 13.5955 18.9462 13.672 18.6825 13.6816C18.392 13.6647 18.2233 13.5834 18.0186 13.374C17.835 13.114 17.7857 12.9088 17.8309 12.5972C17.8957 12.3554 18.0321 12.2009 18.2287 12.0522C18.5402 11.956 18.8548 11.9397 19.1515 12.0827Z" fill="#BCCCFC"/>
</svg>
