<svg width="27" height="17" viewBox="0 0 27 17" fill="none" xmlns="http://www.w3.org/2000/svg">
<path d="M0.450636 7.3907C0.664075 7.15108 0.890053 6.92515 1.11762 6.699C1.18397 6.63231 1.25033 6.56562 1.31869 6.49691C1.53708 6.27769 1.75615 6.05917 1.97528 5.84069C2.12778 5.68806 2.28025 5.53541 2.43269 5.38272C2.75181 5.06333 3.07126 4.74428 3.39096 4.42547C3.80052 4.017 4.20921 3.60769 4.61765 3.1981C4.93215 2.88291 5.2471 2.56818 5.5622 2.25358C5.71308 2.10283 5.86382 1.95193 6.01441 1.80089C6.22491 1.58991 6.43601 1.37954 6.64729 1.16934C6.70926 1.10697 6.77124 1.0446 6.8351 0.980348C7.33426 0.485822 7.74149 0.157079 8.47262 0.132709C9.06942 0.230613 9.428 0.451515 9.80067 0.923566C10.0334 1.28921 10.0288 1.62076 10.0006 2.04271C9.79425 2.75463 9.28477 3.18938 8.76696 3.69567C8.67307 3.78884 8.57928 3.8821 8.48556 3.97544C8.24006 4.21948 7.99345 4.46235 7.74657 4.70499C7.49429 4.95335 7.2431 5.2028 6.99182 5.45216C6.49965 5.94025 6.00628 6.42711 5.51213 6.9132C5.61577 6.91334 5.7194 6.91348 5.82618 6.91362C8.34806 6.91712 10.8699 6.9228 13.3918 6.93076C14.6113 6.93456 15.8309 6.93766 17.0505 6.93908C18.1134 6.94032 19.1764 6.94289 20.2394 6.94706C20.8022 6.94923 21.365 6.95072 21.9279 6.95062C22.4577 6.95055 22.9876 6.95226 23.5175 6.95533C23.7118 6.95614 23.9062 6.95631 24.1005 6.95577C24.3662 6.95514 24.6319 6.95685 24.8976 6.95914C24.9742 6.95839 25.0507 6.95765 25.1296 6.95689C25.6633 6.96499 26.0766 7.09075 26.5221 7.3907C26.8866 7.80187 27.008 8.18839 26.9996 8.7277C26.9095 9.25937 26.7478 9.53274 26.3311 9.87369C25.8479 10.1713 25.4705 10.2016 24.9206 10.1983C24.8374 10.1989 24.7542 10.1995 24.6686 10.2002C24.3905 10.202 24.1126 10.2017 23.8345 10.2015C23.635 10.2023 23.4354 10.2033 23.2359 10.2044C22.6945 10.2071 22.1531 10.208 21.6118 10.2085C21.0458 10.2094 20.4799 10.2119 19.914 10.2143C18.8426 10.2184 17.7711 10.2212 16.6996 10.2234C15.4797 10.2259 14.2598 10.2301 13.0399 10.2345C10.5307 10.2433 8.02141 10.2502 5.51213 10.2557C5.56554 10.3085 5.61896 10.3613 5.67399 10.4156C6.17778 10.9137 6.68088 11.4124 7.1832 11.9119C7.44147 12.1687 7.69999 12.4252 7.95913 12.6811C8.2093 12.9281 8.45876 13.1759 8.70775 13.4241C8.80276 13.5186 8.89803 13.6129 8.99355 13.7068C9.12752 13.8387 9.2605 13.9716 9.39344 14.1045C9.46936 14.1798 9.54528 14.2551 9.62351 14.3326C9.9567 14.7275 10.0406 15.089 10.0241 15.6052C9.96812 16.0568 9.75765 16.3488 9.42165 16.6363C9.05359 16.9104 8.86749 16.9635 8.41294 16.9825C8.31716 16.9883 8.22139 16.994 8.12271 17C7.40218 16.8658 6.84528 16.2008 6.34428 15.6966C6.27943 15.632 6.21457 15.5675 6.14775 15.501C5.93577 15.2899 5.72449 15.0781 5.51325 14.8662C5.36518 14.7182 5.21707 14.5703 5.06895 14.4224C4.75968 14.1134 4.45077 13.8041 4.14209 13.4946C3.74669 13.0981 3.35044 12.7024 2.95393 12.3071C2.6484 12.0022 2.34334 11.6969 2.0384 11.3915C1.89245 11.2454 1.74635 11.0995 1.60011 10.9537C1.39601 10.7501 1.19253 10.5459 0.989199 10.3415C0.928919 10.2816 0.86864 10.2217 0.806534 10.16C-0.03638 9.30889 -0.32047 8.40514 0.450636 7.3907Z" fill="#5B82F9"/>
</svg>
