<svg width="22" height="27" viewBox="0 0 22 27" fill="none" xmlns="http://www.w3.org/2000/svg">
<path d="M4.19442 8.0481C4.28599 8.0478 4.28599 8.0478 4.37941 8.04748C4.50742 8.04717 4.63543 8.04702 4.76343 8.04703C4.95862 8.0469 5.15379 8.04577 5.34898 8.04461C5.474 8.04443 5.59902 8.04431 5.72404 8.04425C5.81084 8.04359 5.81084 8.04359 5.8994 8.04291C6.63489 8.04546 6.63489 8.04546 6.93074 8.29517C6.96523 8.33785 6.99971 8.38052 7.03525 8.42449C7.07069 8.467 7.10613 8.50952 7.14265 8.55332C7.31578 8.8003 7.31945 9.06172 7.28954 9.35305C7.16607 9.7029 6.94349 9.92679 6.61142 10.0928C6.51299 10.0992 6.4143 10.1018 6.31566 10.1025C6.25412 10.1032 6.19258 10.1038 6.12917 10.1045C6.029 10.1051 6.029 10.1051 5.9268 10.1058C5.78589 10.1076 5.64497 10.1093 5.50406 10.1111C5.28153 10.1137 5.059 10.1159 4.83646 10.1176C4.62195 10.1193 4.40747 10.1221 4.19297 10.1251C4.12681 10.1253 4.06066 10.1255 3.99249 10.1257C3.58742 10.1323 3.24799 10.1568 2.92848 10.4319C2.67653 10.7655 2.65683 11.0101 2.65692 11.4163C2.6567 11.4703 2.65647 11.5242 2.65624 11.5798C2.65556 11.7612 2.65532 11.9427 2.65508 12.1241C2.6547 12.2539 2.65429 12.3837 2.65386 12.5135C2.65278 12.8667 2.65213 13.2199 2.65162 13.5731C2.65131 13.7938 2.65093 14.0144 2.65054 14.235C2.64937 14.9252 2.64849 15.6154 2.64798 16.3056C2.64738 17.1025 2.64575 17.8994 2.64326 18.6963C2.6414 19.3121 2.64049 19.9279 2.64029 20.5437C2.64014 20.9116 2.63959 21.2794 2.63804 21.6473C2.6366 21.9935 2.63634 22.3396 2.63698 22.6857C2.63701 22.8127 2.63662 22.9396 2.63577 23.0666C2.63468 23.2401 2.63512 23.4136 2.63593 23.5872C2.63525 23.6372 2.63457 23.6872 2.63388 23.7387C2.63777 24.0844 2.71658 24.3536 2.91258 24.6416C3.168 24.8395 3.41338 24.8957 3.73146 24.8963C3.8104 24.8966 3.8104 24.8966 3.89092 24.897C3.9772 24.8969 3.9772 24.8969 4.06521 24.8968C4.12654 24.897 4.18787 24.8972 4.25106 24.8974C4.45716 24.8979 4.66326 24.898 4.86936 24.8981C5.01689 24.8984 5.16442 24.8987 5.31195 24.899C5.71317 24.8998 6.11439 24.9002 6.51561 24.9005C6.76618 24.9007 7.01674 24.9009 7.26731 24.9012C7.9612 24.902 8.65509 24.9026 9.34898 24.9028C9.39338 24.9028 9.43778 24.9028 9.48352 24.9029C9.52803 24.9029 9.57253 24.9029 9.61838 24.9029C9.70856 24.9029 9.79874 24.903 9.88892 24.903C9.93365 24.903 9.97838 24.903 10.0245 24.903C10.7493 24.9033 11.4741 24.9043 12.199 24.9058C12.9433 24.9072 13.6876 24.908 14.432 24.9081C14.8499 24.9081 15.2677 24.9085 15.6856 24.9096C16.0786 24.9106 16.4716 24.9108 16.8646 24.9102C17.0088 24.9102 17.1531 24.9104 17.2974 24.911C17.4943 24.9118 17.6912 24.9115 17.8881 24.9108C17.9737 24.9116 17.9737 24.9116 18.0611 24.9123C18.4645 24.9092 18.7618 24.8485 19.0834 24.5876C19.3237 24.2851 19.3286 23.9845 19.3268 23.6106C19.3271 23.5565 19.3273 23.5024 19.3276 23.4466C19.3282 23.2653 19.3279 23.0839 19.3277 22.9026C19.328 22.7726 19.3283 22.6425 19.3287 22.5125C19.3295 22.1593 19.3295 21.8061 19.3294 21.4529C19.3293 21.1582 19.3296 20.8634 19.3299 20.5686C19.3306 19.8733 19.3306 19.178 19.3302 18.4827C19.3299 17.7651 19.3306 17.0476 19.3319 16.33C19.333 15.7141 19.3334 15.0982 19.3332 14.4823C19.3331 14.1144 19.3332 13.7465 19.3341 13.3785C19.3349 13.0326 19.3347 12.6866 19.3339 12.3407C19.3338 12.2137 19.334 12.0867 19.3345 11.9597C19.3351 11.7864 19.3346 11.6131 19.3338 11.4398C19.3343 11.3895 19.3347 11.3393 19.3352 11.2874C19.332 10.9463 19.2703 10.6866 19.0355 10.423C18.7483 10.1951 18.5582 10.1471 18.1986 10.1457C18.1369 10.1453 18.0752 10.1449 18.0115 10.1444C17.912 10.144 17.912 10.144 17.8105 10.1436C17.6697 10.1422 17.5289 10.1407 17.3881 10.1392C17.1664 10.137 16.9447 10.1352 16.723 10.1344C16.5088 10.1334 16.2947 10.1309 16.0805 10.1282C15.9814 10.1284 15.9814 10.1284 15.8803 10.1286C15.5041 10.1224 15.2816 10.0975 14.9955 9.84623C14.7487 9.5728 14.6639 9.36798 14.6701 8.99497C14.7121 8.66307 14.8592 8.42998 15.111 8.21643C15.4857 8.0291 15.8784 8.0486 16.2884 8.0481C16.3771 8.0478 16.3771 8.0478 16.4676 8.04748C16.5926 8.04717 16.7177 8.04702 16.8427 8.04703C17.0315 8.0469 17.2204 8.04578 17.4092 8.04461C18.5991 8.04109 19.7088 8.09438 20.6054 8.98317C21.1956 9.6856 21.4271 10.4448 21.4228 11.3522C21.4231 11.4073 21.4233 11.4624 21.4236 11.5192C21.4242 11.702 21.424 11.8847 21.4237 12.0675C21.424 12.1993 21.4243 12.3311 21.4247 12.4629C21.4255 12.8197 21.4255 13.1765 21.4254 13.5333C21.4253 13.8317 21.4256 14.1301 21.4259 14.4285C21.4266 15.1329 21.4266 15.8372 21.4262 16.5416C21.4259 17.2669 21.4266 17.9921 21.4279 18.7174C21.429 19.3414 21.4294 19.9653 21.4292 20.5892C21.4291 20.9613 21.4292 21.3334 21.4301 21.7055C21.4309 22.0556 21.4308 22.4057 21.43 22.7558C21.4298 22.8838 21.43 23.0118 21.4305 23.1398C21.4346 24.2617 21.3523 25.2658 20.5459 26.1308C19.79 26.8155 18.9267 26.9941 17.9409 26.9924C17.8482 26.9926 17.8482 26.9926 17.7536 26.9928C17.5473 26.9932 17.341 26.9932 17.1346 26.9931C16.9863 26.9933 16.8381 26.9935 16.6898 26.9938C16.3293 26.9942 15.9688 26.9944 15.6083 26.9945C15.3151 26.9945 15.0218 26.9946 14.7286 26.9948C13.8961 26.9954 13.0635 26.9957 12.231 26.9956C12.1862 26.9956 12.1413 26.9956 12.0951 26.9956C12.0503 26.9956 12.0054 26.9956 11.9591 26.9956C11.2321 26.9956 10.5052 26.9962 9.77816 26.997C9.03053 26.9979 8.28289 26.9983 7.53526 26.9983C7.11599 26.9983 6.69672 26.9984 6.27745 26.9991C5.88297 26.9997 5.4885 26.9997 5.09402 26.9993C4.94959 26.9992 4.80516 26.9993 4.66073 26.9997C3.4704 27.0026 2.33438 27.0013 1.41692 26.1211C0.808624 25.4212 0.560372 24.6321 0.561329 23.7201C0.561146 23.6652 0.560963 23.6103 0.560774 23.5538C0.56024 23.3702 0.560146 23.1867 0.560054 23.0031C0.559768 22.8713 0.559458 22.7396 0.559126 22.6078C0.558318 22.25 0.55792 21.8922 0.557646 21.5344C0.557465 21.3106 0.557212 21.0869 0.556937 20.8632C0.556094 20.1626 0.555498 19.4619 0.55526 18.7613C0.554984 17.9537 0.553903 17.146 0.552116 16.3384C0.550781 15.7134 0.550161 15.0884 0.550079 14.4634C0.550014 14.0905 0.549653 13.7176 0.548549 13.3447C0.547529 12.9935 0.547402 12.6424 0.547941 12.2913C0.547988 12.1629 0.547723 12.0345 0.547111 11.9061C0.542235 10.8186 0.60601 9.8037 1.38754 8.95957C2.20501 8.19904 3.1218 8.04938 4.19442 8.0481Z" fill="#5B82F9"/>
<path d="M11.7898 0.290896C11.9445 0.428675 12.0903 0.57455 12.2363 0.721449C12.2794 0.764282 12.3224 0.807115 12.3668 0.851246C12.5083 0.992219 12.6493 1.13363 12.7904 1.27509C12.8889 1.37353 12.9874 1.47195 13.086 1.57036C13.2922 1.77635 13.4981 1.98257 13.7039 2.18894C13.9676 2.45332 14.2318 2.71714 14.4962 2.9808C14.6997 3.18381 14.9029 3.38712 15.1059 3.59052C15.2033 3.68792 15.3007 3.78523 15.3982 3.88244C15.5344 4.01832 15.6701 4.15459 15.8058 4.29097C15.8461 4.33098 15.8864 4.37099 15.9278 4.41221C16.2471 4.73443 16.4593 4.99731 16.475 5.46927C16.4118 5.85452 16.2692 6.08599 15.9645 6.32655C15.7285 6.47675 15.5144 6.47379 15.2421 6.45563C14.7825 6.32241 14.5019 5.99353 14.175 5.65927C14.1149 5.59867 14.0547 5.53812 13.9944 5.47762C13.8369 5.31915 13.6801 5.15995 13.5235 5.00058C13.3632 4.83773 13.2021 4.67558 13.0412 4.51338C12.7261 4.19567 12.4118 3.87719 12.098 3.5582C12.098 3.6251 12.0979 3.692 12.0978 3.76093C12.0955 5.38886 12.0919 7.01678 12.0867 8.6447C12.0843 9.43195 12.0823 10.2192 12.0813 11.0065C12.0805 11.6926 12.0789 12.3788 12.0762 13.065C12.0748 13.4283 12.0738 13.7916 12.0739 14.1549C12.0739 14.497 12.0728 14.839 12.0709 15.1811C12.0703 15.3065 12.0702 15.432 12.0706 15.5574C12.071 15.729 12.0699 15.9004 12.0684 16.072C12.0689 16.1214 12.0694 16.1708 12.0698 16.2217C12.0646 16.5662 11.9834 16.8331 11.7898 17.1206C11.5244 17.3559 11.2749 17.4342 10.9267 17.4289C10.5835 17.3707 10.4071 17.2663 10.187 16.9973C9.9949 16.6854 9.97533 16.4418 9.97746 16.0868C9.97705 16.0331 9.97664 15.9794 9.97622 15.9241C9.97507 15.7446 9.97523 15.5652 9.97539 15.3857C9.97483 15.2569 9.97419 15.1281 9.97348 14.9993C9.97178 14.6498 9.97121 14.3003 9.97084 13.9509C9.97026 13.5856 9.96865 13.2203 9.96714 12.855C9.96445 12.1633 9.96269 11.4716 9.96126 10.78C9.9596 9.99252 9.95689 9.20505 9.9541 8.41758C9.94837 6.79779 9.94395 5.178 9.94039 3.5582C9.90632 3.59268 9.87225 3.62717 9.83715 3.66269C9.51565 3.9879 9.19371 4.31266 8.87126 4.63692C8.70551 4.80363 8.53993 4.97052 8.37475 5.1378C8.21527 5.29929 8.05534 5.46032 7.89509 5.62105C7.8341 5.68238 7.77327 5.74388 7.71261 5.80554C7.62748 5.89202 7.54171 5.97786 7.45591 6.06368C7.40732 6.11269 7.35872 6.1617 7.30865 6.21219C7.05375 6.42727 6.82042 6.48145 6.48718 6.4708C6.19566 6.43465 6.00719 6.29878 5.82158 6.08189C5.64465 5.84429 5.61037 5.72417 5.59811 5.43074C5.59438 5.36892 5.59064 5.30709 5.58679 5.24339C5.67339 4.77827 6.10268 4.41878 6.4282 4.09538C6.46985 4.05351 6.51149 4.01165 6.5544 3.96851C6.6907 3.83167 6.82745 3.69529 6.96422 3.55893C7.05973 3.46334 7.15521 3.36774 7.25067 3.27212C7.45013 3.07248 7.6498 2.87307 7.84964 2.67381C8.10558 2.41858 8.36096 2.16279 8.61618 1.90683C8.81296 1.7096 9.01003 1.51268 9.20719 1.31584C9.30149 1.22162 9.3957 1.12731 9.48981 1.03291C9.62125 0.901154 9.75308 0.769803 9.88502 0.63855C9.92368 0.599638 9.96235 0.560727 10.0022 0.520636C10.5516 -0.0234839 11.135 -0.20687 11.7898 0.290896Z" fill="#5B82F9"/>
</svg>
