<svg width="24" height="24" viewBox="0 0 24 24" fill="none" xmlns="http://www.w3.org/2000/svg">
<path d="M3.41383 0.00019931C3.45272 0.00062168 3.49161 0.00104405 3.53167 0.00147922C4.39434 0.0257215 4.94177 0.601319 5.50763 1.19126C5.58541 1.2746 5.65925 1.35981 5.7328 1.44687C5.94874 1.69462 6.18329 1.92338 6.4173 2.15378C6.50008 2.23536 6.58264 2.31715 6.66513 2.39901C6.89944 2.63151 7.13387 2.86386 7.36906 3.09546C7.5136 3.23782 7.65767 3.38065 7.80145 3.52378C7.85591 3.57782 7.91055 3.6317 7.96536 3.68539C8.25333 3.96758 8.5164 4.23311 8.68171 4.60786C8.69635 4.63923 8.71099 4.6706 8.72607 4.70291C8.93948 5.17757 8.90255 5.74756 8.73159 6.22859C8.60808 6.50231 8.43452 6.70692 8.23005 6.92449C7.73206 7.45774 7.43299 7.95612 7.44842 8.70155C7.62973 10.4523 9.373 12.1893 10.548 13.365C10.6168 13.434 10.6852 13.5033 10.7536 13.5726C11.0452 13.8661 11.3517 14.1328 11.6752 14.3907C11.7601 14.4637 11.8449 14.5368 11.9296 14.6101C12.5729 15.1457 13.2699 15.6005 14.0139 15.9822C14.048 16 14.0821 16.0177 14.1172 16.036C14.6976 16.3356 15.3135 16.6059 15.9784 16.4503C16.4455 16.3008 16.781 16.0774 17.1156 15.7248C17.4665 15.3645 17.922 15.1319 18.4279 15.1219C19.1582 15.1236 19.666 15.3539 20.1882 15.8697C20.2364 15.9184 20.2364 15.9184 20.2856 15.9681C20.3208 16.0031 20.356 16.038 20.3923 16.0741C20.5075 16.1887 20.6221 16.3038 20.7367 16.419C20.8172 16.4995 20.8977 16.5799 20.9783 16.6604C21.1466 16.8286 21.3146 16.997 21.4825 17.1657C21.697 17.3811 21.9121 17.596 22.1274 17.8106C22.2937 17.9765 22.4596 18.1427 22.6255 18.309C22.7046 18.3883 22.7839 18.4675 22.8633 18.5467C22.9744 18.6575 23.0851 18.7688 23.1957 18.8802C23.2281 18.9124 23.2605 18.9446 23.294 18.9778C23.7178 19.4074 23.9929 19.8346 23.9982 20.4473C23.9977 20.5164 23.9977 20.5164 23.9972 20.5869C23.9981 20.6327 23.999 20.6784 24 20.7255C23.9995 21.477 23.5605 21.9673 23.054 22.4763C21.8576 23.6336 20.4349 24.018 18.808 23.9994C18.1143 23.987 17.494 23.811 16.8671 23.5183C16.8251 23.4988 16.8251 23.4988 16.7823 23.4789C16.2938 23.2465 15.8655 22.9407 15.4335 22.6174C15.323 22.5349 15.2118 22.4533 15.1005 22.3719C13.9865 21.5569 12.8933 20.7111 11.843 19.8151C11.6856 19.6809 11.5262 19.5497 11.3654 19.4197C11.1426 19.2383 10.93 19.0476 10.7186 18.853C10.6186 18.7615 10.5177 18.6717 10.4153 18.583C10.233 18.4245 10.0553 18.2612 9.87768 18.0976C9.72679 17.9586 9.57456 17.8213 9.42132 17.6849C9.23637 17.519 9.06027 17.3466 8.88744 17.1681C8.80006 17.083 8.71223 17.0047 8.61941 16.9259C8.32967 16.6741 8.06206 16.3988 7.79131 16.127C7.69677 16.0322 7.60198 15.9376 7.50716 15.843C6.97373 15.3094 6.97373 15.3094 6.73194 15.0242C6.64653 14.9245 6.55408 14.8332 6.45996 14.7418C6.30447 14.588 6.15844 14.4302 6.01616 14.2642C5.89387 14.1245 5.76769 13.9886 5.64142 13.8524C5.43491 13.6293 5.23129 13.4045 5.03337 13.1737C5.00375 13.1393 5.00375 13.1393 4.97353 13.1042C4.80593 12.9093 4.63887 12.714 4.47208 12.5184C4.43762 12.478 4.43762 12.478 4.40247 12.4368C4.15872 12.1509 3.91736 11.8635 3.68405 11.5689C3.60705 11.4717 3.5297 11.3748 3.45201 11.2782C2.68699 10.326 1.94922 9.35046 1.2447 8.3525C1.22305 8.32193 1.20141 8.29137 1.17911 8.25987C0.246939 6.93394 -0.194957 5.42748 0.0814997 3.80253C0.266771 2.87017 0.659575 1.99955 1.29147 1.28449C1.32572 1.24515 1.35997 1.20581 1.39525 1.16528C1.49943 1.04746 1.60541 0.931644 1.71243 0.816414C1.74325 0.782504 1.77406 0.748594 1.8058 0.713656C2.24458 0.248934 2.77311 -0.00819601 3.41383 0.00019931Z" fill="#BCCCFC"/>
</svg>
