<svg width="26" height="26" viewBox="0 0 26 26" fill="none" xmlns="http://www.w3.org/2000/svg">
<path d="M10.6497 0.0116243C10.7057 0.0112839 10.7618 0.0109435 10.8196 0.0105928C11.0049 0.00963011 11.1903 0.00943194 11.3756 0.00932299C11.5046 0.00899726 11.6336 0.00865628 11.7626 0.00830067C12.033 0.00769371 12.3034 0.007506 12.5738 0.00756603C12.9199 0.00763357 13.266 0.00619291 13.6122 0.004447C13.8786 0.00331878 14.145 0.00311447 14.4115 0.00316804C14.5391 0.00304858 14.6667 0.00260107 14.7942 0.00181669C14.9729 0.00082117 15.1515 0.00111593 15.3302 0.00172602C15.3827 0.00115643 15.4351 0.000586847 15.4892 0C15.8621 0.00322814 16.1416 0.0769074 16.4272 0.317557C16.4504 0.345844 16.4735 0.374132 16.4974 0.403276C16.5333 0.445512 16.5333 0.445512 16.57 0.4886C16.7081 0.695178 16.7561 0.906494 16.7921 1.14816C16.8015 1.20971 16.8108 1.27126 16.8205 1.33467C16.835 1.43366 16.835 1.43366 16.8498 1.53465C16.8601 1.60336 16.8704 1.67207 16.8808 1.74077C16.9023 1.88435 16.9237 2.02795 16.9449 2.17158C16.9721 2.35584 16.9996 2.54005 17.0273 2.72425C17.0537 2.89995 17.0799 3.07569 17.1061 3.25142C17.1136 3.30179 17.1136 3.30179 17.1213 3.35317C17.1354 3.4479 17.1494 3.54265 17.1634 3.63739C17.1754 3.71829 17.1754 3.71829 17.1876 3.80082C17.2046 3.92866 17.2046 3.92866 17.2046 4.03002C17.2483 4.04289 17.292 4.05576 17.3371 4.06902C17.5311 4.1366 17.7086 4.2228 17.8892 4.31826C17.9233 4.33582 17.9573 4.35338 17.9924 4.37148C18.2517 4.50729 18.487 4.664 18.7175 4.84307C19.0847 4.96323 19.5968 4.66343 19.941 4.52692C19.9918 4.50701 20.0425 4.48709 20.0948 4.46658C20.2551 4.40362 20.4153 4.34037 20.5755 4.27708C20.737 4.21351 20.8985 4.14999 21.0601 4.08651C21.1602 4.04715 21.2602 4.00773 21.3603 3.96823C21.4053 3.95046 21.4504 3.93269 21.4969 3.91439C21.5365 3.89875 21.576 3.88312 21.6168 3.86701C21.9514 3.73918 22.3274 3.71812 22.677 3.80949C23.1601 4.02336 23.3941 4.50888 23.6414 4.93909C23.693 5.0277 23.7446 5.11631 23.7963 5.20489C23.8315 5.26526 23.8667 5.32565 23.9018 5.38607C24.0719 5.67885 24.2457 5.96948 24.42 6.25992C24.6794 6.69336 24.9379 7.12725 25.1954 7.56175C25.2267 7.61437 25.258 7.66699 25.2902 7.72121C25.3816 7.87563 25.4721 8.0305 25.562 8.18574C25.5955 8.24354 25.6291 8.30135 25.6636 8.36091C25.6964 8.41867 25.7292 8.47643 25.763 8.53594C25.7927 8.58807 25.8224 8.64021 25.8531 8.69393C26.0022 9.00455 26.0165 9.3104 25.9254 9.6396C25.7287 10.1189 25.295 10.3982 24.8848 10.696C24.6944 10.8356 24.5072 10.979 24.3194 11.122C24.2836 11.1492 24.2478 11.1763 24.2109 11.2044C24.1351 11.2619 24.0599 11.3203 23.9853 11.3793C23.8787 11.458 23.7748 11.5251 23.6611 11.5927C23.3833 11.7663 23.1324 11.9251 23.0516 12.2527C23.0137 12.5013 23.0176 12.7466 23.0282 12.9971C23.0291 13.0406 23.0299 13.084 23.0308 13.1288C23.0339 13.6974 23.0339 13.6974 23.2675 14.2011C23.4222 14.339 23.5974 14.4284 23.7864 14.5144C23.99 14.6156 24.161 14.7589 24.3389 14.8976C24.4125 14.9526 24.4861 15.0074 24.5599 15.0621C24.7891 15.2338 25.0157 15.4082 25.2408 15.5849C25.2925 15.6251 25.2925 15.6251 25.3452 15.666C25.7382 15.9768 25.9357 16.2795 26 16.7727C25.938 17.2654 25.6417 17.6978 25.3901 18.1189C25.353 18.1814 25.316 18.244 25.2791 18.3066C25.2031 18.4349 25.127 18.5632 25.0507 18.6914C24.9139 18.9213 24.778 19.1518 24.6421 19.3823C24.5466 19.5442 24.4508 19.7059 24.3549 19.8675C24.2372 20.0664 24.1202 20.2656 24.0041 20.4654C23.9518 20.5554 23.8993 20.6454 23.8468 20.7353C23.7812 20.8477 23.716 20.9602 23.651 21.0729C23.0847 22.0409 23.0847 22.0409 22.5941 22.2129C22.0227 22.3623 21.4661 22.0969 20.9437 21.8842C20.8284 21.8383 20.7131 21.7924 20.5978 21.7464C20.4184 21.6744 20.2391 21.6022 20.0599 21.5299C19.8854 21.4596 19.7105 21.39 19.5357 21.3204C19.4819 21.2985 19.4282 21.2765 19.3728 21.2539C19.2979 21.2242 19.2979 21.2242 19.2215 21.1939C19.1558 21.1674 19.1558 21.1674 19.0889 21.1404C18.922 21.0965 18.8208 21.1286 18.672 21.2071C18.6422 21.2262 18.6125 21.2452 18.5819 21.2648C18.5482 21.286 18.5146 21.3071 18.4799 21.329C18.4268 21.3628 18.4268 21.3628 18.3726 21.3972C17.4534 21.9705 17.4534 21.9705 17.2046 21.9705C17.2004 22.0012 17.1962 22.0319 17.1919 22.0635C17.1475 22.3868 17.1028 22.7099 17.058 23.0331C17.0413 23.1532 17.0247 23.2734 17.0083 23.3936C16.7281 25.437 16.7281 25.437 16.2901 25.7881C16.087 25.9282 15.9153 25.9804 15.6703 25.9817C15.5975 25.9822 15.5975 25.9822 15.5232 25.9828C15.4435 25.983 15.4435 25.983 15.3621 25.9832C15.3061 25.9835 15.25 25.9839 15.1922 25.9842C15.0063 25.9852 14.8204 25.9858 14.6345 25.9863C14.5711 25.9865 14.5076 25.9867 14.4422 25.9869C14.1061 25.988 13.7701 25.9887 13.434 25.9892C13.156 25.9896 12.8779 25.9907 12.5998 25.9923C12.2641 25.9942 11.9283 25.9952 11.5926 25.9954C11.4647 25.9957 11.3368 25.9963 11.2089 25.9972C11.0298 25.9984 10.8506 25.9984 10.6715 25.998C10.6188 25.9987 10.5662 25.9993 10.512 26C10.1383 25.9973 9.85897 25.9241 9.57278 25.683C9.54963 25.6547 9.52647 25.6264 9.50262 25.5973C9.47867 25.5691 9.45471 25.541 9.43003 25.512C9.29003 25.3026 9.24718 25.1016 9.22517 24.855C9.21934 24.7939 9.21351 24.7328 9.20751 24.6699C9.20125 24.6042 9.19498 24.5385 9.18853 24.4709C9.16921 24.2946 9.14847 24.1185 9.12776 23.9424C9.10647 23.759 9.087 23.5758 9.07149 23.3918C9.03139 22.5888 9.03139 22.5888 8.68011 21.9015C8.41721 21.7146 8.13524 21.6053 7.82773 21.5078C7.61564 21.4315 7.46373 21.303 7.29182 21.162C7.13898 21.0853 7.04056 21.1249 6.87472 21.1597C6.78336 21.1896 6.69293 21.2224 6.60358 21.2577C6.55214 21.2778 6.5007 21.2979 6.44771 21.3186C6.39303 21.3404 6.33836 21.3622 6.28202 21.3846C6.22522 21.4069 6.16842 21.4292 6.1099 21.4522C5.9289 21.5233 5.74808 21.5949 5.56726 21.6665C5.38585 21.738 5.2044 21.8094 5.02294 21.8808C4.91014 21.9252 4.79737 21.9697 4.68463 22.0143C4.63369 22.0344 4.58274 22.0545 4.53025 22.0753C4.48543 22.093 4.44061 22.1107 4.39443 22.129C4.05514 22.2593 3.67831 22.284 3.323 22.1911C2.84224 21.9782 2.60825 21.496 2.36187 21.0678C2.31036 20.9795 2.25885 20.8911 2.2073 20.8028C2.15415 20.7116 2.10117 20.6203 2.04821 20.529C1.88519 20.2484 1.71945 19.9693 1.55403 19.69C1.48974 19.5812 1.42546 19.4723 1.3612 19.3635C1.24319 19.1638 1.12507 18.9642 1.00676 18.7646C0.953951 18.6755 0.901167 18.5864 0.84839 18.4973C0.782547 18.3862 0.716651 18.275 0.650689 18.1639C0.561957 18.0141 0.473851 17.8639 0.386074 17.7135C0.35644 17.6631 0.326805 17.6127 0.296273 17.5607C0.26816 17.512 0.240048 17.4632 0.211084 17.413C0.186029 17.3698 0.160973 17.3266 0.135159 17.2821C-0.030142 16.9377 0.00105235 16.5938 0.126529 16.2438C0.36971 15.7963 0.839054 15.5139 1.24318 15.2133C1.50956 15.015 1.77606 14.8155 2.03414 14.607C2.13169 14.5349 2.22798 14.4743 2.33231 14.4125C2.6108 14.2384 2.86718 14.0765 2.94963 13.7484C2.9883 13.5008 2.98505 13.2562 2.97504 13.0066C2.97391 12.9416 2.97391 12.9416 2.97276 12.8753C2.96703 12.2959 2.96703 12.2959 2.71915 11.7864C2.55296 11.6371 2.36633 11.5347 2.16437 11.4381C1.96984 11.3393 1.80404 11.206 1.63189 11.0745C1.56359 11.0246 1.49519 10.975 1.42669 10.9254C1.20185 10.7607 0.981393 10.5909 0.762416 10.4188C0.727754 10.3918 0.693093 10.3649 0.657381 10.3371C0.26349 10.025 0.0645232 9.72279 0 9.22783C0.0622443 8.73299 0.360591 8.29827 0.613177 7.87532C0.650341 7.81253 0.687477 7.74971 0.724586 7.68688C0.836218 7.49814 0.948502 7.30978 1.06089 7.12147C1.09297 7.06764 1.12505 7.01381 1.1581 6.95834C1.27707 6.75875 1.39616 6.55923 1.51568 6.35995C1.67667 6.09149 1.8366 5.82248 1.99506 5.55258C2.01245 5.52299 2.02985 5.49339 2.04778 5.46289C2.13171 5.3201 2.21551 5.17722 2.29902 5.03418C2.82876 4.13254 2.82876 4.13254 3.09508 3.954C3.14597 3.91873 3.14597 3.91873 3.19789 3.88274C3.47942 3.71864 3.80808 3.74619 4.12353 3.77663C4.38806 3.84674 4.63702 3.94579 4.88919 4.04903C4.95919 4.07664 5.02924 4.10413 5.09933 4.13152C5.31104 4.21458 5.52191 4.29956 5.73272 4.38478C5.92112 4.46065 6.10964 4.53623 6.2984 4.61128C6.41002 4.65577 6.52138 4.70087 6.63246 4.74664C6.68209 4.76657 6.73173 4.7865 6.78286 4.80704C6.8259 4.82467 6.86894 4.84229 6.91328 4.86046C7.08602 4.90633 7.18305 4.86972 7.33754 4.78879C7.37163 4.76764 7.40573 4.74648 7.44085 4.72469C7.49887 4.68926 7.49887 4.68926 7.55805 4.65312C7.63728 4.60404 7.71649 4.55494 7.7957 4.50584C7.83491 4.48189 7.87413 4.45795 7.91452 4.43328C7.95298 4.40948 7.99143 4.38568 8.03105 4.36116C8.17245 4.28342 8.17245 4.28342 8.32842 4.22698C8.66058 4.10234 8.66058 4.10234 8.86674 3.83356C8.90916 3.6475 8.93279 3.46634 8.95109 3.27656C8.9599 3.20749 8.96899 3.13845 8.97835 3.06944C9.00224 2.88836 9.02283 2.70707 9.04259 2.52553C9.0748 2.23538 9.11228 1.94583 9.14928 1.65623C9.16169 1.55573 9.17274 1.45507 9.18376 1.35442C9.23296 0.938836 9.29276 0.538361 9.64861 0.26074C9.67745 0.237353 9.7063 0.213965 9.73601 0.189868C10.0311 0.00179614 10.3076 0.0113266 10.6497 0.0116243ZM10.0412 9.80748C10.0016 9.84125 9.96209 9.87503 9.92134 9.90983C9.10338 10.6558 8.64745 11.7456 8.57961 12.8253C8.54189 13.9609 8.96415 15.0393 9.72972 15.889C9.78162 15.9469 9.78162 15.9469 9.83456 16.006C10.5908 16.7964 11.7055 17.25 12.8019 17.3183C13.9818 17.3349 15.0685 16.9577 15.9588 16.1931C15.9984 16.1593 16.0379 16.1255 16.0787 16.0907C16.8882 15.3524 17.3529 14.2641 17.4228 13.1937C17.4398 12.0417 17.0535 10.9808 16.2703 10.1116C16.2357 10.0729 16.2011 10.0343 16.1654 9.99456C15.4092 9.20417 14.2945 8.75053 13.1981 8.68224C12.0182 8.66564 10.9315 9.04284 10.0412 9.80748Z" fill="#5B82F9"/>
</svg>
