<svg width="78" height="13" viewBox="0 0 78 13" fill="none" xmlns="http://www.w3.org/2000/svg">
<path d="M6.8219 0.0633634C6.86251 0.0884424 6.86251 0.0884424 6.90748 0.124461C6.93151 0.143153 6.95553 0.161844 6.98028 0.181102C7.06456 0.254795 7.11129 0.340139 7.1571 0.443161C7.16558 0.461537 7.17406 0.479913 7.1828 0.498847C7.27792 0.707869 7.36374 0.921193 7.44893 1.13476C7.50059 1.26424 7.55274 1.39351 7.60482 1.5228C7.61589 1.55028 7.62695 1.57777 7.63834 1.60609C7.78987 1.98215 7.94471 2.35673 8.09923 2.73146C8.27812 3.16529 8.45569 3.59967 8.63181 4.03472C8.81792 4.05333 9.00403 4.07187 9.19015 4.0904C9.2596 4.09731 9.32904 4.10425 9.39849 4.11119C9.84493 4.15586 10.2915 4.19932 10.7382 4.24104C10.887 4.25497 11.0358 4.26905 11.1846 4.28312C11.3311 4.29695 11.4776 4.31053 11.6241 4.32394C11.7166 4.33245 11.809 4.34121 11.9014 4.35003C11.9445 4.35409 11.9876 4.35806 12.0308 4.36191C12.6171 4.41447 12.6171 4.41447 12.8412 4.6424C12.9997 4.85873 13.0121 5.06404 12.9934 5.32933C12.9535 5.49181 12.8805 5.58418 12.7651 5.69922C12.7515 5.71287 12.7378 5.72651 12.7237 5.74057C12.5464 5.91683 12.367 6.08745 12.1754 6.24683C12.0944 6.31677 12.0177 6.39054 11.941 6.46542C11.8208 6.58269 11.697 6.69242 11.5686 6.79981C11.4724 6.88335 11.3815 6.97232 11.2902 7.0615C11.2058 7.14332 11.1197 7.22096 11.0297 7.29602C10.9188 7.38873 10.8146 7.48681 10.7112 7.5883C10.6066 7.69083 10.5013 7.78995 10.3894 7.88388C10.3565 7.91183 10.3565 7.91183 10.323 7.94034C10.2873 7.97039 10.2515 8.00039 10.2153 8.02967C10.175 8.0624 10.1356 8.09605 10.0962 8.12993C10.0726 8.14954 10.0489 8.16916 10.0245 8.18937C9.95467 8.29351 9.98158 8.38072 10.0011 8.49982C10.0222 8.61077 10.0462 8.72088 10.0707 8.83105C10.0778 8.86343 10.0849 8.89582 10.0922 8.92918C10.1115 9.01736 10.131 9.10551 10.1505 9.19365C10.171 9.28629 10.1913 9.37897 10.2117 9.47164C10.2502 9.6471 10.2889 9.82253 10.3276 9.99794C10.3758 10.2163 10.4239 10.4348 10.4719 10.6532C10.521 10.8764 10.5701 11.0996 10.6193 11.3228C10.6269 11.3572 10.6344 11.3915 10.642 11.4259C10.6559 11.489 10.6699 11.5522 10.6838 11.6154C10.7014 11.6953 10.719 11.7753 10.7365 11.8552C10.7416 11.8785 10.7467 11.9017 10.752 11.9256C10.7566 11.9467 10.7612 11.9679 10.7659 11.9896C10.7698 12.0077 10.7738 12.0259 10.7779 12.0445C10.8296 12.3126 10.7725 12.5375 10.6303 12.7618C10.4763 12.9152 10.3086 12.9941 10.0962 12.9979C10.0736 12.9986 10.051 12.9993 10.0277 13C9.63663 12.9561 9.24831 12.6164 8.92095 12.4082C8.68874 12.2606 8.45537 12.1152 8.22134 11.9708C8.15279 11.9285 8.08424 11.8862 8.0157 11.8439C7.99908 11.8336 7.98246 11.8234 7.96533 11.8128C7.80734 11.7152 7.64978 11.6169 7.4923 11.5184C7.46718 11.5027 7.44206 11.4871 7.41618 11.471C7.29548 11.3957 7.17525 11.3199 7.05601 11.2421C7.0122 11.2136 6.96828 11.1853 6.92432 11.157C6.86898 11.1214 6.81385 11.0853 6.75896 11.0489C6.73413 11.033 6.7093 11.0171 6.68372 11.0007C6.66199 10.9865 6.64027 10.9723 6.61788 10.9576C6.53272 10.9223 6.48795 10.9309 6.40033 10.9569C6.32908 10.9926 6.32908 10.9926 6.25868 11.0401C6.23132 11.0577 6.20396 11.0753 6.17577 11.0934C6.15403 11.1076 6.15403 11.1076 6.13185 11.1222C6.06935 11.163 6.00651 11.2033 5.94369 11.2436C5.91037 11.265 5.87707 11.2864 5.84378 11.3079C5.67565 11.416 5.50578 11.521 5.33565 11.6257C5.06232 11.7938 4.79005 11.9637 4.51909 12.136C4.24011 12.3133 3.95907 12.4867 3.67662 12.6579C3.49475 12.7683 3.49475 12.7683 3.31539 12.8831C3.13989 12.9978 2.97813 13.013 2.77416 12.9913C2.5957 12.9432 2.43596 12.8602 2.33198 12.696C2.16915 12.4019 2.20074 12.1138 2.2744 11.7919C2.28058 11.7636 2.28677 11.7353 2.29314 11.7062C2.3135 11.6135 2.33433 11.5209 2.35516 11.4283C2.36961 11.3629 2.38403 11.2976 2.39841 11.2322C2.43248 11.0777 2.46683 10.9234 2.50133 10.7691C2.54378 10.5791 2.58582 10.389 2.62786 10.1989C2.67107 10.0036 2.7143 9.80825 2.75783 9.61298C2.79062 9.4659 2.82316 9.31875 2.85556 9.17158C2.86949 9.10862 2.88354 9.04569 2.89768 8.98278C2.91975 8.88451 2.9415 8.78617 2.96319 8.68781C2.97005 8.65766 2.97691 8.62751 2.98397 8.59645C2.99009 8.56839 2.99622 8.54034 3.00253 8.51144C3.00802 8.48681 3.01351 8.46218 3.01918 8.43681C3.02854 8.36121 3.02342 8.30843 3.00238 8.23561C2.94852 8.17045 2.94852 8.17045 2.87876 8.11011C2.86625 8.09868 2.85375 8.08725 2.84086 8.07547C2.73551 7.97994 2.62659 7.88897 2.51791 7.7976C2.40504 7.69921 2.29815 7.59437 2.19054 7.48984C2.07343 7.37612 1.95237 7.26747 1.83057 7.15928C1.80013 7.13221 1.76968 7.10513 1.73925 7.07805C1.72387 7.06439 1.7085 7.05072 1.69267 7.03664C1.59779 6.95196 1.50472 6.86564 1.41276 6.77752C1.32467 6.69324 1.23496 6.61284 1.14175 6.53478C1.03517 6.44524 0.934148 6.35149 0.834288 6.25406C0.674034 6.09774 0.506491 5.95214 0.333472 5.81131C0.183819 5.68432 0.0958698 5.53436 0.0101597 5.35576C-0.00953898 5.10477 -0.0155781 4.87845 0.136949 4.66882C0.26918 4.51855 0.423345 4.42858 0.619001 4.40426C0.634893 4.40226 0.650786 4.40026 0.66716 4.3982C0.960687 4.36281 1.25536 4.33728 1.54964 4.30968C1.64109 4.30108 1.73254 4.29239 1.82398 4.2837C1.99678 4.26729 2.16959 4.25096 2.3424 4.23467C2.65211 4.20547 2.96182 4.17615 3.27153 4.14678C3.37998 4.13649 3.48844 4.12625 3.5969 4.11604C3.6481 4.11122 3.69929 4.10638 3.75049 4.10153C3.81266 4.09565 3.87484 4.08979 3.93702 4.08396C3.99083 4.07885 4.04463 4.07357 4.09841 4.06806C4.14269 4.06371 4.18703 4.06 4.23143 4.05722C4.33454 4.05017 4.33454 4.05017 4.41414 3.98734C4.42222 3.96651 4.43029 3.94569 4.43861 3.92423C4.44833 3.90039 4.45805 3.87655 4.46807 3.85198C4.47785 3.82561 4.48763 3.79924 4.4977 3.77206C4.51421 3.73064 4.51421 3.73064 4.53105 3.68838C4.56744 3.59661 4.60268 3.50442 4.63796 3.41218C4.66326 3.34789 4.68864 3.28363 4.71411 3.21941C4.75394 3.11892 4.7937 3.0184 4.83306 2.91771C4.92572 2.68078 5.02071 2.44499 5.11768 2.20994C5.12437 2.19373 5.13106 2.17751 5.13795 2.1608C5.17124 2.08015 5.20458 1.99953 5.23794 1.91891C5.28736 1.79941 5.33658 1.67983 5.38577 1.56024C5.4092 1.50329 5.43268 1.44637 5.4562 1.38946C5.51261 1.25292 5.56858 1.11622 5.62334 0.978956C5.65024 0.911599 5.67736 0.844336 5.70448 0.777078C5.72347 0.729745 5.74216 0.682282 5.76085 0.634816C5.84299 0.431524 5.93312 0.212495 6.12615 0.0996919C6.14272 0.0896448 6.15929 0.0795977 6.17637 0.0692462C6.34865 -0.0199316 6.6482 -0.0241279 6.8219 0.0633634Z" fill="#FEC006"/>
<path d="M22.8219 0.0633634C22.8625 0.0884424 22.8625 0.0884424 22.9075 0.124461C22.9315 0.143153 22.9555 0.161844 22.9803 0.181102C23.0646 0.254795 23.1113 0.340139 23.1571 0.443161C23.1656 0.461537 23.1741 0.479913 23.1828 0.498847C23.2779 0.707869 23.3637 0.921193 23.4489 1.13476C23.5006 1.26424 23.5527 1.39351 23.6048 1.5228C23.6159 1.55028 23.6269 1.57777 23.6383 1.60609C23.7899 1.98215 23.9447 2.35673 24.0992 2.73146C24.2781 3.16529 24.4557 3.59967 24.6318 4.03472C24.8179 4.05333 25.004 4.07187 25.1901 4.0904C25.2596 4.09731 25.329 4.10425 25.3985 4.11119C25.8449 4.15586 26.2915 4.19932 26.7382 4.24104C26.887 4.25497 27.0358 4.26905 27.1846 4.28312C27.3311 4.29695 27.4776 4.31053 27.6241 4.32394C27.7166 4.33245 27.809 4.34121 27.9014 4.35003C27.9445 4.35409 27.9876 4.35806 28.0308 4.36191C28.6171 4.41447 28.6171 4.41447 28.8412 4.6424C28.9997 4.85873 29.0121 5.06404 28.9934 5.32933C28.9535 5.49181 28.8805 5.58418 28.7651 5.69922C28.7515 5.71287 28.7378 5.72651 28.7237 5.74057C28.5464 5.91683 28.367 6.08745 28.1754 6.24683C28.0944 6.31677 28.0177 6.39054 27.941 6.46542C27.8208 6.58269 27.697 6.69242 27.5686 6.79981C27.4724 6.88335 27.3815 6.97232 27.2902 7.0615C27.2058 7.14332 27.1197 7.22096 27.0297 7.29602C26.9188 7.38873 26.8146 7.48681 26.7112 7.5883C26.6066 7.69083 26.5013 7.78995 26.3894 7.88388C26.3565 7.91183 26.3565 7.91183 26.323 7.94034C26.2873 7.97039 26.2515 8.00039 26.2153 8.02967C26.175 8.0624 26.1356 8.09605 26.0962 8.12993C26.0726 8.14954 26.0489 8.16916 26.0245 8.18937C25.9547 8.29351 25.9816 8.38072 26.0011 8.49982C26.0222 8.61077 26.0462 8.72088 26.0707 8.83105C26.0778 8.86343 26.0849 8.89582 26.0922 8.92918C26.1115 9.01736 26.131 9.10551 26.1505 9.19365C26.171 9.28629 26.1913 9.37897 26.2117 9.47164C26.2502 9.6471 26.2889 9.82253 26.3276 9.99794C26.3758 10.2163 26.4239 10.4348 26.4719 10.6532C26.521 10.8764 26.5701 11.0996 26.6193 11.3228C26.6269 11.3572 26.6344 11.3915 26.642 11.4259C26.6559 11.489 26.6699 11.5522 26.6838 11.6154C26.7014 11.6953 26.719 11.7753 26.7365 11.8552C26.7416 11.8785 26.7467 11.9017 26.752 11.9256C26.7566 11.9467 26.7612 11.9679 26.7659 11.9896C26.7698 12.0077 26.7738 12.0259 26.7779 12.0445C26.8296 12.3126 26.7725 12.5375 26.6303 12.7618C26.4763 12.9152 26.3086 12.9941 26.0962 12.9979C26.0736 12.9986 26.051 12.9993 26.0277 13C25.6366 12.9561 25.2483 12.6164 24.9209 12.4082C24.6887 12.2606 24.4554 12.1152 24.2213 11.9708C24.1528 11.9285 24.0842 11.8862 24.0157 11.8439C23.9991 11.8336 23.9825 11.8234 23.9653 11.8128C23.8073 11.7152 23.6498 11.6169 23.4923 11.5184C23.4672 11.5027 23.4421 11.4871 23.4162 11.471C23.2955 11.3957 23.1753 11.3199 23.056 11.2421C23.0122 11.2136 22.9683 11.1853 22.9243 11.157C22.869 11.1214 22.8138 11.0853 22.759 11.0489C22.7341 11.033 22.7093 11.0171 22.6837 11.0007C22.662 10.9865 22.6403 10.9723 22.6179 10.9576C22.5327 10.9223 22.4879 10.9309 22.4003 10.9569C22.3291 10.9926 22.3291 10.9926 22.2587 11.0401C22.2313 11.0577 22.204 11.0753 22.1758 11.0934C22.154 11.1076 22.154 11.1076 22.1319 11.1222C22.0694 11.163 22.0065 11.2033 21.9437 11.2436C21.9104 11.265 21.8771 11.2864 21.8438 11.3079C21.6757 11.416 21.5058 11.521 21.3357 11.6257C21.0623 11.7938 20.7901 11.9637 20.5191 12.136C20.2401 12.3133 19.9591 12.4867 19.6766 12.6579C19.4948 12.7683 19.4948 12.7683 19.3154 12.8831C19.1399 12.9978 18.9781 13.013 18.7742 12.9913C18.5957 12.9432 18.436 12.8602 18.332 12.696C18.1692 12.4019 18.2007 12.1138 18.2744 11.7919C18.2806 11.7636 18.2868 11.7353 18.2931 11.7062C18.3135 11.6135 18.3343 11.5209 18.3552 11.4283C18.3696 11.3629 18.384 11.2976 18.3984 11.2322C18.4325 11.0777 18.4668 10.9234 18.5013 10.7691C18.5438 10.5791 18.5858 10.389 18.6279 10.1989C18.6711 10.0036 18.7143 9.80825 18.7578 9.61298C18.7906 9.4659 18.8232 9.31875 18.8556 9.17158C18.8695 9.10862 18.8835 9.04569 18.8977 8.98278C18.9197 8.88451 18.9415 8.78617 18.9632 8.68781C18.97 8.65766 18.9769 8.62751 18.984 8.59645C18.9901 8.56839 18.9962 8.54034 19.0025 8.51144C19.008 8.48681 19.0135 8.46218 19.0192 8.43681C19.0285 8.36121 19.0234 8.30843 19.0024 8.23561C18.9485 8.17045 18.9485 8.17045 18.8788 8.11011C18.8663 8.09868 18.8537 8.08725 18.8409 8.07547C18.7355 7.97994 18.6266 7.88897 18.5179 7.7976C18.405 7.69921 18.2982 7.59437 18.1905 7.48984C18.0734 7.37612 17.9524 7.26747 17.8306 7.15928C17.8001 7.13221 17.7697 7.10513 17.7392 7.07805C17.7239 7.06439 17.7085 7.05072 17.6927 7.03664C17.5978 6.95196 17.5047 6.86564 17.4128 6.77752C17.3247 6.69324 17.235 6.61284 17.1418 6.53478C17.0352 6.44524 16.9341 6.35149 16.8343 6.25406C16.674 6.09774 16.5065 5.95214 16.3335 5.81131C16.1838 5.68432 16.0959 5.53436 16.0102 5.35576C15.9905 5.10477 15.9844 4.87845 16.1369 4.66882C16.2692 4.51855 16.4233 4.42858 16.619 4.40426C16.6349 4.40226 16.6508 4.40026 16.6672 4.3982C16.9607 4.36281 17.2554 4.33728 17.5496 4.30968C17.6411 4.30108 17.7325 4.29239 17.824 4.2837C17.9968 4.26729 18.1696 4.25096 18.3424 4.23467C18.6521 4.20547 18.9618 4.17615 19.2715 4.14678C19.38 4.13649 19.4884 4.12625 19.5969 4.11604C19.6481 4.11122 19.6993 4.10638 19.7505 4.10153C19.8127 4.09565 19.8748 4.08979 19.937 4.08396C19.9908 4.07885 20.0446 4.07357 20.0984 4.06806C20.1427 4.06371 20.187 4.06 20.2314 4.05722C20.3345 4.05017 20.3345 4.05017 20.4141 3.98734C20.4222 3.96651 20.4303 3.94569 20.4386 3.92423C20.4483 3.90039 20.4581 3.87655 20.4681 3.85198C20.4778 3.82561 20.4876 3.79924 20.4977 3.77206C20.5142 3.73064 20.5142 3.73064 20.5311 3.68838C20.5674 3.59661 20.6027 3.50442 20.638 3.41218C20.6633 3.34789 20.6886 3.28363 20.7141 3.21941C20.7539 3.11892 20.7937 3.0184 20.8331 2.91771C20.9257 2.68078 21.0207 2.44499 21.1177 2.20994C21.1244 2.19373 21.1311 2.17751 21.1379 2.1608C21.1712 2.08015 21.2046 1.99953 21.2379 1.91891C21.2874 1.79941 21.3366 1.67983 21.3858 1.56024C21.4092 1.50329 21.4327 1.44637 21.4562 1.38946C21.5126 1.25292 21.5686 1.11622 21.6233 0.978956C21.6502 0.911599 21.6774 0.844336 21.7045 0.777078C21.7235 0.729745 21.7422 0.682282 21.7608 0.634816C21.843 0.431524 21.9331 0.212495 22.1261 0.0996919C22.1427 0.0896448 22.1593 0.0795977 22.1764 0.0692462C22.3486 -0.0199316 22.6482 -0.0241279 22.8219 0.0633634Z" fill="#FEC006"/>
<path d="M38.8219 0.0633634C38.8625 0.0884424 38.8625 0.0884424 38.9075 0.124461C38.9315 0.143153 38.9555 0.161844 38.9803 0.181102C39.0646 0.254795 39.1113 0.340139 39.1571 0.443161C39.1656 0.461537 39.1741 0.479913 39.1828 0.498847C39.2779 0.707869 39.3637 0.921193 39.4489 1.13476C39.5006 1.26424 39.5527 1.39351 39.6048 1.5228C39.6159 1.55028 39.6269 1.57777 39.6383 1.60609C39.7899 1.98215 39.9447 2.35673 40.0992 2.73146C40.2781 3.16529 40.4557 3.59967 40.6318 4.03472C40.8179 4.05333 41.004 4.07187 41.1901 4.0904C41.2596 4.09731 41.329 4.10425 41.3985 4.11119C41.8449 4.15586 42.2915 4.19932 42.7382 4.24104C42.887 4.25497 43.0358 4.26905 43.1846 4.28312C43.3311 4.29695 43.4776 4.31053 43.6241 4.32394C43.7166 4.33245 43.809 4.34121 43.9014 4.35003C43.9445 4.35409 43.9876 4.35806 44.0308 4.36191C44.6171 4.41447 44.6171 4.41447 44.8412 4.6424C44.9997 4.85873 45.0121 5.06404 44.9934 5.32933C44.9535 5.49181 44.8805 5.58418 44.7651 5.69922C44.7515 5.71287 44.7378 5.72651 44.7237 5.74057C44.5464 5.91683 44.367 6.08745 44.1754 6.24683C44.0944 6.31677 44.0177 6.39054 43.941 6.46542C43.8208 6.58269 43.697 6.69242 43.5686 6.79981C43.4724 6.88335 43.3815 6.97232 43.2902 7.0615C43.2058 7.14332 43.1197 7.22096 43.0297 7.29602C42.9188 7.38873 42.8146 7.48681 42.7112 7.5883C42.6066 7.69083 42.5013 7.78995 42.3894 7.88388C42.3565 7.91183 42.3565 7.91183 42.323 7.94034C42.2873 7.97039 42.2515 8.00039 42.2153 8.02967C42.175 8.0624 42.1356 8.09605 42.0962 8.12993C42.0726 8.14954 42.0489 8.16916 42.0245 8.18937C41.9547 8.29351 41.9816 8.38072 42.0011 8.49982C42.0222 8.61077 42.0462 8.72088 42.0707 8.83105C42.0778 8.86343 42.0849 8.89582 42.0922 8.92918C42.1115 9.01736 42.131 9.10551 42.1505 9.19365C42.171 9.28629 42.1913 9.37897 42.2117 9.47164C42.2502 9.6471 42.2889 9.82253 42.3276 9.99794C42.3758 10.2163 42.4239 10.4348 42.4719 10.6532C42.521 10.8764 42.5701 11.0996 42.6193 11.3228C42.6269 11.3572 42.6344 11.3915 42.642 11.4259C42.6559 11.489 42.6699 11.5522 42.6838 11.6154C42.7014 11.6953 42.719 11.7753 42.7365 11.8552C42.7416 11.8785 42.7467 11.9017 42.752 11.9256C42.7566 11.9467 42.7612 11.9679 42.7659 11.9896C42.7698 12.0077 42.7738 12.0259 42.7779 12.0445C42.8296 12.3126 42.7725 12.5375 42.6303 12.7618C42.4763 12.9152 42.3086 12.9941 42.0962 12.9979C42.0736 12.9986 42.051 12.9993 42.0277 13C41.6366 12.9561 41.2483 12.6164 40.9209 12.4082C40.6887 12.2606 40.4554 12.1152 40.2213 11.9708C40.1528 11.9285 40.0842 11.8862 40.0157 11.8439C39.9991 11.8336 39.9825 11.8234 39.9653 11.8128C39.8073 11.7152 39.6498 11.6169 39.4923 11.5184C39.4672 11.5027 39.4421 11.4871 39.4162 11.471C39.2955 11.3957 39.1753 11.3199 39.056 11.2421C39.0122 11.2136 38.9683 11.1853 38.9243 11.157C38.869 11.1214 38.8138 11.0853 38.759 11.0489C38.7341 11.033 38.7093 11.0171 38.6837 11.0007C38.662 10.9865 38.6403 10.9723 38.6179 10.9576C38.5327 10.9223 38.4879 10.9309 38.4003 10.9569C38.3291 10.9926 38.3291 10.9926 38.2587 11.0401C38.2313 11.0577 38.204 11.0753 38.1758 11.0934C38.154 11.1076 38.154 11.1076 38.1319 11.1222C38.0694 11.163 38.0065 11.2033 37.9437 11.2436C37.9104 11.265 37.8771 11.2864 37.8438 11.3079C37.6757 11.416 37.5058 11.521 37.3357 11.6257C37.0623 11.7938 36.7901 11.9637 36.5191 12.136C36.2401 12.3133 35.9591 12.4867 35.6766 12.6579C35.4948 12.7683 35.4948 12.7683 35.3154 12.8831C35.1399 12.9978 34.9781 13.013 34.7742 12.9913C34.5957 12.9432 34.436 12.8602 34.332 12.696C34.1692 12.4019 34.2007 12.1138 34.2744 11.7919C34.2806 11.7636 34.2868 11.7353 34.2931 11.7062C34.3135 11.6135 34.3343 11.5209 34.3552 11.4283C34.3696 11.3629 34.384 11.2976 34.3984 11.2322C34.4325 11.0777 34.4668 10.9234 34.5013 10.7691C34.5438 10.5791 34.5858 10.389 34.6279 10.1989C34.6711 10.0036 34.7143 9.80825 34.7578 9.61298C34.7906 9.4659 34.8232 9.31875 34.8556 9.17158C34.8695 9.10862 34.8835 9.04569 34.8977 8.98278C34.9197 8.88451 34.9415 8.78617 34.9632 8.68781C34.97 8.65766 34.9769 8.62751 34.984 8.59645C34.9901 8.56839 34.9962 8.54034 35.0025 8.51144C35.008 8.48681 35.0135 8.46218 35.0192 8.43681C35.0285 8.36121 35.0234 8.30843 35.0024 8.23561C34.9485 8.17045 34.9485 8.17045 34.8788 8.11011C34.8663 8.09868 34.8537 8.08725 34.8409 8.07547C34.7355 7.97994 34.6266 7.88897 34.5179 7.7976C34.405 7.69921 34.2982 7.59437 34.1905 7.48984C34.0734 7.37612 33.9524 7.26747 33.8306 7.15928C33.8001 7.13221 33.7697 7.10513 33.7392 7.07805C33.7239 7.06439 33.7085 7.05072 33.6927 7.03664C33.5978 6.95196 33.5047 6.86564 33.4128 6.77752C33.3247 6.69324 33.235 6.61284 33.1418 6.53478C33.0352 6.44524 32.9341 6.35149 32.8343 6.25406C32.674 6.09774 32.5065 5.95214 32.3335 5.81131C32.1838 5.68432 32.0959 5.53436 32.0102 5.35576C31.9905 5.10477 31.9844 4.87845 32.1369 4.66882C32.2692 4.51855 32.4233 4.42858 32.619 4.40426C32.6349 4.40226 32.6508 4.40026 32.6672 4.3982C32.9607 4.36281 33.2554 4.33728 33.5496 4.30968C33.6411 4.30108 33.7325 4.29239 33.824 4.2837C33.9968 4.26729 34.1696 4.25096 34.3424 4.23467C34.6521 4.20547 34.9618 4.17615 35.2715 4.14678C35.38 4.13649 35.4884 4.12625 35.5969 4.11604C35.6481 4.11122 35.6993 4.10638 35.7505 4.10153C35.8127 4.09565 35.8748 4.08979 35.937 4.08396C35.9908 4.07885 36.0446 4.07357 36.0984 4.06806C36.1427 4.06371 36.187 4.06 36.2314 4.05722C36.3345 4.05017 36.3345 4.05017 36.4141 3.98734C36.4222 3.96651 36.4303 3.94569 36.4386 3.92423C36.4483 3.90039 36.4581 3.87655 36.4681 3.85198C36.4778 3.82561 36.4876 3.79924 36.4977 3.77206C36.5142 3.73064 36.5142 3.73064 36.5311 3.68838C36.5674 3.59661 36.6027 3.50442 36.638 3.41218C36.6633 3.34789 36.6886 3.28363 36.7141 3.21941C36.7539 3.11892 36.7937 3.0184 36.8331 2.91771C36.9257 2.68078 37.0207 2.44499 37.1177 2.20994C37.1244 2.19373 37.1311 2.17751 37.1379 2.1608C37.1712 2.08015 37.2046 1.99953 37.2379 1.91891C37.2874 1.79941 37.3366 1.67983 37.3858 1.56024C37.4092 1.50329 37.4327 1.44637 37.4562 1.38946C37.5126 1.25292 37.5686 1.11622 37.6233 0.978956C37.6502 0.911599 37.6774 0.844336 37.7045 0.777078C37.7235 0.729745 37.7422 0.682282 37.7608 0.634816C37.843 0.431524 37.9331 0.212495 38.1261 0.0996919C38.1427 0.0896448 38.1593 0.0795977 38.1764 0.0692462C38.3486 -0.0199316 38.6482 -0.0241279 38.8219 0.0633634Z" fill="#FEC006"/>
<path d="M54.8219 0.0633634C54.8625 0.0884424 54.8625 0.0884424 54.9075 0.124461C54.9315 0.143153 54.9555 0.161844 54.9803 0.181102C55.0646 0.254795 55.1113 0.340139 55.1571 0.443161C55.1656 0.461537 55.1741 0.479913 55.1828 0.498847C55.2779 0.707869 55.3637 0.921193 55.4489 1.13476C55.5006 1.26424 55.5527 1.39351 55.6048 1.5228C55.6159 1.55028 55.6269 1.57777 55.6383 1.60609C55.7899 1.98215 55.9447 2.35673 56.0992 2.73146C56.2781 3.16529 56.4557 3.59967 56.6318 4.03472C56.8179 4.05333 57.004 4.07187 57.1901 4.0904C57.2596 4.09731 57.329 4.10425 57.3985 4.11119C57.8449 4.15586 58.2915 4.19932 58.7382 4.24104C58.887 4.25497 59.0358 4.26905 59.1846 4.28312C59.3311 4.29695 59.4776 4.31053 59.6241 4.32394C59.7166 4.33245 59.809 4.34121 59.9014 4.35003C59.9445 4.35409 59.9876 4.35806 60.0308 4.36191C60.6171 4.41447 60.6171 4.41447 60.8412 4.6424C60.9997 4.85873 61.0121 5.06404 60.9934 5.32933C60.9535 5.49181 60.8805 5.58418 60.7651 5.69922C60.7515 5.71287 60.7378 5.72651 60.7237 5.74057C60.5464 5.91683 60.367 6.08745 60.1754 6.24683C60.0944 6.31677 60.0177 6.39054 59.941 6.46542C59.8208 6.58269 59.697 6.69242 59.5686 6.79981C59.4724 6.88335 59.3815 6.97232 59.2902 7.0615C59.2058 7.14332 59.1197 7.22096 59.0297 7.29602C58.9188 7.38873 58.8146 7.48681 58.7112 7.5883C58.6066 7.69083 58.5013 7.78995 58.3894 7.88388C58.3565 7.91183 58.3565 7.91183 58.323 7.94034C58.2873 7.97039 58.2515 8.00039 58.2153 8.02967C58.175 8.0624 58.1356 8.09605 58.0962 8.12993C58.0726 8.14954 58.0489 8.16916 58.0245 8.18937C57.9547 8.29351 57.9816 8.38072 58.0011 8.49982C58.0222 8.61077 58.0462 8.72088 58.0707 8.83105C58.0778 8.86343 58.0849 8.89582 58.0922 8.92918C58.1115 9.01736 58.131 9.10551 58.1505 9.19365C58.171 9.28629 58.1913 9.37897 58.2117 9.47164C58.2502 9.6471 58.2889 9.82253 58.3276 9.99794C58.3758 10.2163 58.4239 10.4348 58.4719 10.6532C58.521 10.8764 58.5701 11.0996 58.6193 11.3228C58.6269 11.3572 58.6344 11.3915 58.642 11.4259C58.6559 11.489 58.6699 11.5522 58.6838 11.6154C58.7014 11.6953 58.719 11.7753 58.7365 11.8552C58.7416 11.8785 58.7467 11.9017 58.752 11.9256C58.7566 11.9467 58.7612 11.9679 58.7659 11.9896C58.7698 12.0077 58.7738 12.0259 58.7779 12.0445C58.8296 12.3126 58.7725 12.5375 58.6303 12.7618C58.4763 12.9152 58.3086 12.9941 58.0962 12.9979C58.0736 12.9986 58.051 12.9993 58.0277 13C57.6366 12.9561 57.2483 12.6164 56.9209 12.4082C56.6887 12.2606 56.4554 12.1152 56.2213 11.9708C56.1528 11.9285 56.0842 11.8862 56.0157 11.8439C55.9991 11.8336 55.9825 11.8234 55.9653 11.8128C55.8073 11.7152 55.6498 11.6169 55.4923 11.5184C55.4672 11.5027 55.4421 11.4871 55.4162 11.471C55.2955 11.3957 55.1753 11.3199 55.056 11.2421C55.0122 11.2136 54.9683 11.1853 54.9243 11.157C54.869 11.1214 54.8138 11.0853 54.759 11.0489C54.7341 11.033 54.7093 11.0171 54.6837 11.0007C54.662 10.9865 54.6403 10.9723 54.6179 10.9576C54.5327 10.9223 54.4879 10.9309 54.4003 10.9569C54.3291 10.9926 54.3291 10.9926 54.2587 11.0401C54.2313 11.0577 54.204 11.0753 54.1758 11.0934C54.154 11.1076 54.154 11.1076 54.1319 11.1222C54.0694 11.163 54.0065 11.2033 53.9437 11.2436C53.9104 11.265 53.8771 11.2864 53.8438 11.3079C53.6757 11.416 53.5058 11.521 53.3357 11.6257C53.0623 11.7938 52.7901 11.9637 52.5191 12.136C52.2401 12.3133 51.9591 12.4867 51.6766 12.6579C51.4948 12.7683 51.4948 12.7683 51.3154 12.8831C51.1399 12.9978 50.9781 13.013 50.7742 12.9913C50.5957 12.9432 50.436 12.8602 50.332 12.696C50.1692 12.4019 50.2007 12.1138 50.2744 11.7919C50.2806 11.7636 50.2868 11.7353 50.2931 11.7062C50.3135 11.6135 50.3343 11.5209 50.3552 11.4283C50.3696 11.3629 50.384 11.2976 50.3984 11.2322C50.4325 11.0777 50.4668 10.9234 50.5013 10.7691C50.5438 10.5791 50.5858 10.389 50.6279 10.1989C50.6711 10.0036 50.7143 9.80825 50.7578 9.61298C50.7906 9.4659 50.8232 9.31875 50.8556 9.17158C50.8695 9.10862 50.8835 9.04569 50.8977 8.98278C50.9197 8.88451 50.9415 8.78617 50.9632 8.68781C50.97 8.65766 50.9769 8.62751 50.984 8.59645C50.9901 8.56839 50.9962 8.54034 51.0025 8.51144C51.008 8.48681 51.0135 8.46218 51.0192 8.43681C51.0285 8.36121 51.0234 8.30843 51.0024 8.23561C50.9485 8.17045 50.9485 8.17045 50.8788 8.11011C50.8663 8.09868 50.8537 8.08725 50.8409 8.07547C50.7355 7.97994 50.6266 7.88897 50.5179 7.7976C50.405 7.69921 50.2982 7.59437 50.1905 7.48984C50.0734 7.37612 49.9524 7.26747 49.8306 7.15928C49.8001 7.13221 49.7697 7.10513 49.7392 7.07805C49.7239 7.06439 49.7085 7.05072 49.6927 7.03664C49.5978 6.95196 49.5047 6.86564 49.4128 6.77752C49.3247 6.69324 49.235 6.61284 49.1418 6.53478C49.0352 6.44524 48.9341 6.35149 48.8343 6.25406C48.674 6.09774 48.5065 5.95214 48.3335 5.81131C48.1838 5.68432 48.0959 5.53436 48.0102 5.35576C47.9905 5.10477 47.9844 4.87845 48.1369 4.66882C48.2692 4.51855 48.4233 4.42858 48.619 4.40426C48.6349 4.40226 48.6508 4.40026 48.6672 4.3982C48.9607 4.36281 49.2554 4.33728 49.5496 4.30968C49.6411 4.30108 49.7325 4.29239 49.824 4.2837C49.9968 4.26729 50.1696 4.25096 50.3424 4.23467C50.6521 4.20547 50.9618 4.17615 51.2715 4.14678C51.38 4.13649 51.4884 4.12625 51.5969 4.11604C51.6481 4.11122 51.6993 4.10638 51.7505 4.10153C51.8127 4.09565 51.8748 4.08979 51.937 4.08396C51.9908 4.07885 52.0446 4.07357 52.0984 4.06806C52.1427 4.06371 52.187 4.06 52.2314 4.05722C52.3345 4.05017 52.3345 4.05017 52.4141 3.98734C52.4222 3.96651 52.4303 3.94569 52.4386 3.92423C52.4483 3.90039 52.4581 3.87655 52.4681 3.85198C52.4778 3.82561 52.4876 3.79924 52.4977 3.77206C52.5142 3.73064 52.5142 3.73064 52.5311 3.68838C52.5674 3.59661 52.6027 3.50442 52.638 3.41218C52.6633 3.34789 52.6886 3.28363 52.7141 3.21941C52.7539 3.11892 52.7937 3.0184 52.8331 2.91771C52.9257 2.68078 53.0207 2.44499 53.1177 2.20994C53.1244 2.19373 53.1311 2.17751 53.1379 2.1608C53.1712 2.08015 53.2046 1.99953 53.2379 1.91891C53.2874 1.79941 53.3366 1.67983 53.3858 1.56024C53.4092 1.50329 53.4327 1.44637 53.4562 1.38946C53.5126 1.25292 53.5686 1.11622 53.6233 0.978956C53.6502 0.911599 53.6774 0.844336 53.7045 0.777078C53.7235 0.729745 53.7422 0.682282 53.7608 0.634816C53.843 0.431524 53.9331 0.212495 54.1261 0.0996919C54.1427 0.0896448 54.1593 0.0795977 54.1764 0.0692462C54.3486 -0.0199316 54.6482 -0.0241279 54.8219 0.0633634Z" fill="#FEC006"/>
<path fill-rule="evenodd" clip-rule="evenodd" d="M70.7638 0C70.6432 0.00208208 70.5233 0.0253767 70.4353 0.0690938L70.383 0.0995399C70.1819 0.212344 70.088 0.431376 70.0024 0.63467C69.9829 0.682137 69.9634 0.7296 69.9437 0.776934C69.9154 0.844193 69.8871 0.911457 69.8591 0.978814C69.8021 1.11608 69.7437 1.25278 69.685 1.38933L69.6116 1.5601C69.5603 1.6797 69.509 1.79928 69.4576 1.91878L69.3534 2.16068L69.3322 2.20981C69.2312 2.44487 69.1322 2.68066 69.0357 2.91759C68.9947 3.01828 68.9533 3.1188 68.9118 3.21929L68.8324 3.41207L68.83 3.41808C68.7941 3.50831 68.7581 3.5985 68.721 3.68827L68.6863 3.77195L68.6554 3.85188L68.6247 3.92413L68.5992 3.98723C68.5584 4.01815 68.5377 4.03386 68.5143 4.04268C68.4903 4.05177 68.4634 4.05354 68.4088 4.05711C68.3626 4.0599 68.3164 4.06361 68.2702 4.06796C68.2142 4.07346 68.1582 4.07875 68.1021 4.08386L67.9077 4.10143L67.7477 4.11594L67.4087 4.14667L66.4406 4.23457L65.9005 4.28359L65.6146 4.30958C65.5611 4.31439 65.5076 4.31914 65.4541 4.3239C65.2009 4.34639 64.9476 4.36888 64.6951 4.3981L64.645 4.40416C64.4411 4.42848 64.2805 4.51845 64.1427 4.66872C63.9838 4.87835 63.9901 5.10468 64.0106 5.35567C64.0999 5.53427 64.1915 5.68424 64.3475 5.81122C64.5277 5.95206 64.7023 6.09766 64.8693 6.25398C64.9733 6.35141 65.0786 6.44517 65.1896 6.5347C65.2867 6.61276 65.3802 6.69317 65.472 6.77745C65.5678 6.86557 65.6648 6.95189 65.7636 7.03657L65.8122 7.07798L65.9073 7.15921C66.0342 7.26741 66.1604 7.37605 66.2824 7.48978C66.291 7.49779 66.2996 7.5058 66.3081 7.5138C66.4116 7.61033 66.5149 7.70668 66.6235 7.79754C66.6318 7.80427 66.6402 7.811 66.6485 7.81773C66.7534 7.90234 66.8583 7.98692 66.96 8.07541L66.9995 8.11005C67.0375 8.14163 67.0556 8.15669 67.0723 8.1732C67.0875 8.18824 67.1015 8.20449 67.1283 8.23555C67.1502 8.30837 67.1555 8.36116 67.1458 8.43676L67.1284 8.51139L67.1091 8.59639L67.0874 8.68776C67.0648 8.78612 67.0422 8.88447 67.0192 8.98274C67.0044 9.04565 66.9898 9.10858 66.9753 9.17153C66.9415 9.31871 66.9076 9.46586 66.8735 9.61294C66.8281 9.80821 66.7831 10.0036 66.738 10.1989C66.6942 10.389 66.6504 10.5791 66.6062 10.769C66.5703 10.9234 66.5345 11.0777 66.499 11.2322L66.4539 11.4283C66.4322 11.5209 66.4105 11.6135 66.3893 11.7062L66.3698 11.7919C66.293 12.1138 66.2601 12.4019 66.4298 12.696C66.5381 12.8602 66.7045 12.9432 66.8905 12.9913C67.103 13.013 67.2715 12.9978 67.4544 12.8831C67.5478 12.8257 67.5946 12.797 67.6416 12.7689C67.6886 12.7407 67.736 12.7131 67.8308 12.6579C68.1251 12.4867 68.4179 12.3133 68.7086 12.136C68.9909 11.9637 69.2746 11.7938 69.5594 11.6256C69.7366 11.521 69.9136 11.416 70.0888 11.3079L70.1929 11.2436L70.2015 11.2383C70.2641 11.1997 70.3267 11.1612 70.3889 11.1221L70.4347 11.0934L70.5211 11.0401C70.5588 11.0157 70.5772 11.0038 70.5962 10.9932C70.6141 10.9832 70.6326 10.9742 70.6687 10.9569C70.7059 10.9463 70.7356 10.9386 70.7638 10.9356V0ZM74.439 12.999C74.4421 12.9993 74.4451 12.9997 74.4481 13L74.4836 12.999H74.439Z" fill="#FEC006"/>
</svg>
