<svg width="20" height="13" viewBox="0 0 20 13" fill="none" xmlns="http://www.w3.org/2000/svg">
<path d="M19.6662 7.118C19.5081 7.29549 19.3407 7.46285 19.1721 7.63037C19.123 7.67977 19.0738 7.72917 19.0232 7.78006C18.8614 7.94245 18.6991 8.10432 18.5368 8.26615C18.4239 8.37921 18.3109 8.49229 18.198 8.60539C17.9616 8.84198 17.725 9.07831 17.4882 9.31447C17.1848 9.61703 16.8821 9.92023 16.5795 10.2236C16.3466 10.4571 16.1133 10.6902 15.8799 10.9233C15.7681 11.0349 15.6564 11.1467 15.5449 11.2586C15.389 11.4149 15.2326 11.5707 15.0761 11.7264C15.0302 11.7726 14.9843 11.8188 14.937 11.8664C14.5672 12.2327 14.2656 12.4762 13.724 12.4943C13.2819 12.4218 13.0163 12.2581 12.7402 11.9085C12.5679 11.6376 12.5713 11.392 12.5921 11.0795C12.745 10.5521 13.1224 10.2301 13.506 9.85506C13.5755 9.78604 13.645 9.71696 13.7144 9.64782C13.8962 9.46705 14.0789 9.28715 14.2618 9.10741C14.4487 8.92345 14.6347 8.73866 14.8209 8.55395C15.1854 8.1924 15.5509 7.83177 15.9169 7.4717C15.8402 7.4716 15.7634 7.4715 15.6843 7.47139C13.8163 7.4688 11.9482 7.46459 10.0802 7.45869C9.17678 7.45588 8.27341 7.45359 7.37003 7.45253C6.58264 7.45161 5.79525 7.44971 5.00786 7.44662C4.59095 7.44502 4.17406 7.44391 3.75715 7.44398C3.36463 7.44403 2.97215 7.44277 2.57964 7.44049C2.43569 7.43989 2.29174 7.43977 2.14779 7.44017C1.95094 7.44064 1.75417 7.43937 1.55733 7.43768C1.50062 7.43822 1.44392 7.43877 1.38549 7.43934C0.990135 7.43334 0.683979 7.34018 0.354 7.118C0.0840356 6.81343 -0.00589781 6.52712 0.000297279 6.12763C0.0670469 5.7338 0.1868 5.5313 0.495481 5.27874C0.853414 5.05833 1.13296 5.03587 1.54031 5.03831C1.60192 5.03784 1.66352 5.03737 1.72699 5.03689C1.93293 5.03557 2.13884 5.03576 2.34479 5.03594C2.4926 5.0353 2.64042 5.03457 2.78823 5.03375C3.18925 5.0318 3.59027 5.03114 3.99129 5.03072C4.41049 5.03006 4.82967 5.0282 5.24886 5.02647C6.04254 5.02338 6.83622 5.02137 7.6299 5.01973C8.53353 5.01782 9.43715 5.01471 10.3408 5.0115C12.1995 5.00493 14.0582 4.99986 15.9169 4.99578C15.8774 4.95669 15.8378 4.91759 15.797 4.87731C15.4239 4.50839 15.0512 4.13896 14.6791 3.76894C14.4878 3.57874 14.2963 3.38875 14.1044 3.1992C13.919 3.0162 13.7343 2.83268 13.5498 2.64879C13.4794 2.5788 13.4089 2.509 13.3381 2.43939C13.2389 2.3417 13.1404 2.24328 13.0419 2.14483C12.9857 2.08906 12.9294 2.03329 12.8715 1.97584C12.6247 1.68334 12.5625 1.41559 12.5747 1.0332C12.6162 0.698681 12.7721 0.482406 13.021 0.269422C13.2936 0.066389 13.4315 0.0270523 13.7682 0.0129873C13.8391 0.00870138 13.9101 0.0044155 13.9832 -2.63004e-07C14.5169 0.0993703 14.9294 0.591985 15.3005 0.965516C15.3486 1.01331 15.3966 1.0611 15.4461 1.11034C15.6031 1.26675 15.7596 1.42366 15.9161 1.58061C16.0258 1.6902 16.1355 1.79977 16.2452 1.90931C16.4743 2.13819 16.7031 2.36732 16.9318 2.59663C17.2247 2.89032 17.5182 3.18338 17.8119 3.47625C18.0382 3.70205 18.2642 3.92819 18.4901 4.15443C18.5982 4.26264 18.7064 4.37074 18.8147 4.47874C18.9659 4.62957 19.1166 4.78084 19.2673 4.93224C19.3119 4.97661 19.3566 5.02097 19.4026 5.06668C20.0269 5.69712 20.2374 6.36656 19.6662 7.118Z" fill="white"/>
</svg>
