<svg width="21" height="24" viewBox="0 0 21 24" fill="none" xmlns="http://www.w3.org/2000/svg">
<path d="M7.21329 12.347C7.59503 12.598 7.97947 12.8076 8.40404 12.976C8.43315 12.9876 8.46226 12.9991 8.49225 13.011C9.91199 13.5589 11.2739 13.3866 12.6502 12.8144C13.0599 12.6229 13.4314 12.3714 13.8052 12.1184C14.6798 11.5317 14.6798 11.5317 15.1625 11.5588C15.1978 11.5599 15.2331 11.561 15.2695 11.5621C16.4414 11.6139 17.5488 12.0905 18.3509 12.959C19.8565 14.6886 20.2338 17.1611 20.2748 19.3751C20.2767 19.4312 20.2785 19.4873 20.2804 19.5452C20.3018 20.5586 20.1051 21.6812 19.4112 22.4616C19.3442 22.5309 19.2767 22.5996 19.2083 22.6674C19.1681 22.7094 19.128 22.7515 19.0866 22.7949C19.0502 22.8293 19.0139 22.8637 18.9764 22.8992C18.9435 22.931 18.9435 22.931 18.91 22.9633C17.9544 23.8387 16.726 23.8941 15.5059 23.8917C15.3806 23.892 15.2553 23.8923 15.13 23.8927C14.8264 23.8935 14.5228 23.8935 14.2192 23.8933C13.9721 23.8931 13.7251 23.8932 13.478 23.8934C13.4427 23.8934 13.4074 23.8935 13.371 23.8935C13.2992 23.8936 13.2275 23.8937 13.1557 23.8937C12.4844 23.8944 11.8131 23.8941 11.1417 23.8936C10.5293 23.8931 9.91684 23.8937 9.30439 23.8948C8.67359 23.896 8.04279 23.8964 7.41198 23.8961C7.05861 23.8959 6.70525 23.896 6.35188 23.8969C6.05105 23.8975 5.75023 23.8976 5.4494 23.8968C5.2963 23.8964 5.14322 23.8964 4.99012 23.897C3.64611 23.902 2.48886 23.69 1.49489 22.7137C1.45902 22.679 1.42316 22.6443 1.38621 22.6085C0.727193 21.928 0.423654 20.9793 0.418955 20.0451C0.41863 20.0023 0.418305 19.9595 0.41797 19.9154C0.417157 19.7768 0.416863 19.6383 0.416782 19.4997C0.416751 19.4525 0.416719 19.4052 0.416687 19.3565C0.417441 18.6411 0.443547 17.9482 0.567485 17.2421C0.575689 17.1926 0.583893 17.1431 0.592345 17.0922C0.703531 16.4288 0.848643 15.7883 1.07756 15.1554C1.08836 15.125 1.09916 15.0947 1.1103 15.0634C1.376 14.3272 1.73705 13.67 2.23681 13.0687C2.2615 13.037 2.28618 13.0053 2.31162 12.9726C2.95034 12.1719 4.0172 11.7111 5.01482 11.5949C5.93627 11.4997 6.46111 11.8475 7.21329 12.347Z" fill="#BCCCFC"/>
<path d="M13.7337 1.31086C14.1341 1.64634 14.4868 1.98668 14.8031 2.40363C14.8312 2.44021 14.8592 2.4768 14.8881 2.51449C15.4188 3.23805 15.7114 4.02678 15.8696 4.90762C15.8783 4.95508 15.8869 5.00254 15.8957 5.05144C16.0708 6.61144 15.7142 8.10731 14.7568 9.35916C14.6238 9.52014 14.484 9.6723 14.3394 9.82286C14.3003 9.86488 14.2612 9.9069 14.221 9.9502C13.915 10.2699 13.5977 10.5128 13.2265 10.7503C13.188 10.776 13.1494 10.8017 13.1097 10.8281C12.2538 11.376 11.2054 11.6044 10.2009 11.5994C10.1463 11.5992 10.0917 11.599 10.0355 11.5987C9.60098 11.5929 9.19594 11.5521 8.77501 11.4458C8.72913 11.4342 8.72913 11.4342 8.68231 11.4224C7.84576 11.2045 7.05397 10.7906 6.42263 10.1991C6.33495 10.1174 6.24575 10.0424 6.1522 9.96777C5.92894 9.77761 5.75388 9.54408 5.57547 9.31279C5.54773 9.27704 5.52 9.2413 5.49142 9.20447C4.76891 8.22439 4.44354 7.09483 4.4452 5.88429C4.44522 5.85299 4.44525 5.82168 4.44527 5.78942C4.44831 4.96471 4.57762 4.22005 4.92629 3.47015C4.94721 3.42281 4.96813 3.37546 4.98968 3.32669C5.4359 2.36871 6.22418 1.5353 7.10568 0.966158C7.14645 0.939499 7.18722 0.91284 7.22922 0.885373C9.19231 -0.331421 11.9462 -0.143225 13.7337 1.31086Z" fill="#BCCCFC"/>
</svg>
