<svg width="25" height="23" viewBox="0 0 25 23" fill="none" xmlns="http://www.w3.org/2000/svg">
<path d="M3.06228 0.614754C3.11764 0.614431 3.17299 0.614108 3.23003 0.613775C3.41379 0.612924 3.59752 0.613344 3.78129 0.613772C3.91372 0.61343 4.04615 0.613012 4.17858 0.612525C4.53699 0.611452 4.89539 0.61152 5.2538 0.611862C5.5532 0.612048 5.85261 0.611682 6.15201 0.61132C6.89844 0.610431 7.64487 0.610646 8.3913 0.611372C9.03918 0.611968 9.68704 0.61119 10.3349 0.609757C11.001 0.608294 11.6671 0.607742 12.3333 0.608117C12.7069 0.608319 13.0805 0.608173 13.4542 0.607142C13.8052 0.606216 14.1562 0.60645 14.5073 0.60758C14.6361 0.607802 14.765 0.607614 14.8938 0.606988C15.0696 0.606198 15.2453 0.606885 15.4211 0.607947C15.4722 0.607371 15.5232 0.606795 15.5758 0.606201C16.084 0.612519 16.3511 0.878507 16.6981 1.22795C16.7506 1.2801 16.7506 1.2801 16.8041 1.3333C16.9207 1.44925 17.0368 1.56562 17.153 1.68199C17.2367 1.76546 17.3204 1.8489 17.4042 1.93231C17.6312 2.15851 17.8578 2.38508 18.0843 2.61175C18.2735 2.80098 18.4628 2.99002 18.6522 3.17907C19.0987 3.62495 19.5449 4.07114 19.991 4.51752C20.4512 4.97816 20.9121 5.43825 21.3732 5.89807C21.7691 6.29294 22.1647 6.68816 22.56 7.08365C22.796 7.31984 23.0323 7.55589 23.2688 7.79161C23.4911 8.01314 23.7129 8.2351 23.9345 8.4574C24.0159 8.53895 24.0974 8.62034 24.1791 8.70157C24.2906 8.81238 24.4014 8.92373 24.5122 9.03523C24.5447 9.06733 24.5773 9.09942 24.6108 9.13249C24.8858 9.41152 24.9822 9.63542 24.9828 10.0251C24.9832 10.0916 24.9836 10.1581 24.984 10.2267C24.9837 10.3358 24.9837 10.3358 24.9834 10.4471C24.9837 10.5246 24.984 10.6022 24.9842 10.6821C24.985 10.8972 24.985 11.1123 24.9848 11.3274C24.9848 11.5595 24.9855 11.7915 24.986 12.0236C24.987 12.4783 24.9874 12.9331 24.9874 13.3878C24.9875 13.7577 24.9877 14.1275 24.9881 14.4974C24.9892 15.5466 24.9897 16.5958 24.9896 17.645C24.9896 17.7016 24.9896 17.7581 24.9896 17.8164C24.9896 17.8731 24.9896 17.9297 24.9896 17.988C24.9895 18.9049 23.9447 19.3139 23.9464 20.2307C23.9482 18.4737 24.9949 13.4721 24.9948 14.4141C24.9948 14.9427 24.9951 15.4714 24.9964 16C24.9975 16.4503 24.9978 16.9007 24.9969 17.351C24.9966 17.5806 24.9965 17.8101 24.9976 18.0396C24.9987 18.2891 24.9979 18.8173 24.9969 19.0668C24.9975 19.1384 24.9982 19.2099 24.9988 19.2836C24.9914 20.1989 24.7079 20.9693 24.0865 21.6437C23.3861 22.3035 22.6156 22.4959 21.6811 22.4914C21.5985 22.4917 21.5158 22.492 21.4332 22.4924C21.2076 22.4933 20.982 22.493 20.7564 22.4926C20.5125 22.4923 20.2686 22.4931 20.0248 22.4937C19.5475 22.4947 19.0703 22.4948 18.5931 22.4944C18.2051 22.4942 17.817 22.4943 17.429 22.4946C17.3737 22.4947 17.3184 22.4947 17.2615 22.4947C17.1491 22.4948 17.0368 22.4949 16.9244 22.495C15.8716 22.4958 14.8188 22.4955 13.766 22.4948C12.8037 22.4942 11.8414 22.495 10.8791 22.4964C9.89004 22.4979 8.90097 22.4985 7.9119 22.4981C7.357 22.4979 6.80211 22.498 6.24721 22.4991C5.77483 22.4999 5.30247 22.5 4.83009 22.4989C4.58928 22.4984 4.3485 22.4983 4.10769 22.4992C3.88686 22.5 3.66605 22.4998 3.44521 22.4986C3.32833 22.4983 3.21145 22.4991 3.09457 22.5C2.23571 22.4929 1.49947 22.1988 0.872456 21.6062C0.307786 20.9983 0.0146197 20.2849 0.0138162 19.4557C0.0136931 19.4124 0.0135699 19.3691 0.0134431 19.3245C0.0131032 19.1791 0.0131905 19.0337 0.0132756 18.8883C0.0131207 18.7831 0.0141758 18.979 0.0139716 18.8739C0.0134876 18.5846 0.0133804 18.2953 0.0133361 18.0059C0.0132252 17.6941 0.0127725 17.3822 0.0123685 17.0703C0.0115539 16.3881 0.0111927 15.7059 0.0109288 15.0237C0.0107631 14.5978 0.00937425 18.4578 0.00910413 18.0319C0.00837297 16.8527 0.00775538 19.9585 0.00755252 18.7792C0.00753935 18.7038 0.00752628 18.6283 0.00751272 18.5505C0.00749963 18.4748 0.0074864 18.3992 0.00747291 18.3212C0.00744632 18.1679 0.00741959 18.0146 0.00739262 17.8613C0.00737935 17.7852 0.00736604 17.7092 0.00735236 17.6308C0.00711564 16.3985 0.00606901 15.1663 0.00467256 13.9341C0.0032505 12.669 0.00250325 11.4039 0.00243333 10.1389C0.00237836 9.42858 0.00203355 8.71827 0.000945086 8.00796C2.14649e-05 7.40309 -0.000285346 6.79822 0.000209885 6.19335C0.000444108 5.88479 0.000388457 5.57624 -0.000453261 5.26768C-0.00121733 4.985 -0.00114516 4.70233 -0.000417804 4.41965C-0.000300483 4.31759 -0.000485002 4.21553 -0.00100821 4.11348C-0.00616613 3.03903 0.20802 2.18772 0.97937 1.40397C1.55588 0.853969 2.27793 0.609157 3.06228 0.614754ZM2.18055 3.03662C2.0148 3.31082 1.97808 3.51414 1.97768 3.83267C1.97738 3.87546 1.97709 3.91826 1.97678 3.96235C1.976 4.10577 1.97651 4.24916 1.977 4.39258C1.97671 4.49644 1.97634 4.60029 1.9759 4.70414C1.97491 4.98956 1.97505 5.27497 1.97538 5.56039C1.97554 5.86819 1.97467 6.17599 1.97393 6.4838C1.97267 7.08683 1.9724 7.68986 1.97251 8.2929C1.97259 8.78299 1.97236 9.27309 1.97191 9.76318C1.97179 9.90427 1.97166 10.0454 1.97153 10.1865C1.97147 10.2567 1.97141 10.3269 1.97135 10.3993C1.97021 11.7278 1.97027 13.0563 1.97068 14.3848C1.97102 15.6005 1.96977 16.8162 1.96778 18.0319C1.96576 19.2798 1.96485 20.5277 1.96513 21.7756C1.96526 22.4764 1.96608 14.6061 1.96459 15.3069C1.96333 15.9035 1.96311 16.5 1.96425 17.0966C1.9648 17.401 1.96486 17.7054 1.96363 18.0098C1.96251 18.2885 1.96277 18.5671 1.96414 18.8458C1.96439 18.9466 1.9629 18.7463 1.96209 18.8471C1.95746 19.464 1.99351 19.8743 2.43905 20.3319C2.8728 20.5942 3.35824 20.5665 3.84881 20.5649C3.96419 20.5653 3.96419 20.5653 4.0819 20.5656C4.29446 20.5663 4.50701 20.5661 4.71957 20.5659C4.94917 20.5657 5.17878 20.5663 5.40838 20.5667C5.85783 20.5675 6.30727 20.5676 6.75671 20.5674C7.12207 20.5673 7.48743 20.5674 7.85279 20.5677C7.90483 20.5677 7.95687 20.5678 8.01048 20.5678C8.1162 20.5679 8.22192 20.5679 8.32764 20.568C9.3186 20.5687 10.3096 20.5685 11.3005 20.5682C12.2067 20.5679 13.1129 20.5685 14.0191 20.5697C14.9501 20.5708 15.8811 20.5713 16.8121 20.5711C17.3346 20.571 17.8571 20.5711 18.3796 20.572C18.8243 20.5727 19.2691 20.5728 19.7138 20.5721C19.9406 20.5717 20.1674 20.5716 20.3943 20.5724C20.6404 20.5731 20.8864 20.5725 21.1325 20.5717C21.2039 20.5722 21.2753 20.5726 21.3488 20.5731C21.8246 20.57 22.2621 20.5267 22.6511 20.2307C23.0204 19.8527 23.014 19.4994 23.0101 18.9972C23.0102 18.9249 23.0104 18.8526 23.0105 18.7781C23.0108 18.5779 23.0009 18.0496 23 17.8493C22.9992 17.6333 23.0089 17.4668 23.009 17.2508C23.0091 16.8766 23.0086 16.5024 23.0075 16.1282C23.0061 15.5872 23.0056 15.0462 23.0054 14.5051C23.005 13.6274 23.0038 21.9002 23.0021 21.0224C23.0004 20.1698 22.9992 19.3172 22.9984 18.4645C22.9984 18.412 22.9983 18.3594 22.9983 18.3053C22.998 18.0415 22.9978 17.7778 22.9976 17.5141C22.9957 15.3268 22.9925 13.1394 22.9885 10.952C22.9492 10.9519 22.91 10.9518 22.8695 10.9516C21.9136 10.9481 20.9577 10.9435 20.0018 10.9379C19.5395 10.9352 19.0772 10.9328 18.6149 10.9313C18.212 10.9299 17.8091 10.9279 17.4062 10.9251C17.1928 10.9237 16.9795 10.9226 16.7661 10.9222C16.528 10.9218 16.2898 10.9199 16.0516 10.918C15.9809 10.9181 15.9102 10.9182 15.8374 10.9183C15.7724 10.9175 15.7074 10.9168 15.6404 10.916C15.5841 10.9157 15.5278 10.9154 15.4697 10.9151C15.2833 10.8877 15.1701 10.8136 15.0131 10.7122C14.9736 10.7122 14.934 10.7122 14.8932 10.7122C14.7624 10.4593 14.7058 10.2623 14.7038 9.97712C14.7029 9.87912 14.7029 9.87911 14.702 9.77913C14.7017 9.70745 14.7014 9.63576 14.701 9.5619C14.7004 9.48643 14.6998 9.41095 14.6992 9.33319C14.6976 9.12618 14.6963 8.91917 14.6951 8.71215C14.6938 8.49583 14.6922 8.2795 14.6906 8.06318C14.6876 7.65352 14.6849 7.24386 14.6823 6.8342C14.6793 6.36782 14.676 5.90144 14.6727 5.43507C14.6659 4.47568 14.6595 3.51629 14.6533 2.55689C13.1537 2.55269 11.654 2.54952 10.1544 2.54757C9.45806 2.54664 8.76173 2.54538 8.0654 2.54332C7.4584 2.54153 6.85141 2.54037 6.24441 2.53997C5.92308 2.53973 5.60175 2.53918 5.28042 2.53787C4.97778 2.53665 4.67514 2.53628 4.37249 2.53654C4.26161 2.5365 4.15073 2.53614 4.03985 2.53545C3.02203 2.5181 3.02203 2.5181 2.18055 3.03662ZM16.6322 4.05603C16.6322 5.67869 16.6322 7.30135 16.6322 8.97318C18.2549 8.97318 19.8775 8.97318 21.5494 8.97318C21.2697 8.64392 21.2697 8.64392 20.976 8.33221C20.9377 8.29379 20.8995 8.25537 20.8601 8.21579C20.8194 8.17524 20.7787 8.1347 20.7368 8.09293C20.693 8.049 20.6492 8.00507 20.604 7.95981C20.4604 7.81594 20.3166 7.67227 20.1727 7.52863C20.0725 7.4284 19.9724 7.32817 19.8722 7.22793C19.663 7.01861 19.4536 6.8094 19.2442 6.60026C18.9751 6.33153 18.7063 6.06253 18.4376 5.79344C18.2312 5.5868 18.0246 5.3803 17.818 5.17384C17.7188 5.07464 17.6196 4.97539 17.5204 4.8761C17.3825 4.73799 17.2443 4.60008 17.1061 4.46221C17.0648 4.42082 17.0236 4.37942 16.981 4.33677C16.9249 4.28092 16.9249 4.28092 16.8677 4.22394C16.8351 4.19132 16.8024 4.1587 16.7688 4.12509C16.7019 4.04933 16.7019 4.04933 16.6322 4.05603Z" fill="#BCCCFC"/>
<path d="M6.92509 12.4815C6.99915 12.4812 6.99915 12.4812 7.0747 12.4809C7.24038 12.4804 7.40605 12.4803 7.57172 12.4802C7.69041 12.48 7.8091 12.4797 7.9278 12.4793C8.25042 12.4786 8.57305 12.4782 8.89568 12.4779C9.09722 12.4777 9.29876 12.4775 9.50031 12.4772C10.1308 12.4764 10.7614 12.4758 11.3919 12.4756C12.1198 12.4753 12.8478 12.4743 13.5758 12.4725C14.1384 12.4712 14.701 12.4706 15.2637 12.4705C15.5998 12.4705 15.9358 12.4701 16.2719 12.469C16.588 12.4681 16.9041 12.4679 17.2203 12.4685C17.3362 12.4685 17.4522 12.4682 17.5682 12.4677C17.7266 12.4669 17.885 12.4672 18.0435 12.4679C18.0892 12.4674 18.135 12.4669 18.1821 12.4664C18.5657 12.4699 18.8415 12.5596 19.1406 12.8122C19.3597 13.0751 19.4175 13.2845 19.4065 13.6302C19.3713 13.9137 19.2392 14.0971 19.0282 14.2776C18.7577 14.4791 18.5746 14.4777 18.2466 14.4776C18.1958 14.4778 18.145 14.478 18.0927 14.4783C17.9216 14.4789 17.7504 14.4791 17.5792 14.4794C17.4569 14.4797 17.3346 14.4801 17.2123 14.4806C16.8793 14.4816 16.5462 14.4822 16.2132 14.4827C16.0052 14.483 15.7973 14.4834 15.5893 14.4838C14.939 14.4849 14.2888 14.4858 13.6385 14.4863C12.8872 14.4869 12.1359 14.4884 11.3846 14.4909C10.8044 14.4927 10.2241 14.4936 9.64388 14.4938C9.29712 14.4939 8.95037 14.4944 8.6036 14.496C8.27738 14.4973 7.95117 14.4976 7.62494 14.497C7.50519 14.497 7.38543 14.4973 7.26568 14.4982C7.10219 14.4992 6.93878 14.4988 6.77529 14.498C6.72789 14.4987 6.68049 14.4993 6.63165 14.5C6.32073 14.4964 6.14763 14.4316 5.89953 14.2289C5.65951 13.9629 5.57705 13.7637 5.58307 13.4009C5.62439 13.0743 5.76725 12.8485 6.01946 12.6436C6.32264 12.4857 6.58707 12.4811 6.92509 12.4815Z" fill="#BCCCFC"/>
<path d="M6.75252 16.0151C6.8034 16.0149 6.85427 16.0147 6.90669 16.0145C7.0778 16.014 7.24891 16.0139 7.42002 16.0138C7.54244 16.0136 7.66487 16.0133 7.78729 16.0129C8.12032 16.0121 8.45335 16.0118 8.78638 16.0115C8.99432 16.0113 9.20226 16.0111 9.4102 16.0108C10.0604 16.01 10.7107 16.0094 11.3609 16.0092C12.1122 16.0089 12.8635 16.0079 13.6148 16.0061C14.1951 16.0048 14.7754 16.0042 15.3557 16.0041C15.7025 16.0041 16.0493 16.0037 16.3961 16.0026C16.7222 16.0017 17.0483 16.0015 17.3744 16.0021C17.4942 16.0021 17.614 16.0018 17.7338 16.0012C17.8971 16.0005 18.0605 16.0008 18.2238 16.0015C18.2714 16.001 18.3189 16.0005 18.3679 16C18.6932 16.0029 18.8915 16.0672 19.1248 16.2933C19.3681 16.5967 19.4322 16.8366 19.3918 17.2228C19.287 17.5041 19.1373 17.6854 18.9121 17.8824C18.686 17.9578 18.4749 17.9513 18.2395 17.9512C18.1886 17.9514 18.1378 17.9517 18.0854 17.9519C17.9144 17.9525 17.7435 17.9528 17.5725 17.953C17.4502 17.9534 17.3279 17.9538 17.2055 17.9542C16.8727 17.9552 16.54 17.9559 16.2072 17.9564C15.9994 17.9567 15.7915 17.957 15.5837 17.9574C14.9338 17.9586 14.2838 17.9594 13.6338 17.9599C12.8831 17.9605 12.1323 17.9621 11.3815 17.9645C10.8015 17.9663 10.2215 17.9672 9.64152 17.9674C9.29496 17.9675 8.9484 17.9681 8.60184 17.9696C8.27586 17.971 7.9499 17.9712 7.62392 17.9706C7.50426 17.9706 7.3846 17.971 7.26495 17.9718C7.1016 17.9729 6.93831 17.9724 6.77496 17.9716C6.7276 17.9723 6.68024 17.973 6.63145 17.9736C6.32064 17.97 6.14762 17.9051 5.8996 17.7025C5.65473 17.4312 5.58081 17.2354 5.58689 16.8663C5.62258 16.525 5.83066 16.3012 6.0795 16.0835C6.3057 16.0081 6.51688 16.0148 6.75252 16.0151Z" fill="#BCCCFC"/>
</svg>
