<svg width="16" height="19" viewBox="0 0 16 19" fill="none" xmlns="http://www.w3.org/2000/svg">
<path d="M1.94446 5.67383C2.00561 5.67357 2.00561 5.67357 2.06799 5.67331C2.13494 5.67337 2.13494 5.67337 2.20324 5.67343C2.27454 5.67323 2.27454 5.67323 2.34728 5.67303C2.50711 5.67265 2.66694 5.67258 2.82676 5.67251C2.94114 5.67231 3.05551 5.67209 3.16989 5.67185C3.48101 5.67125 3.79213 5.67098 4.10325 5.67079C4.29755 5.67067 4.49186 5.67048 4.68616 5.67028C5.22424 5.66974 5.76232 5.66929 6.3004 5.66914C6.33483 5.66913 6.36926 5.66912 6.40474 5.66911C6.43925 5.6691 6.47377 5.66909 6.50933 5.66908C6.57927 5.66906 6.64921 5.66904 6.71915 5.66902C6.75384 5.66901 6.78853 5.669 6.82427 5.66899C7.38632 5.66882 7.94837 5.66804 8.51042 5.66702C9.0876 5.66597 9.66479 5.66542 10.242 5.66537C10.566 5.66533 10.89 5.66507 11.214 5.66427C11.5188 5.66352 11.8236 5.66345 12.1284 5.66383C12.2402 5.66387 12.3521 5.66367 12.4639 5.66324C12.6167 5.66268 12.7694 5.66294 12.9221 5.6634C12.9663 5.66304 13.0106 5.66268 13.0561 5.66232C13.4117 5.66483 13.7193 5.72759 13.9806 5.98893C14.1788 6.27546 14.2096 6.49592 14.1914 6.8369C14.1893 6.87661 14.1873 6.91632 14.1852 6.95723C14.1457 7.6666 14.0813 8.37461 14.022 9.08253C14.0074 9.25656 13.993 9.43061 13.9785 9.60465C13.9444 10.0154 13.9101 10.4261 13.8757 10.8368C13.8404 11.2588 13.8053 11.6807 13.7704 12.1026C13.7402 12.4671 13.7099 12.8315 13.6794 13.1959C13.6613 13.4126 13.6433 13.6294 13.6253 13.8461C13.6085 14.0497 13.5915 14.2533 13.5743 14.4568C13.5681 14.531 13.5619 14.6052 13.5558 14.6794C13.4466 16.0075 13.1658 17.1787 12.1206 18.0832C11.1384 18.8539 10.0975 18.9562 8.8939 18.9526C8.7878 18.9527 8.6817 18.9528 8.57561 18.953C8.35443 18.9532 8.13326 18.9529 7.91208 18.9523C7.63059 18.9515 7.34911 18.952 7.06762 18.9528C6.84889 18.9532 6.63016 18.9531 6.41143 18.9527C6.30772 18.9526 6.20401 18.9528 6.1003 18.9531C4.79303 18.9561 3.66562 18.7276 2.70582 17.7871C1.82588 16.8763 1.67754 15.721 1.57823 14.5134C1.57126 14.4304 1.56429 14.3473 1.55729 14.2643C1.53851 14.0407 1.51995 13.817 1.50144 13.5934C1.48198 13.3585 1.46233 13.1236 1.44271 12.8888C1.40982 12.4948 1.37709 12.1007 1.34445 11.7067C1.30676 11.2518 1.26882 10.7969 1.23074 10.342C1.19403 9.90325 1.15749 9.46444 1.12104 9.02563C1.10557 8.83936 1.09002 8.65311 1.07443 8.46685C1.05607 8.24756 1.03788 8.02825 1.01981 7.80893C1.01317 7.72865 1.00647 7.64837 0.999714 7.5681C0.990472 7.45819 0.981434 7.34827 0.972446 7.23834C0.968411 7.1912 0.968411 7.1912 0.964293 7.1431C0.929957 6.7159 0.919168 6.37226 1.15608 5.99997C1.37972 5.77633 1.63028 5.67432 1.94446 5.67383Z" fill="white"/>
<path d="M5.98809 0.00616051C6.02616 0.00585726 6.06422 0.00555401 6.10344 0.00524157C6.22805 0.00443938 6.35264 0.00460327 6.47725 0.00485526C6.56467 0.00465344 6.6521 0.00441894 6.73952 0.00415341C6.92232 0.00375976 7.10511 0.00386474 7.28791 0.00430511C7.52111 0.00481238 7.75427 0.00391984 7.98746 0.00262976C8.1679 0.00181551 8.34833 0.00183195 8.52877 0.00208353C8.6147 0.00209026 8.70062 0.00182606 8.78654 0.00127532C9.88643 -0.00478175 9.88643 -0.00478174 10.2885 0.379906C10.5336 0.685046 10.6488 1.02202 10.6881 1.40737C10.7156 1.54994 10.7542 1.63252 10.8436 1.74721C11.0471 1.8719 11.2005 1.89624 11.4374 1.89606C11.4692 1.89623 11.501 1.8964 11.5337 1.89657C11.6024 1.89685 11.671 1.89684 11.7396 1.89656C11.8485 1.89616 11.9574 1.89661 12.0663 1.89729C12.3757 1.89906 12.6852 1.89912 12.9946 1.89902C13.1843 1.89902 13.3739 1.89987 13.5636 1.9012C13.6704 1.90167 13.7772 1.90114 13.884 1.90059C14.2676 1.90152 14.5613 1.91539 14.8654 2.17784C14.8851 2.2025 14.9048 2.22716 14.9251 2.25257C14.9557 2.28939 14.9557 2.28939 14.9869 2.32696C15.1505 2.57753 15.1669 2.82566 15.1295 3.11693C15.0297 3.43173 14.8836 3.61645 14.5993 3.7797C14.4654 3.82434 14.3759 3.82951 14.2358 3.82969C14.1877 3.82986 14.1396 3.83003 14.09 3.83021C14.0104 3.83015 14.0104 3.83015 13.9292 3.83009C13.873 3.83022 13.8168 3.83035 13.7588 3.83049C13.6025 3.83084 13.4461 3.83092 13.2897 3.83096C13.1212 3.83104 12.9527 3.83137 12.7842 3.83167C12.4156 3.83227 12.0469 3.83253 11.6783 3.83273C11.4482 3.83285 11.2181 3.83304 10.988 3.83324C10.3511 3.83378 9.7142 3.83423 9.07731 3.83438C9.01615 3.8344 9.01616 3.8344 8.95376 3.83441C8.89245 3.83442 8.89245 3.83442 8.82991 3.83444C8.74709 3.83446 8.66426 3.83448 8.58144 3.8345C8.51982 3.83451 8.51982 3.83451 8.45695 3.83453C7.79112 3.8347 7.1253 3.83547 6.45947 3.8365C5.77613 3.83755 5.0928 3.8381 4.40946 3.83815C4.02569 3.83819 3.64192 3.83845 3.25815 3.83925C2.93138 3.83993 2.60462 3.84016 2.27786 3.83979C2.11111 3.83962 1.94437 3.83966 1.77762 3.84028C1.5969 3.84094 1.4162 3.84058 1.23548 3.84012C1.1827 3.84048 1.12993 3.84083 1.07555 3.8412C0.753588 3.83927 0.553294 3.80572 0.300046 3.59468C0.075476 3.32874 -0.0134492 3.10075 0.00162731 2.74913C0.0444597 2.44665 0.190755 2.25808 0.42138 2.06651C0.627939 1.93167 0.805175 1.9129 1.04969 1.91267C1.08155 1.91251 1.11341 1.91235 1.14623 1.91218C1.21513 1.91188 1.28403 1.91176 1.35294 1.91182C1.46218 1.91187 1.57141 1.91129 1.68065 1.91054C1.99114 1.9085 2.30164 1.90741 2.61214 1.90712C2.80234 1.9069 2.99253 1.90582 3.18273 1.90423C3.25499 1.9038 3.32725 1.9037 3.3995 1.90393C3.50081 1.90425 3.60206 1.90348 3.70335 1.90248C3.76087 1.90236 3.81839 1.90223 3.87765 1.9021C4.07906 1.87425 4.18138 1.81777 4.34845 1.70303C4.46193 1.51521 4.48805 1.35303 4.51691 1.13691C4.57809 0.739493 4.75868 0.45042 5.08112 0.21197C5.37648 0.0588045 5.658 0.00428415 5.98809 0.00616051Z" fill="white"/>
</svg>
