<svg width="25" height="24" viewBox="0 0 25 24" fill="none" xmlns="http://www.w3.org/2000/svg">
<path d="M5.22858 0.103813C5.27406 0.103597 5.31954 0.103381 5.3664 0.103158C5.51826 0.102513 5.67011 0.102284 5.82196 0.10206C5.93109 0.101692 6.04022 0.101301 6.14935 0.10089C6.50739 0.0996554 6.86542 0.0990439 7.22346 0.0984582C7.34705 0.0982201 7.47064 0.0979782 7.59424 0.0977323C8.17527 0.0966128 8.75629 0.0957764 9.33732 0.0952864C10.0062 0.0947129 10.6751 0.0931681 11.344 0.09079C11.8621 0.0890117 12.3802 0.0881463 12.8983 0.0879522C13.2072 0.0878146 13.5161 0.0872956 13.825 0.0858091C14.1161 0.0844308 14.4072 0.0841959 14.6983 0.0847959C14.8044 0.0848248 14.9106 0.0844601 15.0167 0.0836464C15.8511 0.0776141 16.6622 0.159136 17.4144 0.556964C17.4527 0.576834 17.4911 0.596704 17.5306 0.617176C18.512 1.14951 19.2346 2.02913 19.591 3.08782C19.7636 3.67036 19.8221 4.19053 19.8227 4.79487C19.823 4.86289 19.8233 4.9309 19.8236 5.00097C19.8244 5.22539 19.8248 5.44981 19.8251 5.67423C19.8254 5.79133 19.8256 5.90842 19.8259 6.02552C19.8266 6.35189 19.827 6.67827 19.8272 7.00465C19.8275 7.42437 19.8285 7.84408 19.8302 8.2638C19.8315 8.58977 19.8321 8.91574 19.8322 9.24172C19.8322 9.43567 19.8327 9.62961 19.8336 9.82355C19.8412 11.4487 19.6476 12.7757 18.4613 13.9838C18.4216 14.025 18.3818 14.0663 18.3408 14.1087C17.522 14.8983 16.3923 15.2378 15.273 15.2203C15.2266 15.2199 15.1801 15.2194 15.1323 15.2189C15.0312 15.2179 14.93 15.2167 14.8289 15.2155C14.6065 15.2126 14.384 15.2105 14.1615 15.2083C14.0418 15.2072 13.9221 15.206 13.8023 15.2048C13.0325 15.197 12.2627 15.1945 11.4928 15.1918C10.7442 15.1892 9.99558 15.185 9.24696 15.1752C8.65129 15.1675 8.05574 15.1635 7.46003 15.164C7.14531 15.164 6.83086 15.1623 6.5162 15.156C5.04552 15.0618 5.04552 15.0618 3.76235 15.6404C3.59992 15.8171 3.45953 15.9986 3.3286 16.1996C3.06989 16.5864 2.72577 16.9155 2.39686 17.2423C2.36045 17.2789 2.32404 17.3155 2.28654 17.3533C2.25164 17.3881 2.21675 17.4229 2.18081 17.4588C2.14957 17.49 2.11833 17.5211 2.08614 17.5532C1.8949 17.7268 1.6914 17.7093 1.44449 17.7079C1.29846 17.6868 1.29846 17.6868 1.11846 17.5472C0.924109 17.2839 0.937083 17.0791 0.937151 16.761C0.936935 16.7071 0.936719 16.6532 0.936496 16.5976C0.935846 16.4158 0.935621 16.2339 0.935398 16.0521C0.935029 15.9222 0.934639 15.7922 0.934227 15.6623C0.932988 15.2343 0.932381 14.8063 0.931796 14.3783C0.931558 14.2309 0.931316 14.0835 0.93107 13.9361C0.930078 13.3226 0.929218 12.709 0.928792 12.0955C0.92868 11.9362 0.928567 11.7769 0.928452 11.6177C0.92841 11.5583 0.92841 11.5583 0.928366 11.4977C0.927879 10.8581 0.926393 10.2185 0.92448 9.57887C0.92253 8.92131 0.921497 8.26376 0.92129 7.6062C0.921152 7.23738 0.92063 6.86857 0.919147 6.49976C0.917771 6.15211 0.917532 5.80448 0.918133 5.45683C0.918162 5.32984 0.917796 5.20285 0.916984 5.07586C0.911539 4.17267 0.963485 3.31425 1.40132 2.50028C1.42156 2.46148 1.4418 2.42268 1.46265 2.38271C2.06086 1.27076 3.0374 0.599167 4.21527 0.224737C4.5551 0.133092 4.87762 0.103723 5.22858 0.103813Z" fill="#BCCCFC"/>
<path d="M21.6353 6.57791C22.3156 6.67914 22.896 7.06399 23.3986 7.51834C23.46 7.57255 23.46 7.57255 23.5226 7.62786C24.2708 8.3282 24.7402 9.33975 24.8203 10.3632C24.8248 10.5079 24.8258 10.6522 24.8254 10.7969C24.8257 10.8517 24.826 10.9064 24.8263 10.9628C24.8272 11.1445 24.8273 11.3263 24.8273 11.508C24.8277 11.639 24.8282 11.7699 24.8288 11.9009C24.8301 12.2554 24.8306 12.6098 24.8309 12.9643C24.8311 13.1858 24.8315 13.4073 24.8319 13.6288C24.833 14.2429 24.834 14.8569 24.8342 15.471C24.8342 15.5102 24.8342 15.5494 24.8342 15.5897C24.8342 15.6692 24.8342 15.7486 24.8343 15.828C24.8343 15.8675 24.8343 15.9069 24.8343 15.9475C24.8343 16.0067 24.8343 16.0067 24.8343 16.0672C24.8345 16.7079 24.8361 17.3486 24.8383 17.9894C24.8406 18.6481 24.8417 19.3069 24.8417 19.9656C24.8418 20.3352 24.8423 20.7047 24.844 21.0742C24.8455 21.4214 24.8456 21.7685 24.8447 22.1157C24.8446 22.2431 24.845 22.3705 24.8459 22.498C24.8471 22.6718 24.8465 22.8456 24.8454 23.0195C24.8466 23.0952 24.8466 23.0952 24.8478 23.1725C24.8443 23.4192 24.8252 23.5756 24.6674 23.7712C24.4651 23.9654 24.3413 24.0042 24.0578 23.9995C23.73 23.94 23.4909 23.67 23.2797 23.4279C23.2438 23.3868 23.2078 23.3456 23.1708 23.3032C23.0779 23.1915 22.9894 23.0794 22.9022 22.9634C22.352 22.2388 21.7502 21.4991 20.8044 21.3613C20.1685 21.2904 19.5268 21.3134 18.8886 21.3363C18.5664 21.3459 18.2441 21.3458 17.9217 21.3467C17.3129 21.3499 16.7045 21.3613 16.0959 21.3758C15.2031 21.3969 14.3101 21.4049 13.4172 21.4136C13.2846 21.4149 13.1521 21.4162 13.0196 21.4176C12.9549 21.4182 12.8901 21.4188 12.8234 21.4195C12.4417 21.4235 12.0601 21.4297 11.6784 21.438C11.4407 21.443 11.203 21.4472 10.9652 21.4512C10.8559 21.4533 10.7466 21.4559 10.6374 21.4589C9.34731 21.4945 8.25853 21.178 7.29375 20.2729C6.52687 19.536 6.05335 18.57 5.94188 17.5104C5.93917 17.3536 5.94092 17.1971 5.94188 17.0402C5.9921 17.0401 6.04232 17.0399 6.09406 17.0398C7.3202 17.0363 8.54635 17.0318 9.77249 17.0264C10.3655 17.0237 10.9584 17.0214 11.5514 17.0198C12.0687 17.0185 12.586 17.0165 13.1033 17.0138C13.3767 17.0124 13.6502 17.0113 13.9237 17.011C14.182 17.0106 14.4403 17.0094 14.6986 17.0076C14.7926 17.0071 14.8865 17.0069 14.9805 17.007C15.8102 17.0076 16.6696 16.9439 17.4511 16.6435C17.4918 16.6284 17.5325 16.6133 17.5745 16.5977C18.2541 16.3375 18.8368 15.968 19.4018 15.512C19.4483 15.4753 19.4948 15.4385 19.5428 15.4007C20.7209 14.4189 21.4011 12.8625 21.5638 11.3626C21.5827 11.1533 21.5869 10.945 21.5886 10.735C21.5892 10.6896 21.5898 10.6443 21.5904 10.5975C21.5922 10.4496 21.5937 10.3018 21.5951 10.1539C21.5964 10.0505 21.5976 9.94719 21.5989 9.84384C21.6021 9.57339 21.605 9.30293 21.6078 9.03247C21.6108 8.75587 21.6141 8.47926 21.6173 8.20266C21.6236 7.66108 21.6296 7.1195 21.6353 6.57791Z" fill="#BCCCFC"/>
</svg>
