<svg width="368" height="71" viewBox="0 0 368 71" fill="none" xmlns="http://www.w3.org/2000/svg">
<g filter="url(#filter0_d_134_31)">
<rect x="4" y="4" width="360" height="62.7692" rx="15" fill="white"/>
</g>
<rect x="306" y="19.5384" width="37" height="37" rx="9" fill="#BCCCFC"/>
<path d="M319.011 29.1866C316.14 29.8034 314.213 32.395 314.363 35.4542C314.378 35.7974 314.433 36.27 314.487 36.5038C315.156 39.4585 318.072 42.7266 323.055 46.1091C324.228 46.905 324.533 47.0194 325.397 46.9846C326.24 46.9448 326.525 46.8055 328.232 45.6017C332.761 42.4033 335.432 39.3043 336.066 36.5038C336.356 35.2353 336.176 33.6287 335.607 32.4249C334.813 30.7336 333.32 29.5547 331.513 29.1866C330.904 29.0623 329.865 29.0523 329.271 29.1667C328.487 29.311 327.723 29.6293 326.984 30.1168C326.575 30.3854 325.751 31.1465 325.432 31.5494L325.277 31.7484L325.117 31.5494C324.183 30.4053 322.95 29.5846 321.632 29.2364C321.018 29.0722 319.655 29.0474 319.011 29.1866ZM321.332 30.5048C321.842 30.6341 322.705 31.0818 323.165 31.445C323.629 31.813 324.113 32.3602 324.508 32.9522C324.847 33.4645 324.972 33.564 325.277 33.564C325.591 33.564 325.691 33.4794 326.106 32.8576C326.49 32.2806 327.189 31.5494 327.658 31.236C328.537 30.6441 329.356 30.3805 330.334 30.3805C331.203 30.3805 331.942 30.5844 332.701 31.0371C333.065 31.2559 333.714 31.8628 333.989 32.2458C334.708 33.2456 335.053 34.7379 334.843 35.9317C334.568 37.4986 333.59 39.0954 331.742 40.9707C330.474 42.259 328.976 43.4926 327.109 44.7909C326.021 45.547 325.711 45.7012 325.282 45.7012C324.857 45.7012 324.623 45.5918 323.709 44.975C320.629 42.8808 318.252 40.6971 316.934 38.7422C316.005 37.3743 315.586 36.0859 315.656 34.8822C315.796 32.6736 317.238 30.9077 319.285 30.4551C319.72 30.3606 320.883 30.3854 321.332 30.5048Z" fill="white"/>
<defs>
<filter id="filter0_d_134_31" x="0" y="0" width="368" height="70.7692" filterUnits="userSpaceOnUse" color-interpolation-filters="sRGB">
<feFlood flood-opacity="0" result="BackgroundImageFix"/>
<feColorMatrix in="SourceAlpha" type="matrix" values="0 0 0 0 0 0 0 0 0 0 0 0 0 0 0 0 0 0 127 0" result="hardAlpha"/>
<feOffset/>
<feGaussianBlur stdDeviation="2"/>
<feComposite in2="hardAlpha" operator="out"/>
<feColorMatrix type="matrix" values="0 0 0 0 0.356863 0 0 0 0 0.509804 0 0 0 0 0.976471 0 0 0 0.4 0"/>
<feBlend mode="normal" in2="BackgroundImageFix" result="effect1_dropShadow_134_31"/>
<feBlend mode="normal" in="SourceGraphic" in2="effect1_dropShadow_134_31" result="shape"/>
</filter>
</defs>
</svg>
