<svg width="25" height="25" viewBox="0 0 25 25" fill="none" xmlns="http://www.w3.org/2000/svg">
<path d="M12.4848 0.000198225C12.5319 0.00028712 12.5791 0.000376015 12.6277 0.000467603C13.3267 0.00268303 14.0068 0.0275004 14.6946 0.161742C14.7602 0.173517 14.7602 0.173517 14.8271 0.18553C17.7439 0.713324 20.5488 2.37425 22.3511 4.74592C22.3714 4.77226 22.3917 4.79861 22.4127 4.82576C22.7874 5.31319 23.1162 5.8233 23.424 6.35525C23.4432 6.38828 23.4624 6.42131 23.4823 6.45534C24.1251 7.57303 24.5448 8.82026 24.8047 10.0799C24.8119 10.1146 24.8191 10.1492 24.8265 10.1849C24.9721 10.9478 25.0028 11.7103 24.9998 12.4848C24.9997 12.5555 24.9997 12.5555 24.9995 12.6277C24.9973 13.3267 24.9725 14.0068 24.8383 14.6946C24.8304 14.7383 24.8226 14.782 24.8145 14.8271C24.2706 17.8327 22.5309 20.6856 20.059 22.4974C20.0174 22.5285 20.0174 22.5285 19.9749 22.5602C19.5485 22.878 19.1069 23.1612 18.6447 23.424C18.6139 23.4418 18.5831 23.4595 18.5514 23.4779C17.4288 24.1204 16.1842 24.5439 14.9201 24.8047C14.8854 24.8119 14.8508 24.8191 14.8151 24.8265C14.0522 24.9721 13.2897 25.0028 12.5152 24.9998C12.4681 24.9997 12.4209 24.9996 12.3723 24.9995C11.6733 24.9973 10.9932 24.9725 10.3054 24.8383C10.2617 24.8304 10.218 24.8226 10.1729 24.8145C7.25607 24.2867 4.45124 22.6258 2.6489 20.2541C2.62858 20.2277 2.60826 20.2014 2.58732 20.1742C2.21262 19.6868 1.88381 19.1767 1.57601 18.6447C1.55678 18.6117 1.53755 18.5787 1.51774 18.5447C0.874868 17.427 0.455197 16.1797 0.195269 14.9201C0.188079 14.8854 0.180889 14.8508 0.173481 14.8151C0.0278916 14.0522 -0.00284049 13.2897 0.000198225 12.5152C0.00028712 12.4681 0.000376015 12.4209 0.000467603 12.3723C0.00268303 11.6733 0.0275004 10.9932 0.161742 10.3054C0.173517 10.2398 0.173517 10.2398 0.18553 10.1729C0.713324 7.25607 2.37425 4.45124 4.74592 2.6489C4.77226 2.62858 4.79861 2.60826 4.82576 2.58732C5.31319 2.21262 5.8233 1.88381 6.35525 1.57601C6.38828 1.55678 6.42131 1.53755 6.45534 1.51774C7.57303 0.874868 8.82026 0.455197 10.0799 0.195269C10.1146 0.188079 10.1492 0.180889 10.1849 0.173481C10.9478 0.0278916 11.7103 -0.00284049 12.4848 0.000198225ZM5.73461 4.98556C5.63159 5.08008 5.5262 5.1707 5.41952 5.26103C5.2241 5.43187 5.05833 5.61982 4.89222 5.81881C4.85337 5.86426 4.81452 5.90971 4.77449 5.95654C4.51966 6.25718 4.2785 6.56117 4.06317 6.8917C4.04376 6.9212 4.02435 6.9507 4.00435 6.98109C3.05668 8.43316 2.41101 10.1978 2.39344 11.9466C2.39296 11.9861 2.39249 12.0255 2.39199 12.0662C2.36613 14.7595 3.13417 17.2581 4.98556 19.2654C5.08008 19.3684 5.1707 19.4738 5.26103 19.5805C5.43187 19.7759 5.61982 19.9417 5.81881 20.1078C5.88699 20.1661 5.88699 20.1661 5.95654 20.2255C6.25718 20.4803 6.56117 20.7215 6.8917 20.9368C6.9212 20.9562 6.9507 20.9757 6.98109 20.9956C8.43316 21.9433 10.1978 22.589 11.9466 22.6066C11.9861 22.607 12.0255 22.6075 12.0662 22.608C14.7595 22.6339 17.2581 21.8658 19.2654 20.0144C19.3684 19.9199 19.4738 19.8293 19.5805 19.739C19.7759 19.5681 19.9417 19.3802 20.1078 19.1812C20.1661 19.113 20.1661 19.113 20.2255 19.0435C20.4803 18.7428 20.7215 18.4388 20.9368 18.1083C20.9562 18.0788 20.9757 18.0493 20.9956 18.0189C21.9433 16.5668 22.589 14.8022 22.6066 13.0534C22.607 13.0139 22.6075 12.9745 22.608 12.9338C22.6339 10.2405 21.8658 7.74191 20.0144 5.73461C19.9199 5.63159 19.8293 5.5262 19.739 5.41952C19.5681 5.2241 19.3802 5.05833 19.1812 4.89222C19.1357 4.85337 19.0903 4.81452 19.0435 4.77449C18.7428 4.51966 18.4388 4.2785 18.1083 4.06317C18.0788 4.04376 18.0493 4.02435 18.0189 4.00435C16.5668 3.05668 14.8022 2.41101 13.0534 2.39344C13.0139 2.39296 12.9745 2.39249 12.9338 2.39199C10.2405 2.36613 7.74191 3.13417 5.73461 4.98556Z" fill="#E59F9A"/>
<path d="M13.5881 5.76092C13.8786 5.99978 14.0508 6.21693 14.1093 6.59912C14.1233 6.82913 14.1232 7.05892 14.1227 7.28927C14.1229 7.35869 14.1232 7.4281 14.1234 7.49751C14.1241 7.68513 14.1241 7.87275 14.124 8.06037C14.1239 8.21743 14.1242 8.37448 14.1244 8.53153C14.125 8.90229 14.125 9.27304 14.1247 9.6438C14.1244 10.0253 14.125 10.4068 14.126 10.7883C14.1269 11.1168 14.1272 11.4452 14.127 11.7737C14.1269 11.9694 14.1271 12.1652 14.1277 12.361C14.1284 12.5452 14.1283 12.7294 14.1276 12.9136C14.1275 13.0127 14.128 13.1119 14.1286 13.211C14.1262 13.6352 14.0921 14.0057 13.8594 14.3684C13.4639 14.7381 12.9849 14.8828 12.4512 14.8896C11.9683 14.8583 11.5075 14.752 11.1619 14.3928C10.8612 13.984 10.8694 13.506 10.8717 13.018C10.8715 12.9486 10.8712 12.8791 10.8709 12.8097C10.8702 12.6225 10.8705 12.4353 10.871 12.2481C10.8713 12.0514 10.871 11.8546 10.8708 11.6579C10.8705 11.3277 10.8708 10.9974 10.8715 10.6672C10.8723 10.2864 10.8721 9.9056 10.8713 9.52481C10.8706 9.19677 10.8705 8.86874 10.8709 8.54071C10.8711 8.34527 10.8712 8.14983 10.8707 7.95439C10.8702 7.77057 10.8706 7.58676 10.8714 7.40295C10.8717 7.30404 10.8712 7.20513 10.8708 7.10623C10.8736 6.69942 10.9094 6.33589 11.1131 5.97733C11.7568 5.38314 12.8535 5.2417 13.5881 5.76092Z" fill="#E59F9A"/>
<path d="M13.2372 16.5386C13.2675 16.5577 13.2978 16.5768 13.329 16.5965C13.3593 16.6136 13.3896 16.6307 13.4209 16.6483C13.7554 16.8569 13.9602 17.196 14.0606 17.5719C14.1102 18.1284 14.0671 18.5566 13.7039 18.9983C13.4171 19.306 13.1386 19.495 12.7114 19.5424C12.1597 19.5555 11.7493 19.4514 11.3296 19.0654C10.9577 18.6573 10.9059 18.1958 10.9305 17.6654C10.9499 17.4621 11.027 17.3034 11.1345 17.133C11.1516 17.1027 11.1687 17.0724 11.1863 17.0411C11.5922 16.3901 12.5714 16.174 13.2372 16.5386Z" fill="#E59F9A"/>
</svg>
