<svg width="15" height="19" viewBox="0 0 15 19" fill="none" xmlns="http://www.w3.org/2000/svg">
<path d="M2.66054 5.66351C2.72498 5.66329 2.72498 5.66329 2.79072 5.66307C2.8808 5.66285 2.97088 5.66275 3.06096 5.66276C3.19831 5.66266 3.33565 5.66187 3.47301 5.66105C3.56098 5.66092 3.64896 5.66084 3.73694 5.6608C3.79802 5.66033 3.79802 5.66033 3.86034 5.65985C4.37791 5.66164 4.37791 5.66164 4.5861 5.83737C4.61037 5.8674 4.63464 5.89743 4.65964 5.92837C4.68458 5.95829 4.70952 5.98821 4.73522 6.01903C4.85705 6.19283 4.85964 6.37679 4.83859 6.5818C4.7517 6.828 4.59507 6.98554 4.36139 7.10238C4.29213 7.10687 4.22268 7.10871 4.15327 7.10922C4.10996 7.10967 4.06665 7.11011 4.02203 7.11057C3.95154 7.11105 3.95154 7.11105 3.87962 7.11153C3.78046 7.11275 3.6813 7.11399 3.58214 7.11526C3.42554 7.11705 3.26895 7.11865 3.11235 7.11979C2.96139 7.12099 2.81046 7.12298 2.65952 7.12509C2.61297 7.12523 2.56641 7.12537 2.51844 7.12552C2.23339 7.13017 1.99454 7.14739 1.76969 7.34098C1.5924 7.57574 1.57853 7.74785 1.5786 8.03374C1.57844 8.0717 1.57828 8.10965 1.57811 8.14875C1.57764 8.27644 1.57747 8.40412 1.5773 8.5318C1.57703 8.62314 1.57674 8.71449 1.57644 8.80584C1.57568 9.05439 1.57523 9.30295 1.57487 9.5515C1.57465 9.70676 1.57438 9.86202 1.57411 10.0173C1.57328 10.503 1.57267 10.9886 1.5723 11.4743C1.57188 12.0351 1.57074 12.5959 1.56899 13.1567C1.56768 13.59 1.56704 14.0234 1.56689 14.4567C1.56679 14.7156 1.5664 14.9744 1.56531 15.2333C1.5643 15.4769 1.56412 15.7205 1.56456 15.9641C1.56458 16.0534 1.56431 16.1427 1.56371 16.232C1.56295 16.3542 1.56325 16.4763 1.56382 16.5984C1.56335 16.6336 1.56287 16.6688 1.56238 16.705C1.56512 16.9483 1.62058 17.1377 1.75851 17.3404C1.93824 17.4797 2.11092 17.5192 2.33476 17.5196C2.3903 17.5199 2.3903 17.5199 2.44697 17.5201C2.50768 17.5201 2.50768 17.5201 2.56962 17.52C2.61277 17.5201 2.65593 17.5203 2.7004 17.5204C2.84543 17.5208 2.99046 17.5209 3.1355 17.5209C3.23932 17.5211 3.34313 17.5213 3.44695 17.5216C3.72929 17.5221 4.01163 17.5224 4.29397 17.5226C4.47029 17.5227 4.64662 17.5229 4.82294 17.5231C5.31124 17.5236 5.79953 17.5241 6.28782 17.5242C6.31907 17.5242 6.35031 17.5242 6.3825 17.5243C6.41382 17.5243 6.44514 17.5243 6.4774 17.5243C6.54086 17.5243 6.60432 17.5243 6.66778 17.5243C6.69926 17.5244 6.73074 17.5244 6.76317 17.5244C7.27323 17.5245 7.78329 17.5253 8.29336 17.5263C8.81716 17.5273 9.34096 17.5279 9.86476 17.5279C10.1588 17.528 10.4529 17.5282 10.7469 17.529C11.0235 17.5297 11.3 17.5298 11.5766 17.5294C11.6781 17.5294 11.7796 17.5296 11.8811 17.53C12.0197 17.5306 12.1582 17.5303 12.2968 17.5299C12.3571 17.5304 12.3571 17.5304 12.4186 17.5309C12.7024 17.5288 12.9116 17.486 13.138 17.3024C13.3071 17.0895 13.3105 16.878 13.3093 16.6149C13.3094 16.5768 13.3096 16.5387 13.3098 16.4995C13.3102 16.3719 13.3101 16.2443 13.3099 16.1167C13.3101 16.0252 13.3103 15.9337 13.3106 15.8422C13.3111 15.5936 13.3112 15.3451 13.3111 15.0965C13.311 14.8891 13.3112 14.6817 13.3114 14.4743C13.3119 13.985 13.3119 13.4957 13.3117 13.0064C13.3114 12.5014 13.3119 11.9965 13.3129 11.4915C13.3136 11.0581 13.3139 10.6247 13.3137 10.1913C13.3137 9.93237 13.3138 9.67346 13.3144 9.41455C13.3149 9.17111 13.3148 8.92767 13.3143 8.68422C13.3142 8.59486 13.3143 8.50549 13.3147 8.41613C13.3151 8.29417 13.3148 8.17223 13.3142 8.05027C13.3145 8.01489 13.3148 7.9795 13.3152 7.94304C13.3129 7.70294 13.2695 7.52023 13.1043 7.33471C12.9021 7.17439 12.7684 7.14061 12.5153 7.13961C12.4719 7.1393 12.4285 7.139 12.3837 7.13868C12.3137 7.13841 12.3137 7.13841 12.2422 7.13814C12.1432 7.13713 12.0441 7.13608 11.945 7.135C11.789 7.13348 11.633 7.1322 11.4769 7.13162C11.3262 7.13095 11.1755 7.12921 11.0249 7.12729C10.9551 7.12742 10.9551 7.12742 10.8839 7.12754C10.6192 7.12321 10.4627 7.10568 10.2613 6.92886C10.0876 6.73644 10.028 6.59231 10.0323 6.32982C10.0619 6.09626 10.1654 5.93223 10.3426 5.78196C10.6063 5.65013 10.8826 5.66386 11.1711 5.66351C11.2335 5.66329 11.2335 5.66329 11.2972 5.66307C11.3852 5.66285 11.4732 5.66275 11.5612 5.66276C11.6941 5.66266 11.8269 5.66187 11.9598 5.66105C12.7971 5.65858 13.5781 5.69607 14.209 6.32152C14.6244 6.81582 14.7872 7.35005 14.7842 7.98863C14.7844 8.0274 14.7846 8.06616 14.7848 8.10611C14.7852 8.23474 14.785 8.36336 14.7849 8.492C14.785 8.58474 14.7853 8.67749 14.7855 8.77024C14.7861 9.0213 14.7861 9.27236 14.786 9.52342C14.786 9.73342 14.7862 9.94342 14.7864 10.1534C14.7869 10.6491 14.7869 11.1447 14.7866 11.6404C14.7864 12.1508 14.7869 12.6612 14.7878 13.1716C14.7886 13.6106 14.7889 14.0497 14.7887 14.4887C14.7886 14.7506 14.7887 15.0124 14.7894 15.2743C14.7899 15.5207 14.7898 15.767 14.7892 16.0134C14.7891 16.1035 14.7893 16.1935 14.7896 16.2836C14.7925 17.0731 14.7346 17.7797 14.1671 18.3883C13.6352 18.8702 13.0277 18.9959 12.334 18.9947C12.2688 18.9948 12.2688 18.9948 12.2022 18.995C12.057 18.9953 11.9118 18.9952 11.7666 18.9952C11.6623 18.9953 11.5579 18.9955 11.4536 18.9956C11.1999 18.996 10.9462 18.9961 10.6925 18.9961C10.4862 18.9962 10.2798 18.9962 10.0735 18.9964C9.48763 18.9968 8.90176 18.997 8.3159 18.9969C8.28435 18.9969 8.25281 18.9969 8.22031 18.9969C8.18873 18.9969 8.15714 18.9969 8.1246 18.9969C7.61301 18.9969 7.10143 18.9973 6.58984 18.9979C6.06373 18.9986 5.53761 18.9989 5.0115 18.9988C4.71646 18.9988 4.42142 18.9989 4.12637 18.9994C3.84878 18.9998 3.57119 18.9998 3.29359 18.9995C3.19195 18.9995 3.09032 18.9996 2.98868 18.9998C2.15105 19.0018 1.35162 19.0009 0.706 18.3816C0.277944 17.889 0.103248 17.3338 0.103921 16.6919C0.103793 16.6533 0.103664 16.6147 0.103531 16.5749C0.103155 16.4457 0.103089 16.3166 0.103024 16.1874C0.102823 16.0947 0.102605 16.0019 0.102371 15.9092C0.101802 15.6574 0.101522 15.4056 0.10133 15.1539C0.101202 14.9964 0.101024 14.839 0.10083 14.6815C0.100237 14.1885 0.0998179 13.6955 0.0996503 13.2024C0.0994561 12.6341 0.0986955 12.0657 0.0974379 11.4974C0.0964988 11.0576 0.0960624 10.6178 0.0960045 10.178C0.0959591 9.91557 0.0957049 9.65314 0.0949278 9.39071C0.0942104 9.14363 0.0941206 8.89655 0.0945001 8.64947C0.0945333 8.55912 0.0943468 8.46876 0.0939162 8.37841C0.0904851 7.61308 0.135363 6.89893 0.685326 6.30491C1.26059 5.76972 1.90574 5.66441 2.66054 5.66351Z" fill="#5B82F9"/>
<path d="M8.00547 0.204705C8.11432 0.30166 8.21695 0.404313 8.31968 0.507686C8.34997 0.537828 8.38026 0.56797 8.41148 0.599025C8.51106 0.698228 8.61032 0.797743 8.70957 0.897282C8.7789 0.966556 8.84825 1.03582 8.9176 1.10507C9.06269 1.25003 9.20762 1.39514 9.35244 1.54037C9.53799 1.72641 9.72393 1.91206 9.90998 2.0976C10.0532 2.24046 10.1961 2.38353 10.339 2.52666C10.4075 2.5952 10.4761 2.66368 10.5447 2.73209C10.6405 2.82771 10.7361 2.9236 10.8316 3.01957C10.8599 3.04773 10.8882 3.07588 10.9174 3.10489C11.1421 3.33164 11.2914 3.51662 11.3025 3.84874C11.258 4.11984 11.1576 4.28273 10.9432 4.45202C10.7771 4.55771 10.6265 4.55563 10.4348 4.54285C10.1114 4.4491 9.91394 4.21767 9.68396 3.98245C9.64163 3.9398 9.59927 3.89719 9.55687 3.85462C9.44601 3.7431 9.33569 3.63107 9.22547 3.51893C9.11265 3.40433 8.99933 3.29023 8.88606 3.17608C8.66434 2.95251 8.44318 2.72839 8.22238 2.50392C8.22231 2.551 8.22225 2.59808 8.22218 2.64658C8.22059 3.79216 8.21802 4.93773 8.2144 6.08331C8.21267 6.6373 8.21127 7.19129 8.21062 7.74528C8.21005 8.22815 8.20889 8.71101 8.20699 9.19387C8.20601 9.44954 8.20533 9.7052 8.20537 9.96087C8.20541 10.2016 8.20463 10.4423 8.20324 10.683C8.20287 10.7712 8.20279 10.8595 8.20304 10.9478C8.20332 11.0685 8.20255 11.1892 8.20151 11.3099C8.20184 11.3447 8.20218 11.3794 8.20253 11.4153C8.19885 11.6577 8.14172 11.8455 8.00547 12.0478C7.81869 12.2134 7.64311 12.2685 7.39813 12.2647C7.15661 12.2238 7.03243 12.1504 6.87755 11.9611C6.74238 11.7416 6.72861 11.5701 6.73011 11.3203C6.72982 11.2826 6.72953 11.2448 6.72924 11.2059C6.72843 11.0796 6.72854 10.9533 6.72865 10.827C6.72826 10.7363 6.72781 10.6457 6.72731 10.5551C6.72611 10.3091 6.72571 10.0632 6.72545 9.81728C6.72504 9.56021 6.72391 9.30315 6.72285 9.04608C6.72095 8.55936 6.71971 8.07264 6.71871 7.58592C6.71754 7.03177 6.71563 6.47763 6.71367 5.92348C6.70964 4.78363 6.70653 3.64378 6.70403 2.50392C6.68005 2.52818 6.65607 2.55245 6.63137 2.57745C6.40513 2.8063 6.17858 3.03483 5.95167 3.26302C5.83503 3.38033 5.71852 3.49777 5.60228 3.61548C5.49005 3.72913 5.37751 3.84245 5.26474 3.95555C5.22182 3.99871 5.17901 4.04199 5.13633 4.08538C5.07642 4.14623 5.01606 4.20664 4.95569 4.26703C4.92149 4.30152 4.88729 4.33601 4.85206 4.37154C4.67268 4.52289 4.50849 4.56102 4.27399 4.55352C4.06884 4.52808 3.93621 4.43248 3.8056 4.27985C3.68109 4.11265 3.65697 4.02812 3.64835 3.82163C3.64572 3.77812 3.64309 3.73462 3.64038 3.68979C3.70132 3.36249 4.00341 3.10951 4.23248 2.88193C4.26179 2.85247 4.2911 2.82301 4.32129 2.79266C4.41721 2.69636 4.51343 2.60039 4.60968 2.50443C4.67689 2.43717 4.74408 2.36989 4.81126 2.3026C4.95162 2.16212 5.09213 2.02179 5.23275 1.88157C5.41286 1.70196 5.59257 1.52196 5.77218 1.34184C5.91065 1.20305 6.04933 1.06448 6.18807 0.925958C6.25443 0.859657 6.32072 0.793291 6.38695 0.72686C6.47945 0.634145 6.57221 0.541713 6.66506 0.44935C6.69227 0.421968 6.71947 0.394585 6.7475 0.366373C7.13412 -0.0165257 7.54465 -0.145575 8.00547 0.204705Z" fill="#5B82F9"/>
</svg>
