<svg width="19" height="15" viewBox="0 0 19 15" fill="none" xmlns="http://www.w3.org/2000/svg">
<path d="M12.5 4.5C12.5 4.35313 11.841 3.70866 11.9722 3.71296C12.0794 3.71647 12.1782 3.76963 12.2789 3.80252C12.5281 3.88388 13.2417 3.44285 13.5 3.5C14.0543 3.62267 14.0091 4.41851 14.4798 4.71156C14.7821 4.89983 14.561 5.43035 14.4246 5.6574C14.2999 5.86486 14.1228 6.02145 13.9547 6.19105C13.7952 6.35205 13.6719 6.52312 13.5474 6.7112C13.4403 6.87295 13.3171 7.0119 13.1867 7.15529C12.9619 7.40265 12.7649 7.65867 12.5795 7.93675C12.2949 8.36355 12.0719 8.84096 11.7612 9.24817C11.4231 9.69136 10.9707 10.0509 10.4817 10.3142C10.2992 10.4125 10.0968 10.5395 9.88426 10.5535C9.6794 10.5669 9.47225 10.5649 9.2672 10.5706C8.9869 10.5785 8.64249 10.5417 8.36797 10.616C8.27998 10.6399 8.68266 10.8095 8.73109 10.8233C8.8077 10.8452 9.12338 10.8463 9.10894 10.9877C9.09237 11.1501 8.81591 11.083 8.74704 11.0025C8.65262 10.892 8.60963 10.7341 8.55689 10.6025C8.4751 10.3984 8.38362 10.1933 8.26247 10.0088C8.10351 9.7666 7.89312 9.62894 7.63313 9.50088C7.01854 9.19817 6.31838 9.06033 5.72795 8.71084C5.2838 8.44793 5.27691 7.82083 5.18572 7.36875C5.09297 6.90895 4.94639 6.50948 4.73672 6.088C4.51833 5.649 4.22248 5.22358 4.07426 4.75327C4.0043 4.53129 3.96326 4.30214 3.93809 4.07118C3.91728 3.88025 3.90041 3.77158 4.10983 3.73872C4.60765 3.66064 5.08507 3.98577 5.43107 4.31163C5.60098 4.47165 5.74489 4.65409 5.90215 4.82565C6.07524 5.01447 6.28075 5.17537 6.4726 5.34457C6.66318 5.51265 6.85904 5.65948 7.07495 5.79357C7.16262 5.84802 7.43548 5.97324 7.33257 5.96532C7.28012 5.96129 7.23483 5.87771 7.21357 5.84755C7.04903 5.614 6.88201 5.3863 6.69588 5.16914C6.53956 4.98678 6.4536 4.79145 6.31926 4.59869C6.28098 4.54377 6.21783 4.46011 6.15487 4.49074C5.93632 4.59706 5.73043 4.73643 5.5194 4.85632C5.34969 4.95272 5.10908 5.03696 4.98207 5.19491C4.67722 5.57402 4.13972 5.7369 3.72095 5.96532" stroke="white" stroke-width="6" stroke-linecap="round"/>
<path d="M3.9013 0.0836449C1.49602 0.600431 -0.11866 2.77177 0.00683267 5.33487C0.019382 5.62243 0.065396 6.01836 0.11141 6.21424C0.671945 8.68981 3.11487 11.4279 7.28961 14.2619C8.27263 14.9288 8.5278 15.0246 9.25148 14.9954C9.95842 14.9621 10.1969 14.8454 11.6275 13.8368C15.4215 11.1571 17.6595 8.56062 18.1908 6.21424C18.4334 5.15149 18.2828 3.80534 17.8059 2.79678C17.1408 1.37978 15.8901 0.39205 14.3758 0.0836449C13.8654 -0.020546 12.9954 -0.0288811 12.4976 0.0669746C11.8408 0.187836 11.2008 0.454565 10.5817 0.862993C10.2387 1.08805 9.54848 1.72569 9.28076 2.06327L9.15108 2.22998L9.01723 2.06327C8.23499 1.10472 7.20176 0.417056 6.09742 0.125321C5.5829 -0.0122108 4.44092 -0.0330486 3.9013 0.0836449ZM5.84644 1.18807C6.27311 1.29643 6.99679 1.67151 7.38163 1.97575C7.77066 2.28416 8.17642 2.7426 8.50689 3.23855C8.79134 3.66781 8.89592 3.75116 9.15108 3.75116C9.41462 3.75116 9.49828 3.68031 9.84548 3.15936C10.1676 2.67591 10.7532 2.06327 11.1464 1.80071C11.8826 1.30476 12.5687 1.08388 13.3886 1.08388C14.1164 1.08388 14.7355 1.25475 15.3714 1.63401C15.6767 1.81738 16.2205 2.32583 16.4506 2.64674C17.053 3.48444 17.3416 4.73473 17.1659 5.73496C16.9358 7.04776 16.1159 8.38557 14.5682 9.95677C13.5057 11.0362 12.2508 12.0698 10.6863 13.1575C9.77437 13.791 9.51501 13.9202 9.15527 13.9202C8.7997 13.9202 8.6031 13.8285 7.83759 13.3117C5.25662 11.5571 3.26547 9.72755 2.16113 8.08967C1.38307 6.94357 1.03169 5.86416 1.09026 4.85559C1.20738 3.00516 2.4163 1.52565 4.13137 1.14639C4.4953 1.06721 5.46996 1.08805 5.84644 1.18807Z" fill="white"/>
</svg>
