<svg width="19" height="15" viewBox="0 0 19 15" fill="none" xmlns="http://www.w3.org/2000/svg">
<path d="M3.9013 0.0836449C1.49602 0.600431 -0.11866 2.77177 0.00683267 5.33487C0.019382 5.62243 0.065396 6.01836 0.11141 6.21424C0.671945 8.68981 3.11487 11.4279 7.28961 14.2619C8.27263 14.9288 8.5278 15.0246 9.25148 14.9954C9.95842 14.9621 10.1969 14.8454 11.6275 13.8368C15.4215 11.1571 17.6595 8.56062 18.1908 6.21424C18.4334 5.15149 18.2828 3.80534 17.8059 2.79678C17.1408 1.37978 15.8901 0.39205 14.3758 0.0836449C13.8654 -0.020546 12.9954 -0.0288811 12.4976 0.0669746C11.8408 0.187836 11.2008 0.454565 10.5817 0.862993C10.2387 1.08805 9.54848 1.72569 9.28076 2.06327L9.15108 2.22998L9.01723 2.06327C8.23499 1.10472 7.20176 0.417056 6.09742 0.125321C5.5829 -0.0122108 4.44092 -0.0330486 3.9013 0.0836449ZM5.84644 1.18807C6.27311 1.29643 6.99679 1.67151 7.38163 1.97575C7.77066 2.28416 8.17642 2.7426 8.50689 3.23855C8.79134 3.66781 8.89592 3.75116 9.15108 3.75116C9.41462 3.75116 9.49828 3.68031 9.84548 3.15936C10.1676 2.67591 10.7532 2.06327 11.1464 1.80071C11.8826 1.30476 12.5687 1.08388 13.3886 1.08388C14.1164 1.08388 14.7355 1.25475 15.3714 1.63401C15.6767 1.81738 16.2205 2.32583 16.4506 2.64674C17.053 3.48444 17.3416 4.73473 17.1659 5.73496C16.9358 7.04776 16.1159 8.38557 14.5682 9.95677C13.5057 11.0362 12.2508 12.0698 10.6863 13.1575C9.77437 13.791 9.51501 13.9202 9.15527 13.9202C8.7997 13.9202 8.6031 13.8285 7.83759 13.3117C5.25662 11.5571 3.26547 9.72755 2.16113 8.08967C1.38307 6.94357 1.03169 5.86416 1.09026 4.85559C1.20738 3.00516 2.4163 1.52565 4.13137 1.14639C4.4953 1.06721 5.46996 1.08805 5.84644 1.18807Z" fill="white"/>
</svg>
