<svg width="277" height="41" viewBox="0 0 277 41" fill="none" xmlns="http://www.w3.org/2000/svg">
<circle cx="60.9715" cy="30.6508" r="8.97152" fill="white"/>
<circle cx="215.785" cy="5.78481" r="4.78481" fill="white"/>
<circle cx="48.3861" cy="4.38608" r="4.38608" fill="white"/>
<circle cx="67.9494" cy="18.0907" r="3.18987" fill="white"/>
<circle cx="223.655" cy="32.6445" r="4.98418" fill="white"/>
<circle cx="23.788" cy="7.78797" r="3.78797" fill="white"/>
<circle cx="39.1835" cy="18.1835" r="5.18354" fill="white"/>
<circle cx="208.991" cy="29.9905" r="2.99051" fill="white"/>
<circle cx="61.9684" cy="14.9008" r="2.39241" fill="white"/>
<circle cx="72.3355" cy="38.0274" r="1.99367" fill="white"/>
<circle cx="272.187" cy="14.1867" r="4.18671" fill="white"/>
<circle cx="255.589" cy="5.58861" r="3.58861" fill="white"/>
<path d="M84.1659 26.2952C83.6507 26.2952 83.1661 26.2613 82.7119 26.1935C82.2645 26.1257 81.8782 26.0376 81.5528 25.9291C81.3698 25.8613 81.224 25.7495 81.1156 25.5936C81.0139 25.4377 80.9631 25.2614 80.9631 25.0649C80.9631 24.97 80.9698 24.8954 80.9834 24.8412L81.2478 23.5092C81.3901 22.7704 81.7968 22.4009 82.4679 22.4009C82.5831 22.4009 82.7017 22.4111 82.8237 22.4314C83.0678 22.4721 83.2542 22.4924 83.383 22.4924C83.6948 22.4924 83.9591 22.3026 84.1761 21.923C84.393 21.5435 84.5184 21.0622 84.5523 20.4792L85.0708 12.3857C85.0912 12.0942 85.1996 11.857 85.3962 11.674C85.5928 11.491 85.8368 11.3995 86.1283 11.3995H95.0555C95.3538 11.3995 95.5978 11.4977 95.7876 11.6943C95.9842 11.8841 96.0825 12.1281 96.0825 12.4264L96.0926 25.2174C96.0926 25.475 96.0045 25.6919 95.8283 25.8681C95.6588 26.0376 95.4453 26.1223 95.1877 26.1223H92.7169C92.4594 26.1223 92.2424 26.0376 92.0662 25.8681C91.8967 25.6919 91.812 25.475 91.812 25.2174V16.4426C91.812 16.0359 91.7341 15.7478 91.5782 15.5784C91.4223 15.4021 91.1748 15.314 90.8359 15.314H90.0835C89.7581 15.314 89.5175 15.3954 89.3616 15.5581C89.2057 15.7207 89.1142 15.9987 89.0871 16.3918L88.8125 20.7538C88.7448 21.8586 88.5041 22.8314 88.0906 23.6719C87.6839 24.5056 87.1416 25.153 86.4638 25.6139C85.7859 26.0681 85.02 26.2952 84.1659 26.2952ZM103.31 22.1976C103.513 22.062 103.615 21.8722 103.615 21.6282C103.615 21.4926 103.578 21.3435 103.503 21.1808L99.5782 12.8128C99.463 12.5755 99.4054 12.3484 99.4054 12.1315C99.4054 11.9011 99.4766 11.7214 99.6189 11.5926C99.7613 11.4638 99.9545 11.3995 100.198 11.3995H101.825C102.313 11.3995 102.703 11.4367 102.995 11.5113C103.286 11.5859 103.523 11.718 103.706 11.9078C103.896 12.0909 104.059 12.362 104.194 12.7213L105.455 15.9546C105.537 16.1579 105.642 16.3139 105.77 16.4223C105.899 16.524 106.042 16.5748 106.197 16.5748C106.347 16.5748 106.486 16.5274 106.614 16.4325C106.75 16.3308 106.858 16.1851 106.94 15.9953L108.383 12.7518C108.546 12.3857 108.719 12.1078 108.902 11.918C109.085 11.7282 109.316 11.596 109.593 11.5215C109.871 11.4401 110.251 11.3995 110.732 11.3995H112.613C112.857 11.3995 113.05 11.4605 113.193 11.5825C113.342 11.7045 113.417 11.8739 113.417 12.0909C113.417 12.2942 113.345 12.5348 113.203 12.8128L107.651 23.377C107.279 24.082 106.862 24.648 106.401 25.075C105.94 25.4953 105.404 25.8037 104.794 26.0003C104.191 26.1969 103.479 26.2952 102.659 26.2952C102.083 26.2952 101.53 26.2342 101.002 26.1121C100.48 25.9901 100.076 25.8512 99.7918 25.6953C99.6223 25.6071 99.4901 25.4716 99.3952 25.2886C99.3003 25.0988 99.2529 24.8852 99.2529 24.648C99.2529 24.5734 99.2664 24.448 99.2936 24.2718L99.5172 23.1432C99.5918 22.7907 99.724 22.5196 99.9138 22.3298C100.11 22.14 100.365 22.0451 100.676 22.0451C100.859 22.0451 101.08 22.0823 101.337 22.1569C101.839 22.306 102.242 22.3806 102.547 22.3806C102.866 22.3806 103.11 22.3264 103.279 22.2179L103.31 22.1976ZM117.358 26.1223C117.06 26.1223 116.812 26.0274 116.616 25.8376C116.426 25.641 116.331 25.3936 116.331 25.0954V12.4264C116.331 12.0942 116.419 11.8401 116.595 11.6638C116.771 11.4876 117.026 11.3995 117.358 11.3995H124.933C125.265 11.3995 125.519 11.4876 125.695 11.6638C125.872 11.8401 125.96 12.0942 125.96 12.4264V14.2871C125.96 14.5989 125.868 14.8497 125.685 15.0395C125.502 15.2225 125.251 15.314 124.933 15.314H121.832C121.472 15.314 121.177 15.4293 120.947 15.6597C120.717 15.8902 120.601 16.1851 120.601 16.5443V25.0954C120.601 25.3936 120.503 25.641 120.306 25.8376C120.117 26.0274 119.873 26.1223 119.574 26.1223H117.358ZM136.018 26.3257C134.56 26.3257 133.249 26.0037 132.083 25.3597C130.924 24.709 130.015 23.8109 129.358 22.6653C128.7 21.5129 128.372 20.2149 128.372 18.7711C128.372 17.3272 128.7 16.0292 129.358 14.8768C130.015 13.7245 130.924 12.8229 132.083 12.1722C133.249 11.5215 134.56 11.1961 136.018 11.1961C137.482 11.1961 138.797 11.5215 139.963 12.1722C141.129 12.8229 142.04 13.7245 142.698 14.8768C143.362 16.0292 143.694 17.3272 143.694 18.7711C143.694 20.2149 143.366 21.5129 142.708 22.6653C142.051 23.8109 141.136 24.709 139.963 25.3597C138.797 26.0037 137.482 26.3257 136.018 26.3257ZM132.642 18.7711C132.642 19.4489 132.788 20.0556 133.079 20.5911C133.371 21.1266 133.774 21.5468 134.289 21.8519C134.804 22.1569 135.384 22.3094 136.028 22.3094C136.679 22.3094 137.262 22.1569 137.777 21.8519C138.292 21.5468 138.695 21.1266 138.987 20.5911C139.278 20.0556 139.424 19.4489 139.424 18.7711C139.424 18.0932 139.278 17.4831 138.987 16.9409C138.695 16.3986 138.292 15.9749 137.777 15.6699C137.262 15.3649 136.679 15.2123 136.028 15.2123C135.384 15.2123 134.804 15.3649 134.289 15.6699C133.774 15.9749 133.371 16.3986 133.079 16.9409C132.788 17.4831 132.642 18.0932 132.642 18.7711ZM147.889 21.2723C147.557 21.2723 147.303 21.1876 147.127 21.0181C146.957 20.8419 146.872 20.5877 146.872 20.2555V19.2388C146.872 18.9066 146.957 18.6558 147.127 18.4864C147.303 18.3101 147.557 18.222 147.889 18.222H154.214C154.546 18.222 154.796 18.3101 154.966 18.4864C155.142 18.6558 155.23 18.9066 155.23 19.2388V20.2555C155.23 20.5877 155.142 20.8419 154.966 21.0181C154.796 21.1876 154.546 21.2723 154.214 21.2723H147.889ZM163.086 25.0954C163.086 25.4343 163.001 25.6919 162.832 25.8681C162.662 26.0376 162.412 26.1223 162.079 26.1223H159.954C159.622 26.1223 159.368 26.0376 159.192 25.8681C159.022 25.6919 158.938 25.4377 158.938 25.1055V12.4162C158.938 12.0841 159.022 11.8333 159.192 11.6638C159.368 11.4876 159.622 11.3995 159.954 11.3995H162.029C162.53 11.3995 162.933 11.4944 163.239 11.6841C163.55 11.8739 163.815 12.2095 164.032 12.6908L166.218 17.4899C166.306 17.6933 166.407 17.8492 166.523 17.9576C166.645 18.0593 166.767 18.1101 166.889 18.1101C167.011 18.1101 167.129 18.0559 167.245 17.9475C167.367 17.839 167.475 17.6831 167.57 17.4798L169.705 12.6908C169.922 12.2163 170.183 11.8841 170.488 11.6943C170.793 11.4977 171.2 11.3995 171.708 11.3995H173.782C174.115 11.3995 174.365 11.4876 174.535 11.6638C174.711 11.8333 174.799 12.0841 174.799 12.4162V25.1055C174.799 25.4377 174.711 25.6919 174.535 25.8681C174.365 26.0376 174.115 26.1223 173.782 26.1223H171.657C171.325 26.1223 171.074 26.0376 170.905 25.8681C170.736 25.6919 170.651 25.4343 170.651 25.0954L170.661 21.4147C170.661 21.1503 170.61 20.9436 170.508 20.7944C170.407 20.6453 170.281 20.5707 170.132 20.5707C170.01 20.5707 169.892 20.625 169.776 20.7334C169.661 20.8351 169.566 20.9876 169.492 21.191L168.668 23.4685C168.329 24.4175 167.729 24.892 166.868 24.892C166.008 24.892 165.408 24.4175 165.069 23.4685L164.245 21.191C164.171 20.9876 164.076 20.8351 163.96 20.7334C163.845 20.625 163.727 20.5707 163.605 20.5707C163.455 20.5707 163.33 20.6453 163.228 20.7944C163.127 20.9436 163.076 21.1503 163.076 21.4147L163.086 25.0954ZM183.145 16.0461C183.138 16.3579 183.196 16.6019 183.318 16.7782C183.44 16.9544 183.595 17.0425 183.785 17.0425C183.934 17.0425 184.084 16.9883 184.233 16.8799C184.389 16.7646 184.531 16.5985 184.66 16.3816L186.886 12.6297C187.076 12.3044 187.266 12.057 187.456 11.8875C187.646 11.7113 187.859 11.5892 188.096 11.5215C188.334 11.4537 188.632 11.4164 188.991 11.4096L190.842 11.3995C191.174 11.3995 191.425 11.4876 191.594 11.6638C191.77 11.8333 191.858 12.0841 191.858 12.4162V25.1055C191.858 25.4377 191.77 25.6919 191.594 25.8681C191.425 26.0376 191.174 26.1223 190.842 26.1223H188.747C188.415 26.1223 188.161 26.0342 187.985 25.858C187.815 25.6817 187.734 25.4275 187.741 25.0954L187.802 20.7843C187.808 20.4725 187.747 20.2284 187.618 20.0522C187.49 19.8692 187.327 19.7777 187.13 19.7777C186.995 19.7777 186.853 19.8285 186.703 19.9302C186.561 20.0251 186.429 20.1708 186.307 20.3674L183.368 25.1971C183.165 25.536 182.928 25.7766 182.657 25.919C182.392 26.0545 182.033 26.1223 181.579 26.1223H180.094C179.762 26.1223 179.508 26.0376 179.332 25.8681C179.162 25.6919 179.078 25.4377 179.078 25.1055V12.4162C179.078 12.0841 179.162 11.8333 179.332 11.6638C179.508 11.4876 179.762 11.3995 180.094 11.3995H182.199C182.531 11.3995 182.782 11.4876 182.952 11.6638C183.128 11.8401 183.212 12.0942 183.206 12.4264L183.145 16.0461ZM200.39 25.1055C200.39 25.4377 200.302 25.6919 200.126 25.8681C199.956 26.0376 199.705 26.1223 199.373 26.1223H197.136C196.804 26.1223 196.55 26.0376 196.374 25.8681C196.204 25.6919 196.12 25.4377 196.12 25.1055V12.4162C196.12 12.0841 196.204 11.8333 196.374 11.6638C196.55 11.4876 196.804 11.3995 197.136 11.3995H202.515C203.566 11.3995 204.505 11.613 205.332 12.04C206.159 12.4671 206.806 13.067 207.274 13.8397C207.741 14.6057 207.975 15.4835 207.975 16.4731C207.975 17.4018 207.738 18.2457 207.263 19.0049C206.796 19.7641 206.145 20.364 205.311 20.8046C204.484 21.2384 203.552 21.4553 202.515 21.4553H201.407C201.075 21.4553 200.821 21.5435 200.644 21.7197C200.475 21.8892 200.39 22.14 200.39 22.4721V25.1055ZM200.39 16.6053C200.39 16.9917 200.488 17.2832 200.685 17.4798C200.882 17.6763 201.19 17.7746 201.61 17.7746H202.119C202.647 17.7746 203.044 17.6628 203.308 17.4391C203.573 17.2154 203.705 16.907 203.705 16.5138C203.705 16.1274 203.573 15.8224 203.308 15.5987C203.044 15.375 202.647 15.2632 202.119 15.2632H201.61C201.176 15.2632 200.865 15.3581 200.675 15.5479C200.485 15.7377 200.39 16.0495 200.39 16.4833V16.6053Z" fill="white"/>
<path d="M98.7317 34.5223C98.3787 34.5223 98.0536 34.4642 97.7566 34.348C97.4595 34.2317 97.2012 34.0703 96.9816 33.8636C96.762 33.6527 96.592 33.4073 96.4714 33.1274C96.3509 32.8433 96.2906 32.5333 96.2906 32.1975C96.2906 31.8617 96.3509 31.5538 96.4714 31.274C96.592 30.9899 96.762 30.7445 96.9816 30.5378C97.2012 30.3268 97.4595 30.1632 97.7566 30.047C98.0536 29.9308 98.3765 29.8726 98.7252 29.8726C99.0783 29.8726 99.4012 29.9308 99.6939 30.047C99.991 30.1632 100.249 30.3268 100.469 30.5378C100.688 30.7445 100.859 30.9899 100.979 31.274C101.1 31.5538 101.16 31.8617 101.16 32.1975C101.16 32.5333 101.1 32.8433 100.979 33.1274C100.859 33.4116 100.688 33.657 100.469 33.8636C100.249 34.0703 99.991 34.2317 99.6939 34.348C99.4012 34.4642 99.0804 34.5223 98.7317 34.5223ZM98.7252 33.7861C98.9534 33.7861 99.1644 33.7474 99.3581 33.6699C99.5519 33.5924 99.7198 33.4826 99.8618 33.3405C100.004 33.1942 100.114 33.0263 100.191 32.8368C100.273 32.6431 100.314 32.43 100.314 32.1975C100.314 31.965 100.273 31.754 100.191 31.5646C100.114 31.3709 100.004 31.203 99.8618 31.0609C99.7198 30.9145 99.5519 30.8026 99.3581 30.7251C99.1644 30.6476 98.9534 30.6088 98.7252 30.6088C98.4971 30.6088 98.2861 30.6476 98.0924 30.7251C97.9029 30.8026 97.735 30.9145 97.5886 31.0609C97.4466 31.203 97.3346 31.3709 97.2528 31.5646C97.1753 31.754 97.1366 31.965 97.1366 32.1975C97.1366 32.4257 97.1753 32.6366 97.2528 32.8304C97.3346 33.0241 97.4466 33.1942 97.5886 33.3405C97.7307 33.4826 97.8986 33.5924 98.0924 33.6699C98.2861 33.7474 98.4971 33.7861 98.7252 33.7861ZM103.644 34.5223C103.36 34.5223 103.106 34.4793 102.882 34.3932C102.659 34.3071 102.465 34.1758 102.301 33.9993C102.142 33.8184 102.019 33.5902 101.933 33.3147C101.847 33.0392 101.804 32.712 101.804 32.3331C101.804 32.0576 101.828 31.8057 101.875 31.5775C101.922 31.3493 101.993 31.1448 102.088 30.964C102.183 30.7789 102.301 30.6153 102.443 30.4732C102.59 30.3311 102.76 30.2128 102.953 30.118C103.147 30.0233 103.367 29.9501 103.612 29.8985L105.214 29.5562L105.33 30.2795L103.877 30.5766C103.795 30.5938 103.696 30.6196 103.58 30.654C103.468 30.6842 103.352 30.7315 103.231 30.7961C103.115 30.8564 103.005 30.9447 102.902 31.0609C102.803 31.1728 102.721 31.3192 102.656 31.5C102.596 31.6766 102.566 31.8983 102.566 32.1652C102.566 32.247 102.568 32.3094 102.572 32.3525C102.581 32.3912 102.587 32.4343 102.592 32.4816C102.6 32.5247 102.605 32.5893 102.605 32.6754L102.301 32.3589C102.387 32.1394 102.506 31.9521 102.656 31.7971C102.811 31.6378 102.99 31.5173 103.192 31.4355C103.399 31.3493 103.623 31.3063 103.864 31.3063C104.187 31.3063 104.473 31.373 104.723 31.5065C104.973 31.64 105.168 31.8272 105.311 32.0683C105.453 32.3094 105.524 32.5828 105.524 32.8885C105.524 33.2071 105.446 33.4891 105.291 33.7345C105.136 33.9799 104.917 34.1736 104.632 34.3157C104.353 34.4535 104.023 34.5223 103.644 34.5223ZM103.709 33.8701C103.903 33.8701 104.073 33.8292 104.219 33.7474C104.37 33.6613 104.486 33.545 104.568 33.3987C104.654 33.2523 104.697 33.0887 104.697 32.9079C104.697 32.727 104.654 32.5699 104.568 32.4364C104.486 32.2987 104.37 32.1889 104.219 32.1071C104.073 32.0253 103.898 31.9844 103.696 31.9844C103.502 31.9844 103.328 32.0231 103.173 32.1006C103.022 32.1781 102.904 32.2857 102.818 32.4235C102.736 32.557 102.695 32.712 102.695 32.8885C102.695 33.0693 102.738 33.2351 102.824 33.3857C102.91 33.5364 103.029 33.6548 103.179 33.7409C103.334 33.827 103.511 33.8701 103.709 33.8701ZM108.388 32.1394C108.827 32.1394 109.16 32.2405 109.388 32.4429C109.617 32.6409 109.731 32.9186 109.731 33.276C109.731 33.6548 109.602 33.9476 109.343 34.1542C109.089 34.3566 108.728 34.4578 108.258 34.4578H106.702V31.6938H105.682V31.0092H107.509V32.1394H108.388ZM108.22 33.8636C108.448 33.8636 108.62 33.812 108.736 33.7086C108.852 33.6053 108.911 33.4546 108.911 33.2566C108.911 32.8863 108.68 32.7012 108.22 32.7012H107.509V33.8636H108.22ZM112.385 34.4578V33.2824L112.502 33.418H111.468C110.995 33.418 110.622 33.319 110.351 33.121C110.084 32.9186 109.951 32.628 109.951 32.2492C109.951 31.8445 110.093 31.5366 110.377 31.3257C110.665 31.1147 111.049 31.0092 111.527 31.0092H113.109V34.4578H112.385ZM109.906 34.4578L110.836 33.1403H111.662L110.771 34.4578H109.906ZM112.385 33.0241V31.4742L112.502 31.6873H111.552C111.303 31.6873 111.109 31.7347 110.971 31.8294C110.838 31.9198 110.771 32.0683 110.771 32.275C110.771 32.6625 111.023 32.8562 111.527 32.8562H112.502L112.385 33.0241ZM114.195 34.4578V31.0092H115.88C116.298 31.0092 116.625 31.0867 116.862 31.2417C117.103 31.3967 117.223 31.6163 117.223 31.9004C117.223 32.1803 117.111 32.3998 116.888 32.5591C116.664 32.7141 116.367 32.7916 115.996 32.7916L116.093 32.5914C116.511 32.5914 116.821 32.6689 117.023 32.8239C117.23 32.9746 117.333 33.1963 117.333 33.4891C117.333 33.7948 117.219 34.0337 116.991 34.2059C116.763 34.3738 116.416 34.4578 115.951 34.4578H114.195ZM114.963 33.8701H115.887C116.106 33.8701 116.272 33.8357 116.384 33.7668C116.496 33.6936 116.552 33.5838 116.552 33.4374C116.552 33.2824 116.5 33.1683 116.397 33.0951C116.293 33.022 116.132 32.9854 115.912 32.9854H114.963V33.8701ZM114.963 32.4493H115.809C116.016 32.4493 116.171 32.4128 116.274 32.3396C116.382 32.2621 116.435 32.1544 116.435 32.0167C116.435 31.8746 116.382 31.7691 116.274 31.7002C116.171 31.6313 116.016 31.5969 115.809 31.5969H114.963V32.4493ZM117.689 34.4513L117.728 33.7732C117.758 33.7775 117.786 33.7818 117.812 33.7861C117.838 33.7904 117.861 33.7926 117.883 33.7926C118.016 33.7926 118.12 33.7517 118.193 33.6699C118.266 33.5881 118.32 33.4783 118.354 33.3405C118.393 33.1985 118.419 33.0413 118.432 32.8691C118.449 32.6926 118.462 32.5161 118.471 32.3396L118.529 31.0092H121.319V34.4578H120.511V31.4742L120.699 31.6938H119.058L119.233 31.4677L119.187 32.3783C119.175 32.684 119.149 32.9681 119.11 33.2308C119.075 33.4891 119.02 33.7151 118.942 33.9088C118.869 34.1026 118.766 34.2533 118.632 34.3609C118.503 34.4685 118.337 34.5223 118.135 34.5223C118.07 34.5223 117.999 34.5159 117.922 34.503C117.848 34.4901 117.771 34.4728 117.689 34.4513ZM124.014 34.503C123.631 34.503 123.295 34.4276 123.006 34.2769C122.722 34.122 122.5 33.911 122.341 33.6441C122.186 33.3771 122.109 33.0736 122.109 32.7335C122.109 32.3891 122.184 32.0856 122.335 31.8229C122.49 31.556 122.701 31.3472 122.968 31.1965C123.239 31.0458 123.547 30.9705 123.891 30.9705C124.227 30.9705 124.526 31.0437 124.789 31.1901C125.051 31.3364 125.258 31.5431 125.409 31.81C125.559 32.0769 125.635 32.3912 125.635 32.7529C125.635 32.7873 125.633 32.8261 125.628 32.8691C125.628 32.9122 125.626 32.9531 125.622 32.9918H122.748V32.4558H125.196L124.879 32.6237C124.883 32.4257 124.842 32.2513 124.756 32.1006C124.67 31.9499 124.552 31.8315 124.401 31.7454C124.255 31.6593 124.085 31.6163 123.891 31.6163C123.693 31.6163 123.519 31.6593 123.368 31.7454C123.222 31.8315 123.105 31.9521 123.019 32.1071C122.937 32.2578 122.896 32.4364 122.896 32.6431V32.7722C122.896 32.9789 122.944 33.1619 123.039 33.3212C123.133 33.4805 123.267 33.6032 123.439 33.6893C123.611 33.7754 123.809 33.8184 124.033 33.8184C124.227 33.8184 124.401 33.7883 124.556 33.728C124.711 33.6677 124.849 33.573 124.969 33.4439L125.402 33.9411C125.247 34.122 125.051 34.2619 124.815 34.3609C124.582 34.4556 124.315 34.503 124.014 34.503ZM126.518 34.4578V31.0092H127.325V32.4106H129.062V31.0092H129.869V34.4578H129.062V33.0951H127.325V34.4578H126.518ZM130.951 34.4578V31.0092H131.758V33.2824L133.663 31.0092H134.4V34.4578H133.592V32.1846L131.694 34.4578H130.951ZM137.675 34.4578V33.2824L137.791 33.418H136.758C136.284 33.418 135.912 33.319 135.641 33.121C135.374 32.9186 135.24 32.628 135.24 32.2492C135.24 31.8445 135.382 31.5366 135.666 31.3257C135.955 31.1147 136.338 31.0092 136.816 31.0092H138.398V34.4578H137.675ZM135.195 34.4578L136.125 33.1403H136.951L136.06 34.4578H135.195ZM137.675 33.0241V31.4742L137.791 31.6873H136.842C136.592 31.6873 136.398 31.7347 136.26 31.8294C136.127 31.9198 136.06 32.0683 136.06 32.275C136.06 32.6625 136.312 32.8562 136.816 32.8562H137.791L137.675 33.0241ZM141.269 34.4578V31.0092H142.954C143.372 31.0092 143.699 31.0867 143.936 31.2417C144.177 31.3967 144.297 31.6163 144.297 31.9004C144.297 32.1803 144.185 32.3998 143.962 32.5591C143.738 32.7141 143.441 32.7916 143.07 32.7916L143.167 32.5914C143.585 32.5914 143.895 32.6689 144.097 32.8239C144.304 32.9746 144.407 33.1963 144.407 33.4891C144.407 33.7948 144.293 34.0337 144.065 34.2059C143.837 34.3738 143.49 34.4578 143.025 34.4578H141.269ZM142.037 33.8701H142.961C143.18 33.8701 143.346 33.8357 143.458 33.7668C143.57 33.6936 143.626 33.5838 143.626 33.4374C143.626 33.2824 143.574 33.1683 143.471 33.0951C143.367 33.022 143.206 32.9854 142.986 32.9854H142.037V33.8701ZM142.037 32.4493H142.883C143.09 32.4493 143.245 32.4128 143.348 32.3396C143.456 32.2621 143.51 32.1544 143.51 32.0167C143.51 31.8746 143.456 31.7691 143.348 31.7002C143.245 31.6313 143.09 31.5969 142.883 31.5969H142.037V32.4493ZM147.052 34.4578V31.0092H148.737C149.155 31.0092 149.482 31.0867 149.719 31.2417C149.96 31.3967 150.081 31.6163 150.081 31.9004C150.081 32.1803 149.969 32.3998 149.745 32.5591C149.521 32.7141 149.224 32.7916 148.854 32.7916L148.95 32.5914C149.368 32.5914 149.678 32.6689 149.88 32.8239C150.087 32.9746 150.19 33.1963 150.19 33.4891C150.19 33.7948 150.076 34.0337 149.848 34.2059C149.62 34.3738 149.273 34.4578 148.808 34.4578H147.052ZM147.82 33.8701H148.744C148.963 33.8701 149.129 33.8357 149.241 33.7668C149.353 33.6936 149.409 33.5838 149.409 33.4374C149.409 33.2824 149.357 33.1683 149.254 33.0951C149.151 33.022 148.989 32.9854 148.77 32.9854H147.82V33.8701ZM147.82 32.4493H148.666C148.873 32.4493 149.028 32.4128 149.131 32.3396C149.239 32.2621 149.293 32.1544 149.293 32.0167C149.293 31.8746 149.239 31.7691 149.131 31.7002C149.028 31.6313 148.873 31.5969 148.666 31.5969H147.82V32.4493ZM153.142 34.4578V33.7603L153.097 33.6118V32.3912C153.097 32.1544 153.026 31.9715 152.884 31.8423C152.742 31.7088 152.527 31.6421 152.238 31.6421C152.045 31.6421 151.853 31.6722 151.664 31.7325C151.479 31.7928 151.321 31.8767 151.192 31.9844L150.876 31.3967C151.061 31.2546 151.28 31.1492 151.534 31.0803C151.793 31.0071 152.06 30.9705 152.335 30.9705C152.835 30.9705 153.22 31.091 153.491 31.3321C153.767 31.5689 153.905 31.937 153.905 32.4364V34.4578H153.142ZM152.058 34.503C151.799 34.503 151.573 34.4599 151.379 34.3738C151.186 34.2834 151.035 34.1607 150.927 34.0057C150.824 33.8464 150.772 33.6677 150.772 33.4697C150.772 33.276 150.818 33.1016 150.908 32.9466C151.003 32.7916 151.156 32.6689 151.367 32.5785C151.578 32.4881 151.857 32.4429 152.206 32.4429H153.207V32.9789H152.264C151.989 32.9789 151.804 33.0241 151.709 33.1145C151.614 33.2006 151.567 33.3083 151.567 33.4374C151.567 33.5838 151.625 33.7 151.741 33.7861C151.857 33.8722 152.019 33.9153 152.225 33.9153C152.424 33.9153 152.6 33.8701 152.755 33.7797C152.914 33.6893 153.028 33.5558 153.097 33.3793L153.233 33.8636C153.155 34.066 153.015 34.2231 152.813 34.3351C152.615 34.447 152.363 34.503 152.058 34.503ZM157.222 33.7732L157.047 33.967V31.0092H157.855V33.967L157.661 33.7732H159.366L159.179 33.967V31.0092H159.986V34.4578H154.903V31.0092H155.711V33.967L155.523 33.7732H157.222ZM162.679 34.503C162.296 34.503 161.96 34.4276 161.672 34.2769C161.388 34.122 161.166 33.911 161.007 33.6441C160.852 33.3771 160.774 33.0736 160.774 32.7335C160.774 32.3891 160.85 32.0856 161 31.8229C161.155 31.556 161.366 31.3472 161.633 31.1965C161.904 31.0458 162.212 30.9705 162.557 30.9705C162.892 30.9705 163.192 31.0437 163.454 31.1901C163.717 31.3364 163.924 31.5431 164.074 31.81C164.225 32.0769 164.3 32.3912 164.3 32.7529C164.3 32.7873 164.298 32.8261 164.294 32.8691C164.294 32.9122 164.292 32.9531 164.287 32.9918H161.414V32.4558H163.861L163.545 32.6237C163.549 32.4257 163.508 32.2513 163.422 32.1006C163.336 31.9499 163.217 31.8315 163.067 31.7454C162.92 31.6593 162.75 31.6163 162.557 31.6163C162.359 31.6163 162.184 31.6593 162.033 31.7454C161.887 31.8315 161.771 31.9521 161.685 32.1071C161.603 32.2578 161.562 32.4364 161.562 32.6431V32.7722C161.562 32.9789 161.609 33.1619 161.704 33.3212C161.799 33.4805 161.932 33.6032 162.105 33.6893C162.277 33.7754 162.475 33.8184 162.699 33.8184C162.892 33.8184 163.067 33.7883 163.222 33.728C163.377 33.6677 163.515 33.573 163.635 33.4439L164.068 33.9411C163.913 34.122 163.717 34.2619 163.48 34.3609C163.248 34.4556 162.981 34.503 162.679 34.503ZM165.183 34.4578V31.0092H166.029L167.418 33.4568H167.082L168.541 31.0092H169.297L169.303 34.4578H168.574V31.8746L168.703 31.9585L167.411 34.0961H167.062L165.764 31.9004L165.919 31.8617V34.4578H165.183ZM172.171 34.4578V31.0092H174.819V31.6938H172.791L172.978 31.5129V34.4578H172.171ZM176.792 34.503C176.439 34.503 176.124 34.4276 175.849 34.2769C175.573 34.122 175.356 33.911 175.197 33.6441C175.037 33.3771 174.958 33.0736 174.958 32.7335C174.958 32.3891 175.037 32.0856 175.197 31.8229C175.356 31.556 175.573 31.3472 175.849 31.1965C176.124 31.0458 176.439 30.9705 176.792 30.9705C177.149 30.9705 177.465 31.0458 177.741 31.1965C178.021 31.3472 178.238 31.5538 178.393 31.8165C178.553 32.0791 178.632 32.3848 178.632 32.7335C178.632 33.0736 178.553 33.3771 178.393 33.6441C178.238 33.911 178.021 34.122 177.741 34.2769C177.465 34.4276 177.149 34.503 176.792 34.503ZM176.792 33.812C176.99 33.812 177.166 33.7689 177.321 33.6828C177.476 33.5967 177.597 33.4719 177.683 33.3083C177.773 33.1447 177.819 32.9531 177.819 32.7335C177.819 32.5096 177.773 32.318 177.683 32.1587C177.597 31.9951 177.476 31.8703 177.321 31.7842C177.166 31.6981 176.992 31.655 176.798 31.655C176.6 31.655 176.424 31.6981 176.269 31.7842C176.118 31.8703 175.997 31.9951 175.907 32.1587C175.817 32.318 175.771 32.5096 175.771 32.7335C175.771 32.9531 175.817 33.1447 175.907 33.3083C175.997 33.4719 176.118 33.5967 176.269 33.6828C176.424 33.7689 176.598 33.812 176.792 33.812ZM181.341 34.503C181.061 34.503 180.805 34.4384 180.573 34.3092C180.345 34.1801 180.162 33.9863 180.024 33.728C179.89 33.4654 179.824 33.1339 179.824 32.7335C179.824 32.3288 179.888 31.9973 180.017 31.739C180.151 31.4807 180.332 31.2891 180.56 31.1642C180.788 31.0351 181.048 30.9705 181.341 30.9705C181.681 30.9705 181.981 31.0437 182.239 31.1901C182.502 31.3364 182.708 31.5409 182.859 31.8036C183.014 32.0662 183.091 32.3762 183.091 32.7335C183.091 33.0908 183.014 33.403 182.859 33.6699C182.708 33.9325 182.502 34.137 182.239 34.2834C181.981 34.4298 181.681 34.503 181.341 34.503ZM179.43 35.7106V31.0092H180.198V31.8229L180.172 32.74L180.237 33.657V35.7106H179.43ZM181.251 33.812C181.445 33.812 181.617 33.7689 181.767 33.6828C181.922 33.5967 182.045 33.4719 182.136 33.3083C182.226 33.1447 182.271 32.9531 182.271 32.7335C182.271 32.5096 182.226 32.318 182.136 32.1587C182.045 31.9951 181.922 31.8703 181.767 31.7842C181.617 31.6981 181.445 31.655 181.251 31.655C181.057 31.655 180.883 31.6981 180.728 31.7842C180.573 31.8703 180.45 31.9951 180.36 32.1587C180.269 32.318 180.224 32.5096 180.224 32.7335C180.224 32.9531 180.269 33.1447 180.36 33.3083C180.45 33.4719 180.573 33.5967 180.728 33.6828C180.883 33.7689 181.057 33.812 181.251 33.812ZM185.432 34.503C185.079 34.503 184.764 34.4276 184.489 34.2769C184.213 34.122 183.996 33.911 183.837 33.6441C183.677 33.3771 183.598 33.0736 183.598 32.7335C183.598 32.3891 183.677 32.0856 183.837 31.8229C183.996 31.556 184.213 31.3472 184.489 31.1965C184.764 31.0458 185.079 30.9705 185.432 30.9705C185.789 30.9705 186.105 31.0458 186.381 31.1965C186.661 31.3472 186.878 31.5538 187.033 31.8165C187.193 32.0791 187.272 32.3848 187.272 32.7335C187.272 33.0736 187.193 33.3771 187.033 33.6441C186.878 33.911 186.661 34.122 186.381 34.2769C186.105 34.4276 185.789 34.503 185.432 34.503ZM185.432 33.812C185.63 33.812 185.806 33.7689 185.961 33.6828C186.116 33.5967 186.237 33.4719 186.323 33.3083C186.413 33.1447 186.459 32.9531 186.459 32.7335C186.459 32.5096 186.413 32.318 186.323 32.1587C186.237 31.9951 186.116 31.8703 185.961 31.7842C185.806 31.6981 185.632 31.655 185.438 31.655C185.24 31.655 185.064 31.6981 184.909 31.7842C184.758 31.8703 184.637 31.9951 184.547 32.1587C184.457 32.318 184.411 32.5096 184.411 32.7335C184.411 32.9531 184.457 33.1447 184.547 33.3083C184.637 33.4719 184.758 33.5967 184.909 33.6828C185.064 33.7689 185.238 33.812 185.432 33.812ZM190.395 34.0832V31.6938H189.072L189.052 32.2492C189.044 32.4472 189.031 32.6388 189.013 32.8239C188.996 33.0047 188.968 33.1726 188.929 33.3276C188.891 33.4783 188.835 33.6032 188.762 33.7022C188.688 33.8012 188.592 33.8658 188.471 33.8959L187.67 33.7732C187.799 33.7732 187.903 33.7323 187.98 33.6505C188.062 33.5644 188.124 33.4482 188.167 33.3018C188.215 33.1511 188.249 32.9811 188.271 32.7916C188.292 32.5979 188.307 32.3977 188.316 32.191L188.361 31.0092H191.203V34.0832H190.395ZM187.547 35.2263V33.7732H191.713V35.2263H190.957V34.4578H188.297V35.2263H187.547ZM194.042 34.503C193.659 34.503 193.323 34.4276 193.034 34.2769C192.75 34.122 192.529 33.911 192.369 33.6441C192.214 33.3771 192.137 33.0736 192.137 32.7335C192.137 32.3891 192.212 32.0856 192.363 31.8229C192.518 31.556 192.729 31.3472 192.996 31.1965C193.267 31.0458 193.575 30.9705 193.919 30.9705C194.255 30.9705 194.554 31.0437 194.817 31.1901C195.079 31.3364 195.286 31.5431 195.437 31.81C195.587 32.0769 195.663 32.3912 195.663 32.7529C195.663 32.7873 195.661 32.8261 195.656 32.8691C195.656 32.9122 195.654 32.9531 195.65 32.9918H192.776V32.4558H195.224L194.907 32.6237C194.912 32.4257 194.871 32.2513 194.785 32.1006C194.698 31.9499 194.58 31.8315 194.429 31.7454C194.283 31.6593 194.113 31.6163 193.919 31.6163C193.721 31.6163 193.547 31.6593 193.396 31.7454C193.25 31.8315 193.133 31.9521 193.047 32.1071C192.966 32.2578 192.925 32.4364 192.925 32.6431V32.7722C192.925 32.9789 192.972 33.1619 193.067 33.3212C193.161 33.4805 193.295 33.6032 193.467 33.6893C193.639 33.7754 193.837 33.8184 194.061 33.8184C194.255 33.8184 194.429 33.7883 194.584 33.728C194.739 33.6677 194.877 33.573 194.998 33.4439L195.43 33.9411C195.275 34.122 195.079 34.2619 194.843 34.3609C194.61 34.4556 194.343 34.503 194.042 34.503Z" fill="#E1E1E1"/>
<path d="M59.3754 26.4671C59.4094 26.467 59.4435 26.4668 59.4786 26.4667C59.5901 26.4663 59.7016 26.4663 59.8131 26.4664C59.8715 26.4663 59.9299 26.4662 59.9883 26.4661C60.1717 26.4658 60.3551 26.4658 60.5385 26.4659C60.7265 26.4661 60.9144 26.4658 61.1024 26.4651C61.2649 26.4646 61.4274 26.4645 61.5899 26.4646C61.6864 26.4646 61.783 26.4645 61.8795 26.4642C62.7838 26.4612 63.5157 26.6189 64.1927 27.2433C64.5507 27.5963 64.7177 28.024 64.8985 28.4803C64.9248 28.5466 64.9514 28.6128 64.9784 28.6789C64.9917 28.7119 65.0051 28.745 65.0189 28.779C65.031 28.8088 65.0432 28.8386 65.0557 28.8694C65.0822 28.945 65.0822 28.945 65.0822 29.0302C65.1005 29.0296 65.1188 29.029 65.1377 29.0283C65.3283 29.0221 65.519 29.0167 65.7097 29.0118C65.7808 29.0099 65.852 29.0077 65.9231 29.0053C66.0254 29.002 66.1277 28.9994 66.23 28.9969C66.2618 28.9957 66.2936 28.9945 66.3263 28.9932C66.5475 28.989 66.5475 28.989 66.6619 29.0553C66.7534 29.158 66.7543 29.2312 66.7529 29.3633C66.7424 29.4802 66.72 29.5919 66.6935 29.7063C66.689 29.727 66.6844 29.7477 66.6797 29.769C66.648 29.8975 66.608 29.9834 66.5113 30.0807C66.415 30.1275 66.3074 30.1199 66.2014 30.125C66.178 30.1263 66.1546 30.1275 66.1305 30.1288C66.0727 30.1318 66.0149 30.1346 65.9571 30.1375C65.9723 30.1547 65.9874 30.1719 66.0031 30.1896C66.2999 30.5368 66.4036 30.831 66.4044 31.2779C66.4046 31.314 66.4048 31.3501 66.405 31.3873C66.4053 31.4635 66.4055 31.5398 66.4054 31.616C66.4054 31.7128 66.4062 31.8095 66.4072 31.9063C66.408 31.9997 66.408 32.0931 66.4081 32.1865C66.4087 32.2379 66.4087 32.2379 66.4093 32.2903C66.4078 32.577 66.346 32.8376 66.185 33.0814C66.1701 33.1043 66.1553 33.1273 66.14 33.1509C66.103 33.2038 66.103 33.2038 66.0738 33.2322C66.0707 33.2725 66.0695 33.313 66.0692 33.3534C66.0689 33.3792 66.0686 33.405 66.0683 33.4316C66.0681 33.4597 66.0679 33.4879 66.0676 33.5169C66.0668 33.5763 66.066 33.6358 66.0651 33.6952C66.0639 33.789 66.0629 33.8828 66.0621 33.9766C66.0613 34.0671 66.0599 34.1575 66.0585 34.248C66.0584 34.2756 66.0583 34.3033 66.0582 34.3317C66.0533 34.6027 66.004 34.8305 65.8085 35.0297C65.6195 35.1932 65.4401 35.2241 65.194 35.2264C65.1708 35.2266 65.1476 35.2269 65.1238 35.2271C65.0748 35.2275 65.0258 35.2278 64.9768 35.228C64.927 35.2284 64.8773 35.2289 64.8275 35.2298C64.2957 35.2388 64.2957 35.2388 64.0906 35.1061C64.0659 35.0908 64.0659 35.0908 64.0408 35.0753C63.8904 34.969 63.8267 34.8181 63.7698 34.6518C63.7698 34.3614 63.7698 34.0709 63.7698 33.7717C61.8064 33.7717 59.8431 33.7717 57.8202 33.7717C57.8202 34.0621 57.8202 34.3526 57.8202 34.6518C57.6919 34.9328 57.6099 35.0779 57.3244 35.1913C57.1519 35.2473 56.9539 35.2284 56.7728 35.2296C56.7217 35.2301 56.6705 35.2308 56.6194 35.2319C56.028 35.2444 56.028 35.2444 55.7752 35.0237C55.6035 34.8595 55.5424 34.6473 55.5355 34.416C55.5355 34.3626 55.5359 34.3093 55.5366 34.256C55.5364 34.1973 55.5361 34.1385 55.5359 34.0798C55.5359 33.9885 55.5363 33.8973 55.5371 33.806C55.5377 33.717 55.5372 33.6281 55.5366 33.5391C55.5374 33.4986 55.5374 33.4986 55.5382 33.4573C55.5359 33.2509 55.4676 33.1383 55.3412 32.9767C55.2996 32.8936 55.2996 32.8936 55.2738 32.8258C55.2604 32.7917 55.2604 32.7917 55.2468 32.757C55.2069 32.6418 55.1915 32.5426 55.1902 32.4205C55.1899 32.3887 55.1895 32.3568 55.1891 32.324C55.1889 32.2896 55.1887 32.2553 55.1885 32.2198C55.1882 32.1843 55.188 32.1487 55.1877 32.112C55.1873 32.0366 55.187 31.9612 55.1868 31.8858C55.1865 31.809 55.1859 31.7322 55.185 31.6555C55.1837 31.5443 55.1833 31.4331 55.183 31.3219C55.1825 31.288 55.182 31.2541 55.1814 31.2192C55.1824 30.8497 55.2977 30.4986 55.5655 30.2287C55.5878 30.208 55.61 30.1872 55.6329 30.1659C55.5988 30.1648 55.5647 30.1637 55.5295 30.1626C55.4844 30.1608 55.4392 30.1589 55.3941 30.157C55.3604 30.156 55.3604 30.156 55.3261 30.155C55.1927 30.1489 55.0989 30.1371 54.9913 30.0523C54.9519 29.9742 54.9278 29.9082 54.9038 29.8252C54.8931 29.7895 54.8825 29.7539 54.8715 29.7172C54.8603 29.6775 54.8492 29.6378 54.8381 29.598C54.8327 29.5792 54.8272 29.5603 54.8216 29.5409C54.7841 29.3986 54.78 29.2874 54.8163 29.1437C54.8807 29.0674 54.9327 29.0342 55.0339 29.0204C55.1255 29.017 55.2164 29.0174 55.3081 29.0191C55.3415 29.0192 55.375 29.0194 55.4095 29.0196C55.5161 29.0202 55.6228 29.0216 55.7295 29.0231C55.8019 29.0237 55.8743 29.0242 55.9467 29.0246C56.124 29.0259 56.3013 29.0278 56.4786 29.0302C56.4841 29.0138 56.4896 28.9975 56.4952 28.9806C56.5622 28.7824 56.6401 28.5899 56.7211 28.3967C56.7345 28.3641 56.748 28.3316 56.7618 28.298C57.0776 27.5425 57.5312 26.9744 58.316 26.6452C58.6626 26.512 59.0043 26.4663 59.3754 26.4671ZM58.4728 28.2991C58.1918 28.6395 58.0622 29.1328 57.905 29.5341C57.8942 29.5615 57.8835 29.5889 57.8725 29.6171C57.8463 29.6805 57.8463 29.6805 57.8494 29.74C59.7935 29.74 61.7376 29.74 63.7406 29.74C63.7142 29.6112 63.675 29.4979 63.6255 29.3768C63.6125 29.345 63.6125 29.345 63.5994 29.3126C63.5811 29.2678 63.5628 29.2231 63.5444 29.1783C63.5168 29.1109 63.4895 29.0432 63.4623 28.9756C63.2828 28.5346 63.1157 28.2045 62.6503 28.0065C62.5297 27.964 62.4165 27.9478 62.2886 27.9473C62.2614 27.9471 62.2341 27.947 62.206 27.9468C62.1765 27.9468 62.1469 27.9467 62.1164 27.9467C62.085 27.9466 62.0536 27.9464 62.0213 27.9463C61.9174 27.9459 61.8136 27.9457 61.7097 27.9455C61.6374 27.9453 61.5651 27.9452 61.4927 27.945C61.341 27.9447 61.1894 27.9446 61.0377 27.9445C60.8437 27.9443 60.6498 27.9436 60.4559 27.9428C60.3064 27.9423 60.157 27.9421 60.0075 27.9421C59.936 27.942 59.8646 27.9418 59.7931 27.9414C59.6929 27.9409 59.5927 27.941 59.4924 27.9412C59.4485 27.9408 59.4485 27.9408 59.4037 27.9404C59.051 27.9424 58.7264 28.0533 58.4728 28.2991ZM56.4989 31.0744C56.3429 31.2536 56.313 31.435 56.3219 31.6664C56.349 31.8878 56.4424 32.0228 56.6131 32.1673C56.8356 32.3039 57.0365 32.3077 57.2934 32.3041C57.3428 32.3043 57.3428 32.3043 57.3932 32.3044C57.6572 32.3028 57.9011 32.2951 58.1119 32.1249C58.1791 32.0194 58.1763 31.9461 58.158 31.8262C58.079 31.4984 57.8147 31.2164 57.534 31.03C57.4937 31.0064 57.453 30.9832 57.4119 30.9608C57.383 30.9439 57.3542 30.9269 57.3244 30.9094C57.0232 30.7933 56.7314 30.8545 56.4989 31.0744ZM63.8115 31.2298C63.6286 31.415 63.4304 31.6401 63.4163 31.9078C63.4223 32.023 63.4327 32.0793 63.5146 32.1657C63.759 32.3009 63.9998 32.3011 64.2747 32.3024C64.3065 32.3029 64.3383 32.3035 64.371 32.3041C64.6591 32.3055 64.8785 32.2643 65.0901 32.0661C65.2537 31.8885 65.278 31.7225 65.2702 31.4854C65.2421 31.2719 65.1417 31.0983 64.9666 30.9661C64.536 30.7223 64.1399 30.9305 63.8115 31.2298Z" fill="#5B82F9"/>
<circle cx="234.766" cy="15.7658" r="10.7658" fill="white"/>
<path d="M230.533 9.7937C230.549 9.79361 230.565 9.79352 230.581 9.79343C230.633 9.79319 230.686 9.79328 230.738 9.79337C230.776 9.79327 230.814 9.79314 230.852 9.793C230.957 9.79267 231.061 9.79264 231.166 9.79265C231.278 9.79261 231.391 9.7923 231.504 9.79204C231.75 9.79151 231.997 9.79133 232.243 9.79121C232.397 9.79113 232.551 9.79098 232.705 9.79082C233.13 9.79036 233.556 9.78998 233.982 9.78992C234.023 9.78991 234.023 9.78991 234.065 9.7899C234.12 9.78989 234.175 9.78989 234.23 9.78988C234.258 9.78987 234.285 9.78987 234.313 9.78986C234.355 9.78986 234.355 9.78986 234.397 9.78985C234.842 9.78977 235.287 9.78914 235.732 9.78828C236.189 9.7874 236.646 9.78695 237.103 9.78694C237.359 9.78693 237.616 9.78673 237.872 9.78606C238.091 9.78549 238.309 9.78532 238.528 9.78567C238.639 9.78584 238.751 9.78582 238.862 9.78529C238.964 9.78482 239.066 9.78487 239.168 9.78536C239.205 9.78544 239.242 9.78533 239.279 9.78499C239.497 9.78317 239.654 9.79301 239.816 9.94893C239.929 10.0717 239.949 10.1971 239.949 10.3588C239.949 10.375 239.949 10.3912 239.949 10.4079C239.949 10.4622 239.949 10.5164 239.949 10.5706C239.949 10.6098 239.949 10.649 239.949 10.6882C239.949 10.7961 239.949 10.904 239.949 11.0119C239.949 11.13 239.949 11.2481 239.949 11.3661C239.949 11.5954 239.949 11.8247 239.948 12.0539C239.948 12.3191 239.948 12.5842 239.948 12.8494C239.948 13.5495 239.947 14.2497 239.946 14.9499C239.945 16.5137 239.944 18.0776 239.943 19.6889C236.672 19.6889 233.401 19.6889 230.031 19.6889C230.029 18.1265 230.027 16.564 230.025 14.9542C230.024 14.4604 230.024 13.9665 230.023 13.4577C230.022 12.8559 230.022 12.8559 230.022 12.5744C230.022 12.3773 230.022 12.1802 230.021 11.9831C230.021 11.7558 230.02 11.5286 230.021 11.3013C230.021 11.185 230.021 11.0687 230.02 10.9524C230.02 10.8473 230.02 10.7421 230.02 10.6369C230.02 10.5989 230.02 10.5609 230.02 10.5229C230.016 10.0973 230.016 10.0973 230.165 9.94186C230.283 9.83404 230.372 9.79396 230.533 9.7937ZM231.652 10.9577C231.562 11.0826 231.53 11.1969 231.536 11.3514C231.569 11.5049 231.644 11.6129 231.771 11.7046C231.887 11.7656 232.016 11.7846 232.144 11.7573C232.289 11.7075 232.395 11.63 232.468 11.4916C232.516 11.3666 232.525 11.2397 232.482 11.1126C232.419 10.9719 232.331 10.8752 232.185 10.8187C231.98 10.7697 231.804 10.8064 231.652 10.9577ZM233.588 11.0236C233.503 11.1405 233.516 11.2826 233.528 11.4209C233.568 11.5526 233.672 11.6462 233.783 11.722C233.9 11.7756 234.011 11.7897 234.136 11.7532C234.291 11.6924 234.379 11.6016 234.463 11.46C234.499 11.3054 234.496 11.1625 234.416 11.023C234.331 10.9063 234.227 10.8254 234.084 10.7956C233.854 10.7743 233.733 10.8531 233.588 11.0236ZM236.469 10.7956C236.469 11.1166 236.469 11.4376 236.469 11.7683C237.119 11.7683 237.769 11.7683 238.438 11.7683C238.438 11.4473 238.438 11.1263 238.438 10.7956C237.788 10.7956 237.139 10.7956 236.469 10.7956ZM233.065 13.4821C233.046 13.4976 233.027 13.5131 233.007 13.5291C232.869 13.6459 232.758 13.7793 232.648 13.9221C232.632 13.9422 232.617 13.9622 232.6 13.9829C232.416 14.2254 232.287 14.4798 232.189 14.7675C232.18 14.7959 232.18 14.7959 232.17 14.8248C232.074 15.121 232.033 15.412 232.036 15.7228C232.036 15.7389 232.036 15.755 232.036 15.7717C232.038 16.0363 232.059 16.2857 232.139 16.5392C232.144 16.5573 232.15 16.5754 232.156 16.594C232.282 16.9911 232.476 17.3309 232.741 17.6509C232.764 17.6794 232.764 17.6794 232.788 17.7085C232.904 17.8465 233.038 17.9575 233.181 18.0677C233.201 18.0835 233.22 18.0993 233.241 18.1155C233.843 18.5784 234.629 18.7537 235.375 18.6649C236.156 18.5572 236.873 18.1415 237.352 17.5128C237.589 17.1871 237.75 16.8329 237.859 16.4466C237.867 16.4187 237.875 16.3909 237.883 16.3622C238.053 15.6322 237.904 14.8312 237.521 14.1935C237.435 14.0566 237.337 13.9305 237.234 13.8063C237.208 13.7753 237.208 13.7753 237.182 13.7436C236.693 13.1768 235.956 12.8359 235.215 12.7736C234.422 12.7181 233.675 12.9815 233.065 13.4821Z" fill="#5B82F9"/>
<path d="M230.031 20.1753C233.302 20.1753 236.573 20.1753 239.943 20.1753C239.943 21.2638 239.943 21.2638 239.851 21.4722C239.718 21.6027 239.631 21.6632 239.441 21.6635C239.426 21.6636 239.41 21.6637 239.394 21.6638C239.341 21.664 239.289 21.6639 239.236 21.6638C239.198 21.6639 239.16 21.6641 239.122 21.6642C239.018 21.6645 238.913 21.6646 238.809 21.6646C238.696 21.6646 238.583 21.6649 238.471 21.6652C238.224 21.6657 237.978 21.6659 237.731 21.666C237.578 21.6661 237.424 21.6662 237.27 21.6664C236.844 21.6668 236.418 21.6672 235.993 21.6673C235.965 21.6673 235.938 21.6673 235.91 21.6673C235.855 21.6673 235.799 21.6673 235.744 21.6673C235.717 21.6673 235.689 21.6673 235.661 21.6673C235.62 21.6673 235.62 21.6673 235.578 21.6674C235.133 21.6674 234.688 21.6681 234.243 21.6689C233.786 21.6698 233.329 21.6703 232.872 21.6703C232.615 21.6703 232.359 21.6705 232.102 21.6711C231.884 21.6717 231.665 21.6719 231.447 21.6715C231.336 21.6714 231.224 21.6714 231.113 21.6719C231.011 21.6724 230.908 21.6723 230.806 21.6718C230.769 21.6718 230.733 21.6719 230.696 21.6722C230.477 21.674 230.321 21.6642 230.158 21.5083C229.857 21.1796 230.031 20.4538 230.031 20.1753Z" fill="#5B82F9"/>
<path d="M236.166 14.1106C236.487 14.3686 236.487 14.3686 236.585 14.5243C236.585 14.5396 236.585 14.5549 236.585 14.5706C236.55 14.6049 236.55 14.6049 236.501 14.6444C236.196 14.9082 236.036 15.258 236 15.6602C235.987 16.0393 236.119 16.411 236.37 16.6955C236.437 16.7659 236.508 16.8268 236.585 16.8866C236.429 17.2286 236.045 17.4623 235.707 17.5955C235.186 17.7859 234.634 17.7638 234.13 17.535C233.938 17.445 233.78 17.3284 233.621 17.1876C233.604 17.1734 233.588 17.1592 233.571 17.1445C233.216 16.8162 233.018 16.3055 232.991 15.83C232.984 15.2368 233.182 14.7258 233.59 14.2912C234.274 13.6305 235.398 13.5414 236.166 14.1106Z" fill="#5B82F9"/>
<circle cx="8.97152" cy="14.9715" r="8.97152" fill="white"/>
<path d="M8.64818 9.15134C8.6748 9.15834 8.6748 9.15834 8.70196 9.16549C8.76086 9.18103 8.81967 9.19688 8.87848 9.21273C8.92092 9.224 8.96336 9.23525 9.0058 9.24649C9.12069 9.27697 9.23551 9.30772 9.35031 9.33854C9.44632 9.36429 9.54236 9.38991 9.6384 9.41554C9.86506 9.47602 10.0917 9.53673 10.3182 9.59757C10.5516 9.66024 10.7851 9.72252 11.0186 9.7846C11.2194 9.83801 11.4202 9.89167 11.6209 9.94553C11.7406 9.97765 11.8604 10.0097 11.9802 10.0415C12.0929 10.0714 12.2055 10.1016 12.3181 10.1321C12.3593 10.1432 12.4005 10.1541 12.4418 10.165C12.8657 10.2768 13.2177 10.4672 13.4528 10.8494C13.6797 11.2443 13.6632 11.6347 13.5491 12.0561C13.5396 12.0918 13.5302 12.1275 13.5207 12.1632C13.4947 12.261 13.4685 12.3588 13.4422 12.4565C13.4139 12.562 13.3858 12.6677 13.3577 12.7732C13.3026 12.98 13.2472 13.1867 13.1918 13.3933C13.1467 13.5613 13.1018 13.7293 13.0568 13.8973C13.0504 13.9212 13.0441 13.9452 13.0375 13.9698C13.0245 14.0184 13.0115 14.067 12.9985 14.1156C12.8766 14.5713 12.7545 15.0269 12.6323 15.4824C12.5205 15.8991 12.4091 16.3158 12.2979 16.7326C12.1836 17.1607 12.0691 17.5887 11.9544 18.0167C11.89 18.2569 11.8256 18.4972 11.7616 18.7375C11.707 18.942 11.6523 19.1465 11.5972 19.351C11.5691 19.4553 11.5412 19.5595 11.5135 19.6639C11.4881 19.7595 11.4624 19.8551 11.4365 19.9506C11.4272 19.985 11.418 20.0195 11.409 20.0541C11.3042 20.4524 11.0983 20.7837 10.7382 21.0011C10.4188 21.1812 10.0436 21.2329 9.68995 21.1366C9.67224 21.132 9.65454 21.1273 9.6363 21.1226C9.57754 21.1071 9.51887 21.0913 9.46019 21.0756C9.41785 21.0644 9.37551 21.0532 9.33316 21.042C9.2185 21.0117 9.10392 20.9811 8.98936 20.9504C8.91766 20.9312 8.84595 20.9121 8.77423 20.893C8.52367 20.8263 8.27318 20.7594 8.02274 20.6922C7.78986 20.6298 7.55685 20.5679 7.32378 20.5061C7.12323 20.453 6.92276 20.3995 6.72236 20.3458C6.60287 20.3138 6.48336 20.2819 6.36375 20.2503C6.25115 20.2206 6.13868 20.1904 6.02628 20.16C5.98522 20.1489 5.94412 20.138 5.90297 20.1273C5.45505 20.0101 5.11784 19.8109 4.8716 19.4055C4.66801 18.9985 4.67721 18.6291 4.79356 18.2027C4.80304 18.167 4.81249 18.1314 4.82192 18.0957C4.84774 17.9982 4.87396 17.9009 4.90025 17.8036C4.9286 17.6984 4.95657 17.5931 4.9846 17.4878C5.03949 17.2818 5.09473 17.0759 5.1501 16.87C5.19509 16.7026 5.23997 16.5352 5.28475 16.3678C5.29113 16.344 5.29751 16.3201 5.30409 16.2955C5.31705 16.2471 5.33001 16.1986 5.34298 16.1502C5.46445 15.6961 5.58632 15.2421 5.70833 14.7881C5.81296 14.3988 5.91724 14.0094 6.02128 13.6199C6.14218 13.1674 6.26329 12.7149 6.38473 12.2624C6.39768 12.2142 6.41063 12.1659 6.42359 12.1176C6.42996 12.0939 6.43633 12.0701 6.4429 12.0457C6.48774 11.8785 6.53244 11.7113 6.57708 11.5441C6.6315 11.3403 6.68614 11.1366 6.74108 10.9329C6.7691 10.8291 6.79701 10.7252 6.82464 10.6212C6.84995 10.5259 6.87557 10.4308 6.90142 10.3356C6.9107 10.3013 6.91987 10.2669 6.92892 10.2325C7.03391 9.834 7.23973 9.50376 7.59956 9.28654C7.91912 9.10645 8.29446 9.05467 8.64818 9.15134ZM7.47493 10.8072C6.91906 12.8817 6.36319 14.9562 5.79048 17.0936C7.54914 17.5648 9.30781 18.0361 11.1198 18.5216C11.6756 16.4471 12.2315 14.3725 12.8042 12.2351C11.0455 11.7639 9.28688 11.2927 7.47493 10.8072ZM7.74254 18.5759C7.58015 18.7156 7.49523 18.8609 7.47086 19.0741C7.47044 19.2425 7.5325 19.4158 7.64811 19.5408C7.78953 19.6676 7.94697 19.7371 8.14015 19.7395C8.3422 19.7202 8.48997 19.65 8.6242 19.4974C8.74257 19.3307 8.76951 19.158 8.74547 18.9589C8.70861 18.7832 8.59419 18.6565 8.45149 18.5518C8.22388 18.4454 7.95529 18.4225 7.74254 18.5759Z" fill="#5B82F9"/>
</svg>
