<svg width="25" height="24" viewBox="0 0 25 24" fill="none" xmlns="http://www.w3.org/2000/svg">
<path d="M13.8175 0.478909C14.0251 0.620532 14.1967 0.793713 14.3729 0.97195C14.4139 1.01266 14.4549 1.05337 14.4971 1.09531C14.6098 1.20737 14.722 1.31983 14.834 1.43248C14.9554 1.55427 15.0773 1.67553 15.1991 1.79685C15.4372 2.0342 15.6748 2.27205 15.9123 2.51009C16.1053 2.70363 16.2986 2.89698 16.492 3.09021C16.5196 3.11777 16.5472 3.14533 16.5756 3.17372C16.6316 3.22971 16.6876 3.2857 16.7437 3.34169C17.2685 3.86607 17.7927 4.39102 18.3167 4.91616C18.7659 5.36623 19.2155 5.8158 19.6655 6.26502C20.1887 6.78736 20.7116 7.31 21.2341 7.83312C21.2898 7.88896 21.3456 7.9448 21.4014 8.00064C21.4288 8.02811 21.4562 8.05557 21.4845 8.08388C21.6774 8.27693 21.8704 8.46977 22.0636 8.66253C22.2991 8.89762 22.5344 9.13303 22.7692 9.36887C22.8889 9.48907 23.0087 9.60911 23.1289 9.72876C23.2595 9.85872 23.3894 9.98941 23.5192 10.1202C23.5569 10.1575 23.5947 10.1948 23.6335 10.2333C24.1286 10.7353 24.4093 11.286 24.4166 11.9941C24.413 12.35 24.3756 12.6507 24.2076 12.97C24.1884 13.0093 24.1692 13.0486 24.1495 13.089C23.8611 13.6266 23.3976 13.948 22.8312 14.1434C22.5788 14.1994 22.3392 14.2272 22.0816 14.2258C22.026 14.2255 22.026 14.2255 21.9693 14.2253C21.9413 14.2251 21.9133 14.2249 21.8845 14.2247C21.8846 14.2795 21.8846 14.2795 21.8848 14.3355C21.8868 15.2273 21.8884 16.1191 21.8893 17.0108C21.8898 17.4421 21.8905 17.8734 21.8915 18.3046C21.8925 18.6808 21.8931 19.0569 21.8933 19.433C21.8934 19.6319 21.8937 19.8309 21.8943 20.0298C21.895 20.2175 21.8952 20.4052 21.895 20.5929C21.8951 20.6614 21.8952 20.7299 21.8956 20.7983C21.9002 21.7149 21.7506 22.5016 21.1179 23.1965C20.4217 23.8622 19.6319 23.9122 18.7197 23.9091C18.62 23.9092 18.5202 23.9094 18.4205 23.9095C18.2123 23.9097 18.0042 23.9095 17.796 23.9088C17.5294 23.908 17.2627 23.9085 16.996 23.9093C16.7904 23.9098 16.5848 23.9096 16.3793 23.9093C16.2809 23.9092 16.1825 23.9093 16.0842 23.9096C15.947 23.91 15.8098 23.9094 15.6726 23.9087C15.6321 23.9089 15.5916 23.9092 15.5498 23.9095C15.3306 23.9072 15.1866 23.8928 15.0083 23.7512C14.8369 23.5559 14.7703 23.4495 14.7696 23.1917C14.7693 23.1422 14.7691 23.0926 14.7688 23.0415C14.7688 22.9869 14.7687 22.9323 14.7687 22.876C14.7684 22.8186 14.7682 22.7612 14.7679 22.7022C14.7674 22.5772 14.767 22.4522 14.7667 22.3273C14.7662 22.1294 14.7653 21.9315 14.7643 21.7337C14.7614 21.1709 14.7589 20.6082 14.7573 20.0455C14.7565 19.7348 14.7551 19.4241 14.7533 19.1135C14.7523 18.9492 14.7516 18.7849 14.7514 18.6206C14.7513 18.437 14.7501 18.2533 14.7489 18.0697C14.749 18.0157 14.7492 17.9617 14.7493 17.9061C14.7448 17.468 14.6733 17.0598 14.3578 16.7341C14.1107 16.5514 13.8858 16.4963 13.5842 16.4943C13.5315 16.4938 13.4787 16.4934 13.4244 16.4929C13.3676 16.4927 13.3108 16.4925 13.2522 16.4923C13.1935 16.492 13.1349 16.4918 13.0744 16.4915C12.9502 16.4911 12.826 16.4907 12.7018 16.4906C12.5435 16.4903 12.3853 16.4892 12.227 16.4879C12.0751 16.4868 11.9232 16.4867 11.7713 16.4865C11.7148 16.4859 11.6584 16.4854 11.6002 16.4848C11.2345 16.4857 10.9725 16.5249 10.6555 16.7167C10.3897 16.9897 10.2637 17.3022 10.2632 17.6792C10.263 17.7295 10.2628 17.7798 10.2626 17.8316C10.2626 17.8866 10.2627 17.9415 10.2627 17.9981C10.2625 18.0562 10.2624 18.1142 10.2622 18.1741C10.2618 18.3002 10.2616 18.4264 10.2614 18.5525C10.2612 18.7521 10.2604 18.9517 10.2595 19.1513C10.2592 19.2197 10.2589 19.2881 10.2586 19.3564C10.2585 19.3907 10.2583 19.4249 10.2582 19.4602C10.2562 19.9248 10.2547 20.3893 10.2541 20.8539C10.2537 21.1674 10.2527 21.4809 10.2509 21.7945C10.25 21.9603 10.2494 22.1261 10.2496 22.2919C10.2499 22.4769 10.2487 22.6619 10.2474 22.8469C10.2477 22.9017 10.248 22.9564 10.2484 23.0129C10.2451 23.2954 10.2406 23.4898 10.037 23.7047C9.80433 23.9099 9.61304 23.9174 9.31743 23.9147C9.27388 23.915 9.23032 23.9153 9.18545 23.9157C9.04181 23.9165 8.89821 23.9159 8.75457 23.9153C8.65422 23.9154 8.55387 23.9156 8.45352 23.9158C8.24316 23.9161 8.03282 23.9157 7.82247 23.9149C7.55408 23.9138 7.28573 23.9144 7.01735 23.9155C6.80999 23.9162 6.60265 23.916 6.39529 23.9155C6.29642 23.9154 6.19755 23.9155 6.09868 23.916C5.1066 23.9194 5.1066 23.9194 4.64749 23.7047C4.60941 23.6872 4.57133 23.6696 4.5321 23.6515C3.83921 23.3143 3.47045 22.7133 3.19558 22.026C3.08799 21.6135 3.10791 21.1841 3.109 20.7612C3.10901 20.6897 3.109 20.6182 3.10898 20.5467C3.10896 20.3538 3.10924 20.1608 3.10956 19.9679C3.10985 19.7658 3.10988 19.5637 3.10994 19.3617C3.11008 18.9795 3.11046 18.5974 3.11093 18.2152C3.11145 17.78 3.1117 17.3447 3.11194 16.9094C3.11242 16.0145 3.11324 15.1196 3.11427 14.2247C3.08272 14.2249 3.05117 14.2252 3.01866 14.2255C2.97709 14.2257 2.93551 14.2259 2.89268 14.2261C2.85154 14.2263 2.81041 14.2266 2.76803 14.2269C2.14343 14.2154 1.62015 13.9689 1.17489 13.5452C0.716418 13.0621 0.575753 12.5249 0.583623 11.8717C0.612277 11.0785 1.03471 10.5666 1.58018 10.0252C1.62058 9.9845 1.66098 9.94384 1.70261 9.90195C1.81346 9.79054 1.9246 9.67943 2.03589 9.56846C2.15637 9.44818 2.27644 9.3275 2.39657 9.20687C2.63141 8.97119 2.86662 8.73588 3.10198 8.50072C3.29334 8.3095 3.48458 8.11816 3.67573 7.92672C3.71665 7.88574 3.71665 7.88574 3.7584 7.84393C3.81383 7.78841 3.86926 7.7329 3.92469 7.67738C4.44353 7.15781 4.9628 6.63867 5.48222 6.11968C5.95687 5.64539 6.43098 5.17057 6.90485 4.69549C7.39224 4.20686 7.87999 3.71857 8.36811 3.23065C8.64181 2.95705 8.91539 2.68331 9.18861 2.40922C9.42109 2.176 9.65391 1.94311 9.88714 1.71064C10.006 1.59215 10.1247 1.47352 10.243 1.35448C10.3715 1.22518 10.5007 1.09662 10.63 0.968109C10.6669 0.930756 10.7038 0.893403 10.7419 0.854919C11.6227 -0.0146627 12.7623 -0.162421 13.8175 0.478909Z" fill="#5B82F9"/>
</svg>
