<svg width="29" height="24" viewBox="0 0 29 24" fill="none" xmlns="http://www.w3.org/2000/svg">
<path d="M13.0654 2.0178C13.4316 2.35664 13.8003 2.70071 14.1092 3.09127C14.1092 3.12669 14.1092 3.16212 14.1092 3.19862C14.1454 3.19862 14.1817 3.19862 14.219 3.19862C14.2314 3.16949 14.2438 3.14036 14.2566 3.11035C14.3509 2.94547 14.4755 2.81541 14.607 2.67865C14.6342 2.65019 14.6614 2.62172 14.6895 2.59239C14.7448 2.53475 14.8003 2.47725 14.8559 2.41988C14.9226 2.35086 14.9884 2.28106 15.054 2.2111C15.4116 1.84247 15.8253 1.5535 16.2517 1.26636C16.2973 1.23537 16.343 1.20437 16.3901 1.17243C18.0652 0.117635 20.2463 -0.135927 22.1694 0.260793C23.8137 0.633382 25.4104 1.52344 26.4697 2.8229C26.5148 2.87777 26.5599 2.93263 26.6063 2.98916C27.9042 4.61556 28.3906 6.55819 28.2156 8.59844C28.1853 8.82635 28.1295 9.04372 28.0628 9.26375C28.0434 9.33183 28.0241 9.39991 28.0042 9.47006C27.3688 11.6286 25.9837 13.5673 24.4409 15.2043C24.3259 15.3303 24.2205 15.4608 24.1143 15.5939C23.8257 15.9439 23.497 16.2544 23.1688 16.5687C22.9311 16.797 22.705 17.0292 22.4879 17.2763C22.3822 17.393 22.2679 17.4951 22.1469 17.5966C21.929 17.7839 21.7223 17.9785 21.5186 18.1803C21.3074 18.389 21.0931 18.5904 20.8645 18.7808C20.7416 18.8837 20.622 18.9897 20.5023 19.0961C20.1847 19.3759 19.8602 19.6474 19.5345 19.9182C19.4432 19.9941 19.352 20.0702 19.2609 20.1463C18.6215 20.6789 17.9709 21.1982 17.3023 21.6955C17.1886 21.7802 17.0753 21.8655 16.9624 21.9513C16.5406 22.2717 16.1099 22.5787 15.6759 22.8832C15.4093 23.0704 15.1445 23.26 14.8801 23.4503C14.8188 23.4943 14.7573 23.5381 14.6956 23.5816C14.6305 23.6288 14.5669 23.6779 14.5045 23.7284C14.4051 23.806 14.4051 23.806 14.219 23.9167C13.9615 23.8803 13.7309 23.6716 13.5221 23.5242C13.4812 23.4957 13.4404 23.4672 13.3983 23.4378C13.2688 23.3472 13.1396 23.2563 13.0105 23.1652C12.929 23.1081 12.8475 23.051 12.766 22.9939C12.5173 22.8193 12.2693 22.6437 12.0216 22.4675C11.9778 22.4363 11.934 22.4051 11.8888 22.373C11.0486 21.7742 10.2342 21.1497 9.4289 20.5069C9.34172 20.4374 9.25434 20.3682 9.16691 20.2989C8.59721 19.8469 8.03995 19.3813 7.50018 18.8955C7.38063 18.7893 7.25996 18.685 7.13816 18.5814C6.48678 18.0257 5.87297 17.4317 5.26113 16.8351C5.21266 16.7879 5.21266 16.7879 5.1632 16.7398C4.81852 16.4042 4.48031 16.0678 4.16586 15.7046C4.10846 15.6406 4.05095 15.5767 3.99332 15.513C3.09908 14.5164 2.27743 13.4636 1.58389 12.3232C1.55249 12.272 1.55249 12.272 1.52045 12.2197C1.04232 11.4351 0.653572 10.6205 0.378742 9.74681C0.363225 9.69751 0.347708 9.64821 0.33172 9.59741C0.131818 8.93119 0.0801028 8.28683 0.0834643 7.59651C0.0835462 7.55502 0.0836281 7.51352 0.0837124 7.47077C0.0859517 6.8396 0.11628 6.23045 0.265438 5.61394C0.27367 5.57835 0.281903 5.54277 0.290384 5.50612C0.517368 4.54228 0.911492 3.61081 1.52895 2.8229C1.56408 2.77765 1.5992 2.7324 1.63539 2.68578C2.71573 1.32927 4.39326 0.452557 6.13157 0.207722C8.67712 -0.102206 11.0952 0.29509 13.0654 2.0178Z" fill="#BCCCFC"/>
</svg>
