<svg width="26" height="17" viewBox="0 0 26 17" fill="none" xmlns="http://www.w3.org/2000/svg">
<path d="M15.3731 0.214418C15.4201 0.22311 15.4671 0.231802 15.5156 0.240757C17.3499 0.588116 19.2002 1.22838 20.7336 2.31473C20.945 2.4633 20.945 2.4633 21.1941 2.47798C21.4133 2.35722 21.6261 2.22923 21.8371 2.09475C21.933 2.03448 22.029 1.97427 22.125 1.91412C22.1733 1.88375 22.2217 1.85338 22.2716 1.82209C22.4807 1.69185 22.6922 1.56551 22.9039 1.43948C23.1927 1.26729 23.4804 1.09336 23.7665 0.916773C23.8104 0.889704 23.8104 0.889704 23.8551 0.862088C23.999 0.773297 24.1427 0.684341 24.2863 0.595211C24.521 0.450006 24.7561 0.30537 24.9949 0.166935C25.0288 0.147218 25.0627 0.1275 25.0976 0.107185C25.2805 0.0264665 25.4608 0.0207573 25.6548 0.0624722C25.8001 0.153333 25.8822 0.213539 25.9586 0.366364C25.9778 0.474586 25.9778 0.474586 25.9871 0.60378C25.9914 0.645761 25.9956 0.687742 26 0.730996C25.8862 1.1214 25.3847 1.34034 25.0533 1.52812C24.9538 1.58571 24.8543 1.64342 24.755 1.70123C24.7032 1.73129 24.6515 1.76135 24.5982 1.79232C24.3296 1.95032 24.0647 2.11435 23.7997 2.27835C23.3408 2.56193 22.8809 2.84384 22.4196 3.12355C22.3902 3.14138 22.3608 3.15921 22.3305 3.17758C22.1814 3.26801 22.0322 3.35841 21.8831 3.44879C21.6165 3.61037 21.35 3.77221 21.0835 3.93403C20.9362 4.0235 20.7889 4.11295 20.6415 4.20241C20.5977 4.229 20.5977 4.229 20.553 4.25613C20.3429 4.38372 20.1327 4.5113 19.9226 4.63886C19.6262 4.81874 19.3299 4.99867 19.0336 5.17863C18.927 5.24337 18.8204 5.3081 18.7138 5.37282C18.1615 5.70817 17.6103 6.04504 17.0603 6.38406C16.4242 6.77609 15.7858 7.16411 15.1468 7.55133C14.8802 7.7129 14.6138 7.87472 14.3473 8.03653C14.1996 8.12621 14.052 8.21588 13.9043 8.30555C13.8452 8.34143 13.7861 8.3773 13.727 8.41318C13.6088 8.48493 13.4906 8.55668 13.3724 8.62844C13.3286 8.65507 13.3286 8.65507 13.2838 8.68225C13.2247 8.71813 13.1656 8.75401 13.1065 8.7899C12.959 8.87947 12.8114 8.96904 12.6639 9.05862C12.3653 9.23991 12.0667 9.42119 11.7681 9.60243C11.4717 9.78231 11.1754 9.96224 10.8791 10.1422C10.7725 10.2069 10.6659 10.2717 10.5593 10.3364C9.9986 10.6769 9.43894 11.0191 8.88054 11.3635C8.49679 11.6001 8.11223 11.8351 7.72512 12.0662C7.34328 12.2942 6.96398 12.526 6.58552 12.7595C6.12436 13.0439 5.66231 13.3269 5.19901 13.6078C5.15492 13.6346 5.15492 13.6346 5.10994 13.6619C4.96081 13.7523 4.81166 13.8427 4.6625 13.9331C4.4845 14.0409 4.30657 14.1489 4.12866 14.257C4.08478 14.2836 4.08478 14.2836 4.04002 14.3108C3.92218 14.3823 3.80435 14.4539 3.68652 14.5255C3.38574 14.7081 3.08495 14.8908 2.78394 15.0731C2.69012 15.1299 2.59633 15.1868 2.50254 15.2436C2.38124 15.3172 2.25984 15.3905 2.13835 15.4637C1.88794 15.6151 1.63895 15.767 1.39601 15.9302C0.782318 16.3411 0.782319 16.3411 0.431305 16.3009C0.279058 16.2544 0.183653 16.1843 0.0771601 16.0675C0.0199839 15.9531 0.0131449 15.8782 0.00751817 15.7509C0.00503717 15.713 0.00255618 15.6752 0 15.6362C0.0478158 15.4092 0.194278 15.2678 0.376774 15.1367C0.492676 15.064 0.610301 14.9955 0.729262 14.9279C0.820631 14.8745 0.911969 14.8211 1.00328 14.7676C1.05082 14.74 1.09836 14.7123 1.14734 14.6839C1.38864 14.5424 1.62706 14.3963 1.86569 14.2504C1.96297 14.1912 2.06024 14.132 2.15752 14.0728C2.36579 13.9458 2.57373 13.8183 2.78152 13.6905C2.86077 13.6419 2.86077 13.6419 2.94162 13.5924C3.04296 13.5302 3.1442 13.4679 3.24534 13.4055C3.29109 13.3774 3.33683 13.3494 3.38397 13.3206C3.42403 13.2959 3.46409 13.2712 3.50537 13.2458C3.62582 13.1787 3.74681 13.1276 3.87581 13.0792C3.70397 12.9047 3.52763 12.7362 3.34817 12.5696C2.7444 12.0088 2.15708 11.4492 1.64727 10.8C1.60085 10.744 1.55428 10.688 1.50759 10.6322C1.11577 10.16 0.777676 9.66114 0.452673 9.14103C0.390025 9.04154 0.325855 8.94337 0.260762 8.84547C0.228378 8.79474 0.195995 8.74401 0.16263 8.69175C0.122183 8.62966 0.122183 8.62966 0.0809192 8.56631C-0.0140195 8.31015 -0.0257012 8.0536 0.0702973 7.79513C0.131573 7.67615 0.198587 7.56386 0.270258 7.45085C0.295358 7.40955 0.320458 7.36825 0.346318 7.32569C1.21019 5.92062 2.27686 4.52965 3.58655 3.51298C3.72091 3.40761 3.85185 3.29894 3.98285 3.18944C5.90173 1.61789 8.28598 0.645588 10.7134 0.214418C10.7609 0.205482 10.8084 0.196545 10.8573 0.187338C12.2933 -0.0748655 13.9405 -0.0581575 15.3731 0.214418ZM7.26928 2.49361C7.22332 2.51627 7.17737 2.53894 7.13002 2.56229C6.50707 2.87236 5.90843 3.19942 5.34463 3.60788C5.31223 3.6311 5.27984 3.65432 5.24647 3.67824C4.23159 4.40916 3.27222 5.24664 2.5083 6.24161C2.46801 6.29234 2.42773 6.34307 2.38623 6.39534C2.08635 6.77497 1.81017 7.16816 1.54931 7.57557C1.50141 7.65028 1.45263 7.72442 1.40372 7.79847C1.36758 7.85674 1.36758 7.85674 1.33072 7.91619C1.31061 7.94811 1.2905 7.98004 1.26978 8.01293C1.22572 8.17625 1.27545 8.26576 1.34338 8.41951C1.42985 8.56856 1.52485 8.71088 1.62195 8.85319C1.64917 8.89346 1.6764 8.93372 1.70445 8.97521C1.94236 9.32406 2.19145 9.66184 2.45765 9.98962C2.47871 10.0159 2.49978 10.0422 2.52148 10.0693C2.85692 10.485 3.22406 10.8675 3.60041 11.2463C3.64408 11.2905 3.68774 11.3346 3.73273 11.3801C4.03466 11.6806 4.3509 11.9555 4.68619 12.2182C4.72077 12.2485 4.75534 12.2789 4.79096 12.3101C4.88395 12.3804 4.88395 12.3804 4.98861 12.3621C5.10475 12.3139 5.2094 12.258 5.31752 12.1936C5.36163 12.1675 5.40574 12.1414 5.45119 12.1144C5.49855 12.086 5.54591 12.0575 5.5947 12.0282C5.64441 11.9986 5.69412 11.969 5.74534 11.9385C6.11459 11.7176 6.48103 11.4924 6.84618 11.2649C7.29854 10.9833 7.7544 10.7075 8.21056 10.4321C8.26868 10.3969 8.32681 10.3617 8.38493 10.3266C8.46151 10.2803 8.46151 10.2803 8.53964 10.2332C8.69267 10.1383 8.84209 10.0396 8.99133 9.93897C8.97752 9.89363 8.97752 9.89363 8.96344 9.84737C8.57865 8.51935 8.58447 7.25834 9.2335 6.01864C9.7979 5.04597 10.695 4.32909 11.78 4.01683C12.991 3.69745 14.2001 3.8647 15.2872 4.48276C15.692 4.74208 16.0359 5.05614 16.3354 5.43124C16.5898 5.34335 16.8095 5.20334 17.0381 5.06403C17.0824 5.03726 17.1267 5.01048 17.1723 4.98289C17.3155 4.89619 17.4586 4.8092 17.6016 4.72215C17.6965 4.66451 17.7914 4.60687 17.8863 4.54924C18.0307 4.4615 18.175 4.37366 18.3192 4.28549C18.5782 4.12712 18.838 3.97036 19.0993 3.81582C19.1533 3.78366 19.2073 3.75149 19.2629 3.71835C19.3671 3.65626 19.4717 3.5946 19.5765 3.53342C19.623 3.50556 19.6696 3.47771 19.7176 3.44901C19.759 3.42461 19.8004 3.40022 19.843 3.37508C19.8722 3.35162 19.9014 3.32816 19.9315 3.30399C19.9315 3.25385 19.9315 3.20371 19.9315 3.15204C19.8303 3.07532 19.7339 3.01257 19.6244 2.94945C19.591 2.9299 19.5576 2.91036 19.5232 2.89022C18.0738 2.06072 16.5129 1.53977 14.8666 1.27804C14.8296 1.27203 14.7925 1.26603 14.7544 1.25984C12.2482 0.87356 9.52727 1.37702 7.26928 2.49361ZM10.6489 5.89499C10.0471 6.53134 9.7405 7.34228 9.75106 8.21691C9.78284 8.5931 9.85481 8.93398 10.0043 9.28054C10.1756 9.21569 10.3312 9.14177 10.4886 9.04846C10.5546 9.00951 10.5546 9.00951 10.6218 8.96977C10.6687 8.94174 10.7157 8.91372 10.764 8.88484C10.8135 8.85545 10.863 8.82605 10.914 8.79576C11.2832 8.57562 11.6493 8.35075 12.0143 8.12356C12.3873 7.89144 12.7625 7.6628 13.1382 7.43502C13.1681 7.4169 13.198 7.39877 13.2288 7.3801C13.3784 7.28935 13.5281 7.19863 13.6777 7.10794C13.9538 6.94063 14.2298 6.77323 14.5057 6.60565C14.5532 6.57686 14.6008 6.54808 14.6497 6.51841C14.8774 6.38009 15.1023 6.23969 15.3224 6.08967C15.1416 5.67699 14.7436 5.45483 14.3569 5.2603C14.3235 5.2434 14.2901 5.22651 14.2556 5.2091C13.0208 4.61416 11.6097 4.98372 10.6489 5.89499Z" fill="#737373"/>
<path d="M22.9704 4.11436C23.2015 4.2458 23.3672 4.40412 23.5433 4.60186C23.5925 4.65686 23.6416 4.71186 23.6907 4.76686C23.7147 4.79391 23.7387 4.82095 23.7634 4.84882C23.8218 4.91404 23.8818 4.9779 23.942 5.04147C24.5569 5.69472 25.0741 6.44893 25.5449 7.21049C25.6008 7.30002 25.6586 7.38805 25.7171 7.47597C25.7498 7.52723 25.7825 7.57848 25.8162 7.63128C25.858 7.69543 25.858 7.69543 25.9007 7.76087C26.0031 8.0297 26.014 8.28098 25.9061 8.55079C25.8321 8.68962 25.752 8.82184 25.6674 8.95448C25.6377 9.00272 25.608 9.05095 25.5774 9.10065C25.1729 9.75038 24.7332 10.3692 24.2366 10.9519C24.191 11.0068 24.1455 11.0618 24.1001 11.1167C23.5995 11.7171 23.0613 12.2873 22.4455 12.7709C22.3552 12.8424 22.2667 12.9161 22.18 12.9917C19.8982 14.9806 16.5838 16.2648 13.5509 16.2803C13.5043 16.2807 13.4577 16.2811 13.4097 16.2814C11.4696 16.2929 11.4696 16.2929 10.5614 16.1181C10.4836 16.1038 10.4836 16.1038 10.4041 16.0892C9.26568 15.8755 8.15109 15.5299 7.08883 15.0671C7.04849 15.0499 7.00814 15.0327 6.96657 15.015C6.71355 14.8989 6.56421 14.7806 6.40824 14.548C6.35492 14.354 6.39163 14.181 6.47155 13.9972C6.58545 13.8589 6.68888 13.8004 6.86614 13.7713C7.18168 13.7655 7.3991 13.8498 7.67762 13.9909C8.88979 14.568 10.195 14.8914 11.5238 15.0545C11.5612 15.0593 11.5987 15.0642 11.6372 15.0692C14.0259 15.3471 16.5704 14.8492 18.7159 13.7883C18.7618 13.7656 18.8078 13.7429 18.8551 13.7196C19.4778 13.4096 20.0768 13.0824 20.6405 12.674C20.6939 12.6355 20.7472 12.597 20.8022 12.5573C21.7533 11.8552 22.6417 11.0711 23.3756 10.1416C23.4204 10.0861 23.4652 10.0307 23.5101 9.97537C23.8254 9.58377 24.116 9.18035 24.386 8.75614C24.4335 8.6817 24.482 8.60793 24.5306 8.53425C24.5547 8.49534 24.5789 8.45643 24.6038 8.41634C24.634 8.36845 24.634 8.36845 24.6647 8.31959C24.7088 8.15627 24.6591 8.06676 24.5911 7.91302C24.5047 7.76396 24.4096 7.62165 24.3126 7.47934C24.2854 7.43911 24.2582 7.39888 24.2302 7.35743C23.7057 6.58819 23.1113 5.87835 22.4715 5.20293C22.267 4.98621 22.1902 4.88086 22.1924 4.57554C22.2246 4.38706 22.3291 4.29654 22.4639 4.16501C22.6243 4.08482 22.7969 4.08176 22.9704 4.11436Z" fill="#737373"/>
<path d="M16.9938 7.81172C17.175 7.90865 17.2824 8.01902 17.3484 8.21691C17.4238 9.19739 16.9598 10.2447 16.3411 10.9822C16.3058 11.0224 16.2705 11.0625 16.2341 11.1039C16.2003 11.1425 16.1666 11.1811 16.1318 11.2208C15.3823 12.0231 14.2817 12.4732 13.1956 12.53C12.4969 12.549 11.6059 12.4677 11.0218 12.0472C10.8953 11.9175 10.8481 11.7863 10.8337 11.6104C10.8481 11.3756 10.9538 11.2647 11.1186 11.1039C11.3348 10.9958 11.5967 11.0359 11.8205 11.1069C11.8863 11.1298 11.952 11.1531 12.0176 11.1767C12.8203 11.4431 13.6115 11.3865 14.3846 11.0416C15.1887 10.6369 15.7199 9.99939 16.0289 9.15985C16.1005 8.91347 16.1431 8.665 16.1752 8.41058C16.2087 8.17267 16.2676 8.03374 16.4367 7.86237C16.6133 7.77406 16.8012 7.7823 16.9938 7.81172Z" fill="#737373"/>
</svg>
