<svg width="26" height="16" viewBox="0 0 26 16" fill="none" xmlns="http://www.w3.org/2000/svg">
<path fill-rule="evenodd" clip-rule="evenodd" d="M17.3843 8.06117C17.3843 10.4246 15.4328 12.3406 13.0255 12.3406C10.6183 12.3406 8.6668 10.4246 8.6668 8.06117C8.6668 5.69773 10.6183 3.78178 13.0255 3.78178C15.4328 3.78178 17.3843 5.69773 17.3843 8.06117ZM16.2693 8.06117C16.2693 9.82001 14.817 11.2458 13.0255 11.2458C11.2341 11.2458 9.78183 9.82001 9.78183 8.06117C9.78183 6.30233 11.2341 4.87651 13.0255 4.87651C14.817 4.87651 16.2693 6.30233 16.2693 8.06117Z" fill="#737373"/>
<path fill-rule="evenodd" clip-rule="evenodd" d="M25.9237 8.4008C25.9829 8.25551 26.0063 8.11569 25.9986 7.97551C25.9989 7.85165 25.9745 7.72756 25.9223 7.59919C25.8482 7.46279 25.768 7.33289 25.6834 7.20258L25.5933 7.05897C25.1885 6.42064 24.7485 5.81262 24.2516 5.24016C24.206 5.18622 24.1605 5.13224 24.115 5.07824C23.6141 4.48843 23.0755 3.92822 22.4593 3.45306C22.3689 3.3829 22.2804 3.31049 22.1936 3.23613C21.3121 2.4818 20.2766 1.83066 19.1628 1.31457C19.1214 1.29193 19.0769 1.27013 19.0287 1.24841L18.9064 1.19713C18.8617 1.17803 18.817 1.15914 18.7722 1.14046C17.6939 0.678721 16.5525 0.343097 15.4134 0.161195C15.1286 0.107364 14.9335 0.0707523 14.7368 0.0462198C14.3665 1.96346e-05 13.9907 -0.00334263 12.9993 0.00179357C12.0079 -0.00334262 11.632 1.96316e-05 11.2617 0.0462197C11.0651 0.0707522 10.87 0.107363 10.5852 0.161195C9.44605 0.343098 8.3046 0.678727 7.22637 1.14047C7.18156 1.15915 7.13684 1.17804 7.0922 1.19713L6.96986 1.24841C6.92164 1.27013 6.87719 1.29193 6.83573 1.31456C5.72192 1.83065 4.68646 2.4818 3.805 3.23613C3.71821 3.31049 3.62965 3.3829 3.53931 3.45306C2.9231 3.92822 2.3845 4.48843 1.8836 5.07824C1.8381 5.13224 1.79257 5.18622 1.74699 5.24016C1.25008 5.81262 0.810067 6.42064 0.40523 7.05897L0.315198 7.20258C0.230544 7.33289 0.150348 7.46279 0.0762976 7.59919C0.0205749 7.73602 -0.00347127 7.868 0.000401703 8C-0.00347127 8.132 0.0205749 8.26398 0.0762976 8.4008C0.150348 8.5372 0.230544 8.66711 0.315198 8.79742L0.40523 8.94102C0.810067 9.57935 1.25008 10.1874 1.74699 10.7598C1.79257 10.8138 1.8381 10.8678 1.8836 10.9218C2.3845 11.5116 2.9231 12.0718 3.53931 12.5469C3.62965 12.6171 3.71821 12.6895 3.805 12.7639C4.68905 13.5204 5.72801 14.1732 6.84555 14.69C6.8846 14.711 6.92631 14.7313 6.9713 14.7516L7.09364 14.8029C7.12046 14.8143 7.1473 14.8257 7.17419 14.8371C8.27061 15.3116 9.43376 15.6558 10.5943 15.8403C10.875 15.8933 11.0683 15.9295 11.2632 15.9538C11.6334 16 12.0091 16.0033 13 15.9982C13.9909 16.0033 14.3666 16 14.7368 15.9538C14.9317 15.9295 15.125 15.8933 15.4057 15.8403C16.5662 15.6558 17.7294 15.3116 18.8258 14.8371C18.8527 14.8257 18.8795 14.8143 18.9064 14.8029L19.0287 14.7516C19.0737 14.7313 19.1154 14.711 19.1545 14.69C20.272 14.1732 21.311 13.5204 22.195 12.7639C22.2818 12.6895 22.3704 12.6171 22.4607 12.5469C23.0769 12.0718 23.6155 11.5116 24.1164 10.9218C24.1619 10.8678 24.2074 10.8138 24.253 10.7598C24.7499 10.1874 25.1899 9.57935 25.5948 8.94102L25.6848 8.79742C25.7695 8.66711 25.8497 8.5372 25.9237 8.4008ZM1.30705 8C1.3178 8.06222 1.34433 8.12047 1.37695 8.19212C1.38191 8.20301 1.38701 8.21421 1.39221 8.22578C1.47874 8.37222 1.57381 8.51204 1.67097 8.65185L1.75342 8.77162C2.27821 9.52737 2.87307 10.2248 3.51324 10.8883C3.61065 10.9897 3.67911 11.0662 3.72387 11.151C4.18314 11.5758 4.67446 11.9679 5.18374 12.337L5.34549 12.4517C5.90955 12.8529 6.50897 13.1744 7.13209 13.4789L7.27144 13.5464C8.53027 14.1576 9.92635 14.5786 11.3478 14.7672C11.387 14.7724 11.4263 14.7775 11.4656 14.7824C11.976 14.8454 12.4891 14.8784 13 14.8795C13.5109 14.8784 14.024 14.8454 14.5343 14.7824C14.5737 14.7775 14.613 14.7724 14.6523 14.7672C16.0737 14.5786 17.4697 14.1576 18.7286 13.5464L18.8679 13.4789C19.491 13.1744 20.0905 12.8529 20.6545 12.4517L20.8163 12.337C21.3245 11.9687 21.8149 11.5773 22.2733 11.1536C22.3181 11.0678 22.3869 10.9907 22.4853 10.8883C23.1255 10.2248 23.7204 9.52737 24.2451 8.77162L24.3276 8.65185C24.4247 8.51204 24.5198 8.37222 24.6064 8.22578C24.6116 8.21421 24.6167 8.20301 24.6216 8.19212C24.655 8.11888 24.6819 8.05964 24.6922 7.99585C24.681 7.93518 24.6549 7.87793 24.6231 7.80789L24.6177 7.79612C24.6144 7.78896 24.6111 7.78167 24.6078 7.77422C24.5213 7.62778 24.4262 7.48796 24.329 7.34815L24.2466 7.22837C23.7218 6.47263 23.1269 5.77525 22.4868 5.11166C22.3903 5.01136 22.3223 4.93534 22.2775 4.85163C21.8174 4.42585 21.3252 4.03284 20.8148 3.66299L20.6531 3.5483C20.089 3.14709 19.4896 2.82556 18.8665 2.52105L18.7271 2.45358C16.9822 1.60641 14.9736 1.12465 12.9993 1.12053C11.025 1.12465 9.01637 1.60641 7.27144 2.45358L7.13209 2.52105C6.50897 2.82556 5.90955 3.14709 5.34549 3.5483L5.18374 3.66299C4.67446 4.03209 4.18314 4.42424 3.72387 4.84901C3.67911 4.93377 3.61065 5.01032 3.51324 5.11166C2.87307 5.77525 2.27821 6.47263 1.75342 7.22837L1.67097 7.34815C1.57381 7.48796 1.47874 7.62778 1.39221 7.77422C1.38701 7.78579 1.38191 7.79699 1.37695 7.80788C1.34433 7.87952 1.3178 7.93778 1.30705 8Z" fill="#737373"/>
</svg>
