<svg width="63" height="32" viewBox="0 0 63 32" fill="none" xmlns="http://www.w3.org/2000/svg">
<path d="M18.1635 9.43526L9.40521 8.13729C12.0028 11.205 14.9554 14.0023 18.1635 16.4243L18.6347 16.731C21.9957 18.9181 25.5531 20.7875 29.2607 22.3151L32.4953 23.663C30.345 23.4307 28.2254 22.9705 26.1724 22.2901L23.6872 21.4665C20.0141 19.6406 16.5342 17.4495 13.3003 14.9261L12.7891 14.5273L7.71327 9.43526L0.738156 0.90295C0.578146 0.707216 0.265189 0.874118 0.338584 1.11604C0.345055 1.13737 0.354581 1.15765 0.366865 1.17625L1.78908 3.32936C4.3746 7.24361 5.32522 12.0144 4.43751 16.6207L4.37915 16.9236L6.61848 12.3807L6.21383 16.2625C5.96221 18.6763 6.63563 21.0958 8.09818 23.0325C8.18972 23.1537 8.37913 23.1254 8.43123 22.9827L10.1517 18.2715V21.9541C10.1517 23.4285 10.7535 24.8389 11.818 25.8589C12.9175 26.9125 14.227 27.722 15.6609 28.2346L16.0116 28.36C17.2071 28.7873 18.4604 29.0309 19.7289 29.0825L21.1723 29.1412C23.8224 29.249 26.4702 28.8774 28.9882 28.0443L34.5355 26.209L22.6422 31.5507L31.5215 31.8861C33.5244 31.9618 35.5296 31.8111 37.4988 31.437L38.3916 31.2674C40.1915 30.9254 41.9361 30.3382 43.5765 29.5222C45.9198 28.3564 48.0122 26.7429 49.7353 24.7728L50.6573 23.7187C52.7972 21.272 54.4799 18.4605 55.625 15.4184L56.5806 12.8799L55.7003 16.7239C55.163 19.07 54.2337 21.3087 52.9514 23.3455C52.2538 24.4534 51.456 25.495 50.5681 26.4571L48.1706 29.0546C51.3752 27.5608 54.035 25.106 55.7804 22.0312L57.1777 19.5694L55.6351 25.0109L59.0337 21.6014C59.6858 20.9473 60.2717 20.2303 60.7829 19.461L60.9829 19.1601C61.5946 18.2396 62.0708 17.236 62.397 16.18L62.5502 15.6841C62.8477 14.7207 62.9737 13.7125 62.9222 12.7056L62.8987 12.2469C62.8347 10.9949 62.4328 9.7837 61.7357 8.74184L61.6662 8.63794C60.823 7.37771 59.5709 6.44689 58.1212 6.0025C57.2367 5.73138 56.3051 5.64956 55.3869 5.76234L53.6614 5.9743C52.5967 6.1051 51.7152 6.86373 51.4273 7.89713L49.6635 14.2278L48.6682 9.88455L47.3744 22.3151L45.2844 12.6303L42.2306 16.6421C41.5323 17.5594 40.4023 18.0409 39.2569 17.909C38.4678 17.8182 37.693 17.6299 36.9503 17.3484L31.3507 15.2262L29.2016 14.4372C24.2073 12.6035 19.0664 11.1974 13.8341 10.234L18.1635 9.43526Z" fill="#353535"/>
</svg>
