<svg width="87" height="43" viewBox="0 0 87 43" fill="none" xmlns="http://www.w3.org/2000/svg">
<path d="M25.0829 11.9735L12.9882 10.1888C16.5787 14.4109 20.6527 18.2531 25.0829 21.5835L25.7291 22.0021C30.3736 25.0114 35.2875 27.5828 40.4076 29.6833L44.8744 31.5367C41.9049 31.2172 38.9775 30.5843 36.1413 29.6483L32.7109 28.5164C27.6384 26.0058 22.8312 22.9917 18.3618 19.5194L17.6611 18.975L10.6517 11.9735L1.01782 0.239677C0.796756 -0.0295693 0.365964 0.201095 0.467501 0.534338C0.476481 0.563812 0.489695 0.591825 0.506728 0.6175L2.46883 3.57514C6.03941 8.95738 7.3525 15.527 6.12514 21.8682L6.04739 22.2699L9.13981 16.0234L8.5822 21.3496C8.23404 24.675 9.16475 28.0084 11.1853 30.6725C11.3111 30.8383 11.5705 30.7994 11.6421 30.604L14.019 24.1232V29.172C14.019 31.2082 14.8525 33.1557 16.3258 34.5614C17.8404 36.0066 19.6426 37.1163 21.6148 37.8183L22.1142 37.996C23.7632 38.5829 25.4914 38.9175 27.2403 38.9883L29.2383 39.0692C32.898 39.2174 36.5544 38.7063 40.0332 37.5604L47.6919 35.0374L31.2678 42.3822L43.5321 42.8435C46.2966 42.9475 49.064 42.7404 51.7822 42.2262L53.0248 41.9911C55.5053 41.5219 57.9101 40.7158 60.1723 39.5953C63.4116 37.9908 66.3056 35.7681 68.6912 33.0522L69.948 31.6215C72.9079 28.2519 75.2366 24.3767 76.8226 20.1814L78.1351 16.7098L76.9213 21.9871C76.1782 25.2183 74.8934 28.3005 73.1215 31.1029C72.1594 32.6244 71.0596 34.0543 69.8358 35.3745L66.5213 38.9501C70.9468 36.8961 74.6229 33.5151 77.0393 29.2766L78.9597 25.908L76.8294 33.39L81.5253 28.6994C82.4241 27.8016 83.232 26.8173 83.9372 25.7607L84.2167 25.3418C85.0599 24.0784 85.7167 22.7001 86.1667 21.2493L86.3788 20.5657C86.7897 19.2411 86.9636 17.8543 86.8925 16.4692L86.8607 15.8499C86.772 14.1219 86.2153 12.4504 85.2502 11.0142L85.1648 10.8872C83.996 9.14776 82.2635 7.86414 80.2591 7.25237C79.0399 6.88025 77.7562 6.76795 76.4909 6.92271L74.1095 7.21398C72.6356 7.39426 71.4147 8.44328 71.0145 9.87326L68.5829 18.5632L67.2085 12.5913L65.4218 29.6833L62.5355 16.3666L58.3231 21.8767C57.3555 23.1423 55.7939 23.8062 54.2111 23.6248C53.1219 23.5 52.0523 23.2411 51.0266 22.854L43.2938 19.936L37.9245 17.9732C32.6257 16.0361 27.1725 14.551 21.6233 13.5336L19.1043 13.0718L25.0829 11.9735Z" fill="#B3B3B3"/>
</svg>
